G04 #@! TF.FileFunction,Legend,Top*
%FSLAX46Y46*%
G04 Gerber Fmt 4.6, Leading zero omitted, Abs format (unit mm)*
G04 Created by KiCad (PCBNEW 4.0.7) date 03/27/18 18:56:06*
%MOMM*%
%LPD*%
G01*
G04 APERTURE LIST*
%ADD10C,0.100000*%
%ADD11C,0.300000*%
%ADD12C,0.150000*%
G04 APERTURE END LIST*
D10*
D11*
X139299143Y-50116999D02*
X139299143Y-48974142D01*
X139870571Y-49545571D02*
X138727714Y-49545571D01*
X138370571Y-48402713D02*
X138370571Y-47474142D01*
X138942000Y-47974142D01*
X138942000Y-47759856D01*
X139013429Y-47616999D01*
X139084857Y-47545570D01*
X139227714Y-47474142D01*
X139584857Y-47474142D01*
X139727714Y-47545570D01*
X139799143Y-47616999D01*
X139870571Y-47759856D01*
X139870571Y-48188428D01*
X139799143Y-48331285D01*
X139727714Y-48402713D01*
X139727714Y-46831285D02*
X139799143Y-46759857D01*
X139870571Y-46831285D01*
X139799143Y-46902714D01*
X139727714Y-46831285D01*
X139870571Y-46831285D01*
X138370571Y-46259856D02*
X138370571Y-45331285D01*
X138942000Y-45831285D01*
X138942000Y-45616999D01*
X139013429Y-45474142D01*
X139084857Y-45402713D01*
X139227714Y-45331285D01*
X139584857Y-45331285D01*
X139727714Y-45402713D01*
X139799143Y-45474142D01*
X139870571Y-45616999D01*
X139870571Y-46045571D01*
X139799143Y-46188428D01*
X139727714Y-46259856D01*
X138370571Y-44902714D02*
X139870571Y-44402714D01*
X138370571Y-43902714D01*
X140601000Y-49275857D02*
X140529571Y-49418714D01*
X140529571Y-49633000D01*
X140601000Y-49847285D01*
X140743857Y-49990143D01*
X140886714Y-50061571D01*
X141172429Y-50133000D01*
X141386714Y-50133000D01*
X141672429Y-50061571D01*
X141815286Y-49990143D01*
X141958143Y-49847285D01*
X142029571Y-49633000D01*
X142029571Y-49490143D01*
X141958143Y-49275857D01*
X141886714Y-49204428D01*
X141386714Y-49204428D01*
X141386714Y-49490143D01*
X142029571Y-48561571D02*
X140529571Y-48561571D01*
X142029571Y-47704428D01*
X140529571Y-47704428D01*
X142029571Y-46990142D02*
X140529571Y-46990142D01*
X140529571Y-46632999D01*
X140601000Y-46418714D01*
X140743857Y-46275856D01*
X140886714Y-46204428D01*
X141172429Y-46132999D01*
X141386714Y-46132999D01*
X141672429Y-46204428D01*
X141815286Y-46275856D01*
X141958143Y-46418714D01*
X142029571Y-46632999D01*
X142029571Y-46990142D01*
X137283000Y-49894857D02*
X137283000Y-49180571D01*
X137711571Y-50037714D02*
X136211571Y-49537714D01*
X137711571Y-49037714D01*
X137711571Y-48323428D02*
X137640143Y-48466286D01*
X137568714Y-48537714D01*
X137425857Y-48609143D01*
X136997286Y-48609143D01*
X136854429Y-48537714D01*
X136783000Y-48466286D01*
X136711571Y-48323428D01*
X136711571Y-48109143D01*
X136783000Y-47966286D01*
X136854429Y-47894857D01*
X136997286Y-47823428D01*
X137425857Y-47823428D01*
X137568714Y-47894857D01*
X137640143Y-47966286D01*
X137711571Y-48109143D01*
X137711571Y-48323428D01*
X136711571Y-46537714D02*
X137711571Y-46537714D01*
X136711571Y-47180571D02*
X137497286Y-47180571D01*
X137640143Y-47109143D01*
X137711571Y-46966285D01*
X137711571Y-46752000D01*
X137640143Y-46609143D01*
X137568714Y-46537714D01*
X136711571Y-46037714D02*
X136711571Y-45466285D01*
X136211571Y-45823428D02*
X137497286Y-45823428D01*
X137640143Y-45752000D01*
X137711571Y-45609142D01*
X137711571Y-45466285D01*
D12*
X126873000Y-41937940D02*
X126873000Y-42191940D01*
X126873000Y-39397940D02*
X126873000Y-39651940D01*
X126873000Y-36857940D02*
X126873000Y-37111940D01*
X133477000Y-36857940D02*
X133477000Y-37111940D01*
X133477000Y-39397940D02*
X133477000Y-39651940D01*
X133477000Y-41937940D02*
X133477000Y-42191940D01*
X128270000Y-35460940D02*
G75*
G03X128270000Y-35460940I-254000J0D01*
G01*
X129159000Y-34444940D02*
X126873000Y-34444940D01*
X133477000Y-34444940D02*
X131191000Y-34444940D01*
X129159000Y-34444940D02*
G75*
G03X130175000Y-35460940I1016000J0D01*
G01*
X130175000Y-35460940D02*
G75*
G03X131191000Y-34444940I0J1016000D01*
G01*
X133477000Y-44604940D02*
X133477000Y-44096940D01*
X126873000Y-44604940D02*
X126873000Y-44096940D01*
X126873000Y-34444940D02*
X126873000Y-34952940D01*
X133477000Y-34444940D02*
X133477000Y-34952940D01*
X133477000Y-44604940D02*
X126873000Y-44604940D01*
X136017000Y-48260000D02*
X124587000Y-48260000D01*
X124587000Y-48260000D02*
X124587000Y-60198000D01*
X128397000Y-54610000D02*
X132207000Y-54610000D01*
X131318000Y-52070000D02*
X129286000Y-52070000D01*
X126492000Y-45720000D02*
X134112000Y-45720000D01*
X136017000Y-60198000D02*
X124587000Y-60198000D01*
X129286000Y-54610000D02*
X129286000Y-52070000D01*
X128397000Y-60198000D02*
X128397000Y-54610000D01*
X132207000Y-60198000D02*
X132207000Y-59690000D01*
X136017000Y-48260000D02*
X136017000Y-60198000D01*
X132207000Y-55880000D02*
X132207000Y-54610000D01*
X132207000Y-55880000D02*
X132207000Y-59690000D01*
X131318000Y-54610000D02*
X131318000Y-52070000D01*
X126492000Y-48260000D02*
X126492000Y-45720000D01*
X134112000Y-45720000D02*
X134112000Y-48260000D01*
X129627381Y-40286845D02*
X130436905Y-40286845D01*
X130532143Y-40239226D01*
X130579762Y-40191607D01*
X130627381Y-40096369D01*
X130627381Y-39905892D01*
X130579762Y-39810654D01*
X130532143Y-39763035D01*
X130436905Y-39715416D01*
X129627381Y-39715416D01*
X130627381Y-38715416D02*
X130627381Y-39286845D01*
X130627381Y-39001131D02*
X129627381Y-39001131D01*
X129770238Y-39096369D01*
X129865476Y-39191607D01*
X129913095Y-39286845D01*
M02*
