G04 #@! TF.FileFunction,Legend,Bot*
%FSLAX46Y46*%
G04 Gerber Fmt 4.6, Leading zero omitted, Abs format (unit mm)*
G04 Created by KiCad (PCBNEW 4.0.7) date 03/27/18 18:56:06*
%MOMM*%
%LPD*%
G01*
G04 APERTURE LIST*
%ADD10C,0.100000*%
%ADD11C,0.300000*%
%ADD12C,0.010000*%
G04 APERTURE END LIST*
D10*
D11*
X121821571Y-27535143D02*
X120321571Y-27535143D01*
X120321571Y-28106571D01*
X120393000Y-28249429D01*
X120464429Y-28320857D01*
X120607286Y-28392286D01*
X120821571Y-28392286D01*
X120964429Y-28320857D01*
X121035857Y-28249429D01*
X121107286Y-28106571D01*
X121107286Y-27535143D01*
X121821571Y-29035143D02*
X120321571Y-29035143D01*
X121821571Y-29678000D02*
X121035857Y-29678000D01*
X120893000Y-29606571D01*
X120821571Y-29463714D01*
X120821571Y-29249429D01*
X120893000Y-29106571D01*
X120964429Y-29035143D01*
X121821571Y-30606572D02*
X121750143Y-30463714D01*
X121678714Y-30392286D01*
X121535857Y-30320857D01*
X121107286Y-30320857D01*
X120964429Y-30392286D01*
X120893000Y-30463714D01*
X120821571Y-30606572D01*
X120821571Y-30820857D01*
X120893000Y-30963714D01*
X120964429Y-31035143D01*
X121107286Y-31106572D01*
X121535857Y-31106572D01*
X121678714Y-31035143D01*
X121750143Y-30963714D01*
X121821571Y-30820857D01*
X121821571Y-30606572D01*
X120821571Y-31535143D02*
X120821571Y-32106572D01*
X120321571Y-31749429D02*
X121607286Y-31749429D01*
X121750143Y-31820857D01*
X121821571Y-31963715D01*
X121821571Y-32106572D01*
X121821571Y-32820858D02*
X121750143Y-32678000D01*
X121678714Y-32606572D01*
X121535857Y-32535143D01*
X121107286Y-32535143D01*
X120964429Y-32606572D01*
X120893000Y-32678000D01*
X120821571Y-32820858D01*
X120821571Y-33035143D01*
X120893000Y-33178000D01*
X120964429Y-33249429D01*
X121107286Y-33320858D01*
X121535857Y-33320858D01*
X121678714Y-33249429D01*
X121750143Y-33178000D01*
X121821571Y-33035143D01*
X121821571Y-32820858D01*
X121821571Y-34606572D02*
X120321571Y-34606572D01*
X121750143Y-34606572D02*
X121821571Y-34463715D01*
X121821571Y-34178001D01*
X121750143Y-34035143D01*
X121678714Y-33963715D01*
X121535857Y-33892286D01*
X121107286Y-33892286D01*
X120964429Y-33963715D01*
X120893000Y-34035143D01*
X120821571Y-34178001D01*
X120821571Y-34463715D01*
X120893000Y-34606572D01*
X121821571Y-35320858D02*
X120821571Y-35320858D01*
X120321571Y-35320858D02*
X120393000Y-35249429D01*
X120464429Y-35320858D01*
X120393000Y-35392286D01*
X120321571Y-35320858D01*
X120464429Y-35320858D01*
X121821571Y-36249430D02*
X121750143Y-36106572D01*
X121678714Y-36035144D01*
X121535857Y-35963715D01*
X121107286Y-35963715D01*
X120964429Y-36035144D01*
X120893000Y-36106572D01*
X120821571Y-36249430D01*
X120821571Y-36463715D01*
X120893000Y-36606572D01*
X120964429Y-36678001D01*
X121107286Y-36749430D01*
X121535857Y-36749430D01*
X121678714Y-36678001D01*
X121750143Y-36606572D01*
X121821571Y-36463715D01*
X121821571Y-36249430D01*
X121821571Y-38035144D02*
X120321571Y-38035144D01*
X121750143Y-38035144D02*
X121821571Y-37892287D01*
X121821571Y-37606573D01*
X121750143Y-37463715D01*
X121678714Y-37392287D01*
X121535857Y-37320858D01*
X121107286Y-37320858D01*
X120964429Y-37392287D01*
X120893000Y-37463715D01*
X120821571Y-37606573D01*
X120821571Y-37892287D01*
X120893000Y-38035144D01*
X121750143Y-39320858D02*
X121821571Y-39178001D01*
X121821571Y-38892287D01*
X121750143Y-38749430D01*
X121607286Y-38678001D01*
X121035857Y-38678001D01*
X120893000Y-38749430D01*
X120821571Y-38892287D01*
X120821571Y-39178001D01*
X120893000Y-39320858D01*
X121035857Y-39392287D01*
X121178714Y-39392287D01*
X121321571Y-38678001D01*
X121035857Y-41678001D02*
X121107286Y-41892287D01*
X121178714Y-41963715D01*
X121321571Y-42035144D01*
X121535857Y-42035144D01*
X121678714Y-41963715D01*
X121750143Y-41892287D01*
X121821571Y-41749429D01*
X121821571Y-41178001D01*
X120321571Y-41178001D01*
X120321571Y-41678001D01*
X120393000Y-41820858D01*
X120464429Y-41892287D01*
X120607286Y-41963715D01*
X120750143Y-41963715D01*
X120893000Y-41892287D01*
X120964429Y-41820858D01*
X121035857Y-41678001D01*
X121035857Y-41178001D01*
X121821571Y-42678001D02*
X120821571Y-42678001D01*
X121107286Y-42678001D02*
X120964429Y-42749429D01*
X120893000Y-42820858D01*
X120821571Y-42963715D01*
X120821571Y-43106572D01*
X121750143Y-44178000D02*
X121821571Y-44035143D01*
X121821571Y-43749429D01*
X121750143Y-43606572D01*
X121607286Y-43535143D01*
X121035857Y-43535143D01*
X120893000Y-43606572D01*
X120821571Y-43749429D01*
X120821571Y-44035143D01*
X120893000Y-44178000D01*
X121035857Y-44249429D01*
X121178714Y-44249429D01*
X121321571Y-43535143D01*
X121821571Y-45535143D02*
X121035857Y-45535143D01*
X120893000Y-45463714D01*
X120821571Y-45320857D01*
X120821571Y-45035143D01*
X120893000Y-44892286D01*
X121750143Y-45535143D02*
X121821571Y-45392286D01*
X121821571Y-45035143D01*
X121750143Y-44892286D01*
X121607286Y-44820857D01*
X121464429Y-44820857D01*
X121321571Y-44892286D01*
X121250143Y-45035143D01*
X121250143Y-45392286D01*
X121178714Y-45535143D01*
X121821571Y-46249429D02*
X120321571Y-46249429D01*
X121250143Y-46392286D02*
X121821571Y-46820857D01*
X120821571Y-46820857D02*
X121393000Y-46249429D01*
X121821571Y-47678001D02*
X121750143Y-47535143D01*
X121678714Y-47463715D01*
X121535857Y-47392286D01*
X121107286Y-47392286D01*
X120964429Y-47463715D01*
X120893000Y-47535143D01*
X120821571Y-47678001D01*
X120821571Y-47892286D01*
X120893000Y-48035143D01*
X120964429Y-48106572D01*
X121107286Y-48178001D01*
X121535857Y-48178001D01*
X121678714Y-48106572D01*
X121750143Y-48035143D01*
X121821571Y-47892286D01*
X121821571Y-47678001D01*
X120821571Y-49463715D02*
X121821571Y-49463715D01*
X120821571Y-48820858D02*
X121607286Y-48820858D01*
X121750143Y-48892286D01*
X121821571Y-49035144D01*
X121821571Y-49249429D01*
X121750143Y-49392286D01*
X121678714Y-49463715D01*
X120821571Y-49963715D02*
X120821571Y-50535144D01*
X120321571Y-50178001D02*
X121607286Y-50178001D01*
X121750143Y-50249429D01*
X121821571Y-50392287D01*
X121821571Y-50535144D01*
X121750143Y-51106572D02*
X121821571Y-51106572D01*
X121964429Y-51035144D01*
X122035857Y-50963715D01*
X121821571Y-53749430D02*
X121107286Y-53249430D01*
X121821571Y-52892287D02*
X120321571Y-52892287D01*
X120321571Y-53463715D01*
X120393000Y-53606573D01*
X120464429Y-53678001D01*
X120607286Y-53749430D01*
X120821571Y-53749430D01*
X120964429Y-53678001D01*
X121035857Y-53606573D01*
X121107286Y-53463715D01*
X121107286Y-52892287D01*
X121750143Y-54963715D02*
X121821571Y-54820858D01*
X121821571Y-54535144D01*
X121750143Y-54392287D01*
X121607286Y-54320858D01*
X121035857Y-54320858D01*
X120893000Y-54392287D01*
X120821571Y-54535144D01*
X120821571Y-54820858D01*
X120893000Y-54963715D01*
X121035857Y-55035144D01*
X121178714Y-55035144D01*
X121321571Y-54320858D01*
X120821571Y-55535144D02*
X121821571Y-55892287D01*
X120821571Y-56249429D01*
X121821571Y-58749429D02*
X121821571Y-57892286D01*
X121821571Y-58320858D02*
X120321571Y-58320858D01*
X120535857Y-58178001D01*
X120678714Y-58035143D01*
X120750143Y-57892286D01*
X124371571Y-27535143D02*
X122871571Y-27535143D01*
X123943000Y-28035143D01*
X122871571Y-28535143D01*
X124371571Y-28535143D01*
X124371571Y-29892286D02*
X123585857Y-29892286D01*
X123443000Y-29820857D01*
X123371571Y-29678000D01*
X123371571Y-29392286D01*
X123443000Y-29249429D01*
X124300143Y-29892286D02*
X124371571Y-29749429D01*
X124371571Y-29392286D01*
X124300143Y-29249429D01*
X124157286Y-29178000D01*
X124014429Y-29178000D01*
X123871571Y-29249429D01*
X123800143Y-29392286D01*
X123800143Y-29749429D01*
X123728714Y-29892286D01*
X124371571Y-30606572D02*
X123371571Y-30606572D01*
X123657286Y-30606572D02*
X123514429Y-30678000D01*
X123443000Y-30749429D01*
X123371571Y-30892286D01*
X123371571Y-31035143D01*
X124300143Y-31463714D02*
X124371571Y-31606571D01*
X124371571Y-31892286D01*
X124300143Y-32035143D01*
X124157286Y-32106571D01*
X124085857Y-32106571D01*
X123943000Y-32035143D01*
X123871571Y-31892286D01*
X123871571Y-31678000D01*
X123800143Y-31535143D01*
X123657286Y-31463714D01*
X123585857Y-31463714D01*
X123443000Y-31535143D01*
X123371571Y-31678000D01*
X123371571Y-31892286D01*
X123443000Y-32035143D01*
X124371571Y-34749429D02*
X123657286Y-34249429D01*
X124371571Y-33892286D02*
X122871571Y-33892286D01*
X122871571Y-34463714D01*
X122943000Y-34606572D01*
X123014429Y-34678000D01*
X123157286Y-34749429D01*
X123371571Y-34749429D01*
X123514429Y-34678000D01*
X123585857Y-34606572D01*
X123657286Y-34463714D01*
X123657286Y-33892286D01*
X124371571Y-35606572D02*
X124300143Y-35463714D01*
X124228714Y-35392286D01*
X124085857Y-35320857D01*
X123657286Y-35320857D01*
X123514429Y-35392286D01*
X123443000Y-35463714D01*
X123371571Y-35606572D01*
X123371571Y-35820857D01*
X123443000Y-35963714D01*
X123514429Y-36035143D01*
X123657286Y-36106572D01*
X124085857Y-36106572D01*
X124228714Y-36035143D01*
X124300143Y-35963714D01*
X124371571Y-35820857D01*
X124371571Y-35606572D01*
X123371571Y-36606572D02*
X124371571Y-36963715D01*
X123371571Y-37320857D01*
X124300143Y-38463714D02*
X124371571Y-38320857D01*
X124371571Y-38035143D01*
X124300143Y-37892286D01*
X124157286Y-37820857D01*
X123585857Y-37820857D01*
X123443000Y-37892286D01*
X123371571Y-38035143D01*
X123371571Y-38320857D01*
X123443000Y-38463714D01*
X123585857Y-38535143D01*
X123728714Y-38535143D01*
X123871571Y-37820857D01*
X124371571Y-39178000D02*
X123371571Y-39178000D01*
X123657286Y-39178000D02*
X123514429Y-39249428D01*
X123443000Y-39320857D01*
X123371571Y-39463714D01*
X123371571Y-39606571D01*
X124300143Y-40177999D02*
X124371571Y-40177999D01*
X124514429Y-40106571D01*
X124585857Y-40035142D01*
X123014429Y-41892285D02*
X122943000Y-41963714D01*
X122871571Y-42106571D01*
X122871571Y-42463714D01*
X122943000Y-42606571D01*
X123014429Y-42678000D01*
X123157286Y-42749428D01*
X123300143Y-42749428D01*
X123514429Y-42678000D01*
X124371571Y-41820857D01*
X124371571Y-42749428D01*
X122871571Y-43677999D02*
X122871571Y-43820856D01*
X122943000Y-43963713D01*
X123014429Y-44035142D01*
X123157286Y-44106571D01*
X123443000Y-44177999D01*
X123800143Y-44177999D01*
X124085857Y-44106571D01*
X124228714Y-44035142D01*
X124300143Y-43963713D01*
X124371571Y-43820856D01*
X124371571Y-43677999D01*
X124300143Y-43535142D01*
X124228714Y-43463713D01*
X124085857Y-43392285D01*
X123800143Y-43320856D01*
X123443000Y-43320856D01*
X123157286Y-43392285D01*
X123014429Y-43463713D01*
X122943000Y-43535142D01*
X122871571Y-43677999D01*
X124371571Y-45606570D02*
X124371571Y-44749427D01*
X124371571Y-45177999D02*
X122871571Y-45177999D01*
X123085857Y-45035142D01*
X123228714Y-44892284D01*
X123300143Y-44749427D01*
X123514429Y-46463713D02*
X123443000Y-46320855D01*
X123371571Y-46249427D01*
X123228714Y-46177998D01*
X123157286Y-46177998D01*
X123014429Y-46249427D01*
X122943000Y-46320855D01*
X122871571Y-46463713D01*
X122871571Y-46749427D01*
X122943000Y-46892284D01*
X123014429Y-46963713D01*
X123157286Y-47035141D01*
X123228714Y-47035141D01*
X123371571Y-46963713D01*
X123443000Y-46892284D01*
X123514429Y-46749427D01*
X123514429Y-46463713D01*
X123585857Y-46320855D01*
X123657286Y-46249427D01*
X123800143Y-46177998D01*
X124085857Y-46177998D01*
X124228714Y-46249427D01*
X124300143Y-46320855D01*
X124371571Y-46463713D01*
X124371571Y-46749427D01*
X124300143Y-46892284D01*
X124228714Y-46963713D01*
X124085857Y-47035141D01*
X123800143Y-47035141D01*
X123657286Y-46963713D01*
X123585857Y-46892284D01*
X123514429Y-46749427D01*
X126921571Y-27535143D02*
X125421571Y-27535143D01*
X126493000Y-28035143D01*
X125421571Y-28535143D01*
X126921571Y-28535143D01*
X126921571Y-29249429D02*
X125921571Y-29249429D01*
X125421571Y-29249429D02*
X125493000Y-29178000D01*
X125564429Y-29249429D01*
X125493000Y-29320857D01*
X125421571Y-29249429D01*
X125564429Y-29249429D01*
X126850143Y-29892286D02*
X126921571Y-30035143D01*
X126921571Y-30320858D01*
X126850143Y-30463715D01*
X126707286Y-30535143D01*
X126635857Y-30535143D01*
X126493000Y-30463715D01*
X126421571Y-30320858D01*
X126421571Y-30106572D01*
X126350143Y-29963715D01*
X126207286Y-29892286D01*
X126135857Y-29892286D01*
X125993000Y-29963715D01*
X125921571Y-30106572D01*
X125921571Y-30320858D01*
X125993000Y-30463715D01*
X126850143Y-31106572D02*
X126921571Y-31249429D01*
X126921571Y-31535144D01*
X126850143Y-31678001D01*
X126707286Y-31749429D01*
X126635857Y-31749429D01*
X126493000Y-31678001D01*
X126421571Y-31535144D01*
X126421571Y-31320858D01*
X126350143Y-31178001D01*
X126207286Y-31106572D01*
X126135857Y-31106572D01*
X125993000Y-31178001D01*
X125921571Y-31320858D01*
X125921571Y-31535144D01*
X125993000Y-31678001D01*
X126921571Y-32606573D02*
X126850143Y-32463715D01*
X126778714Y-32392287D01*
X126635857Y-32320858D01*
X126207286Y-32320858D01*
X126064429Y-32392287D01*
X125993000Y-32463715D01*
X125921571Y-32606573D01*
X125921571Y-32820858D01*
X125993000Y-32963715D01*
X126064429Y-33035144D01*
X126207286Y-33106573D01*
X126635857Y-33106573D01*
X126778714Y-33035144D01*
X126850143Y-32963715D01*
X126921571Y-32820858D01*
X126921571Y-32606573D01*
X125921571Y-34392287D02*
X126921571Y-34392287D01*
X125921571Y-33749430D02*
X126707286Y-33749430D01*
X126850143Y-33820858D01*
X126921571Y-33963716D01*
X126921571Y-34178001D01*
X126850143Y-34320858D01*
X126778714Y-34392287D01*
X126921571Y-35106573D02*
X125921571Y-35106573D01*
X126207286Y-35106573D02*
X126064429Y-35178001D01*
X125993000Y-35249430D01*
X125921571Y-35392287D01*
X125921571Y-35535144D01*
X126921571Y-36035144D02*
X125921571Y-36035144D01*
X125421571Y-36035144D02*
X125493000Y-35963715D01*
X125564429Y-36035144D01*
X125493000Y-36106572D01*
X125421571Y-36035144D01*
X125564429Y-36035144D01*
X126850143Y-37820858D02*
X126921571Y-38035144D01*
X126921571Y-38392287D01*
X126850143Y-38535144D01*
X126778714Y-38606573D01*
X126635857Y-38678001D01*
X126493000Y-38678001D01*
X126350143Y-38606573D01*
X126278714Y-38535144D01*
X126207286Y-38392287D01*
X126135857Y-38106573D01*
X126064429Y-37963715D01*
X125993000Y-37892287D01*
X125850143Y-37820858D01*
X125707286Y-37820858D01*
X125564429Y-37892287D01*
X125493000Y-37963715D01*
X125421571Y-38106573D01*
X125421571Y-38463715D01*
X125493000Y-38678001D01*
X126921571Y-40535144D02*
X126921571Y-40463715D01*
X126850143Y-40320858D01*
X126635857Y-40106572D01*
X126207286Y-39749429D01*
X125993000Y-39606572D01*
X125778714Y-39535144D01*
X125635857Y-39535144D01*
X125493000Y-39606572D01*
X125421571Y-39749429D01*
X125421571Y-39820858D01*
X125493000Y-39963715D01*
X125635857Y-40035144D01*
X125707286Y-40035144D01*
X125850143Y-39963715D01*
X125921571Y-39892286D01*
X126207286Y-39463715D01*
X126278714Y-39392286D01*
X126421571Y-39320858D01*
X126635857Y-39320858D01*
X126778714Y-39392286D01*
X126850143Y-39463715D01*
X126921571Y-39606572D01*
X126921571Y-39820858D01*
X126850143Y-39963715D01*
X126778714Y-40035144D01*
X126493000Y-40249429D01*
X126278714Y-40320858D01*
X126135857Y-40320858D01*
X125421571Y-40963715D02*
X125421571Y-41820858D01*
X126921571Y-41392287D02*
X125421571Y-41392287D01*
X129043000Y-27463714D02*
X129043000Y-28178000D01*
X129471571Y-27320857D02*
X127971571Y-27820857D01*
X129471571Y-28320857D01*
X128471571Y-28820857D02*
X129471571Y-28820857D01*
X128614429Y-28820857D02*
X128543000Y-28892285D01*
X128471571Y-29035143D01*
X128471571Y-29249428D01*
X128543000Y-29392285D01*
X128685857Y-29463714D01*
X129471571Y-29463714D01*
X129471571Y-30820857D02*
X127971571Y-30820857D01*
X129400143Y-30820857D02*
X129471571Y-30678000D01*
X129471571Y-30392286D01*
X129400143Y-30249428D01*
X129328714Y-30178000D01*
X129185857Y-30106571D01*
X128757286Y-30106571D01*
X128614429Y-30178000D01*
X128543000Y-30249428D01*
X128471571Y-30392286D01*
X128471571Y-30678000D01*
X128543000Y-30820857D01*
X129471571Y-31535143D02*
X128471571Y-31535143D01*
X128757286Y-31535143D02*
X128614429Y-31606571D01*
X128543000Y-31678000D01*
X128471571Y-31820857D01*
X128471571Y-31963714D01*
X129400143Y-33035142D02*
X129471571Y-32892285D01*
X129471571Y-32606571D01*
X129400143Y-32463714D01*
X129257286Y-32392285D01*
X128685857Y-32392285D01*
X128543000Y-32463714D01*
X128471571Y-32606571D01*
X128471571Y-32892285D01*
X128543000Y-33035142D01*
X128685857Y-33106571D01*
X128828714Y-33106571D01*
X128971571Y-32392285D01*
X128471571Y-33606571D02*
X129471571Y-33892285D01*
X128757286Y-34177999D01*
X129471571Y-34463714D01*
X128471571Y-34749428D01*
X127971571Y-36249428D02*
X129471571Y-36749428D01*
X127971571Y-37249428D01*
X129471571Y-38392285D02*
X128685857Y-38392285D01*
X128543000Y-38320856D01*
X128471571Y-38177999D01*
X128471571Y-37892285D01*
X128543000Y-37749428D01*
X129400143Y-38392285D02*
X129471571Y-38249428D01*
X129471571Y-37892285D01*
X129400143Y-37749428D01*
X129257286Y-37677999D01*
X129114429Y-37677999D01*
X128971571Y-37749428D01*
X128900143Y-37892285D01*
X128900143Y-38249428D01*
X128828714Y-38392285D01*
X128471571Y-39106571D02*
X129471571Y-39106571D01*
X128614429Y-39106571D02*
X128543000Y-39177999D01*
X128471571Y-39320857D01*
X128471571Y-39535142D01*
X128543000Y-39677999D01*
X128685857Y-39749428D01*
X129471571Y-39749428D01*
X129471571Y-41606571D02*
X127971571Y-41606571D01*
X128685857Y-41606571D02*
X128685857Y-42463714D01*
X129471571Y-42463714D02*
X127971571Y-42463714D01*
X129471571Y-43392286D02*
X129400143Y-43249428D01*
X129328714Y-43178000D01*
X129185857Y-43106571D01*
X128757286Y-43106571D01*
X128614429Y-43178000D01*
X128543000Y-43249428D01*
X128471571Y-43392286D01*
X128471571Y-43606571D01*
X128543000Y-43749428D01*
X128614429Y-43820857D01*
X128757286Y-43892286D01*
X129185857Y-43892286D01*
X129328714Y-43820857D01*
X129400143Y-43749428D01*
X129471571Y-43606571D01*
X129471571Y-43392286D01*
X129471571Y-44535143D02*
X128471571Y-44535143D01*
X128757286Y-44535143D02*
X128614429Y-44606571D01*
X128543000Y-44678000D01*
X128471571Y-44820857D01*
X128471571Y-44963714D01*
X128471571Y-45463714D02*
X129471571Y-45463714D01*
X128614429Y-45463714D02*
X128543000Y-45535142D01*
X128471571Y-45678000D01*
X128471571Y-45892285D01*
X128543000Y-46035142D01*
X128685857Y-46106571D01*
X129471571Y-46106571D01*
D12*
G36*
X132734025Y-34330354D02*
X132746126Y-34325097D01*
X132771867Y-34308000D01*
X132785756Y-34298190D01*
X132812842Y-34279840D01*
X132842573Y-34261861D01*
X132877325Y-34243125D01*
X132919477Y-34222503D01*
X132971406Y-34198868D01*
X133035489Y-34171091D01*
X133114105Y-34138043D01*
X133185244Y-34108622D01*
X133246670Y-34083600D01*
X133323444Y-34052740D01*
X133412161Y-34017379D01*
X133509415Y-33978855D01*
X133611801Y-33938506D01*
X133715915Y-33897670D01*
X133818352Y-33857686D01*
X133915706Y-33819891D01*
X134004572Y-33785623D01*
X134081545Y-33756220D01*
X134096988Y-33750369D01*
X134125648Y-33739532D01*
X134048539Y-33683220D01*
X134016301Y-33658322D01*
X133992500Y-33637298D01*
X133980255Y-33623057D01*
X133979721Y-33619006D01*
X133989970Y-33613388D01*
X134016788Y-33599808D01*
X134058649Y-33579013D01*
X134114028Y-33551749D01*
X134181401Y-33518761D01*
X134259243Y-33480796D01*
X134346029Y-33438599D01*
X134440233Y-33392917D01*
X134540332Y-33344495D01*
X134580344Y-33325172D01*
X134810675Y-33213921D01*
X135024119Y-33110687D01*
X135221925Y-33014860D01*
X135405337Y-32925831D01*
X135575603Y-32842990D01*
X135733968Y-32765727D01*
X135881678Y-32693434D01*
X136019980Y-32625500D01*
X136150120Y-32561316D01*
X136273344Y-32500273D01*
X136390899Y-32441761D01*
X136504030Y-32385170D01*
X136568170Y-32352958D01*
X136655492Y-32309299D01*
X136730559Y-32272018D01*
X136795093Y-32239790D01*
X136850820Y-32211287D01*
X136899462Y-32185185D01*
X136942744Y-32160158D01*
X136982388Y-32134879D01*
X137020118Y-32108022D01*
X137057659Y-32078263D01*
X137096733Y-32044274D01*
X137139065Y-32004730D01*
X137186378Y-31958305D01*
X137240396Y-31903674D01*
X137302842Y-31839510D01*
X137375440Y-31764487D01*
X137459913Y-31677280D01*
X137499491Y-31636554D01*
X137571369Y-31563095D01*
X137642443Y-31491228D01*
X137710806Y-31422826D01*
X137774553Y-31359766D01*
X137831777Y-31303923D01*
X137880572Y-31257171D01*
X137919031Y-31221386D01*
X137942693Y-31200557D01*
X138009302Y-31143906D01*
X138088063Y-31075212D01*
X138176789Y-30996482D01*
X138273292Y-30909725D01*
X138375383Y-30816952D01*
X138480873Y-30720170D01*
X138587576Y-30621390D01*
X138693303Y-30522620D01*
X138795865Y-30425869D01*
X138893074Y-30333146D01*
X138982743Y-30246461D01*
X138997276Y-30232277D01*
X139046495Y-30184303D01*
X139090708Y-30141468D01*
X139127984Y-30105624D01*
X139156390Y-30078621D01*
X139173992Y-30062311D01*
X139179010Y-30058216D01*
X139183406Y-30070556D01*
X139191450Y-30098514D01*
X139202143Y-30138177D01*
X139214487Y-30185627D01*
X139227484Y-30236951D01*
X139240137Y-30288232D01*
X139251446Y-30335556D01*
X139260415Y-30375007D01*
X139263646Y-30390248D01*
X139275804Y-30454725D01*
X139282207Y-30501584D01*
X139282973Y-30532406D01*
X139278219Y-30548773D01*
X139275583Y-30551197D01*
X139266119Y-30560789D01*
X139247312Y-30582492D01*
X139222264Y-30612665D01*
X139204490Y-30634616D01*
X139141677Y-30712917D01*
X139291133Y-30554457D01*
X139297227Y-30588509D01*
X139305957Y-30648866D01*
X139313029Y-30721208D01*
X139318462Y-30802794D01*
X139322277Y-30890882D01*
X139324494Y-30982733D01*
X139325133Y-31075604D01*
X139324214Y-31166756D01*
X139321757Y-31253446D01*
X139317782Y-31332934D01*
X139312310Y-31402479D01*
X139305359Y-31459339D01*
X139296951Y-31500774D01*
X139290418Y-31518727D01*
X139278573Y-31530207D01*
X139251044Y-31550525D01*
X139209607Y-31578600D01*
X139156034Y-31613347D01*
X139092098Y-31653685D01*
X139019575Y-31698531D01*
X138940236Y-31746802D01*
X138855857Y-31797416D01*
X138768210Y-31849290D01*
X138679069Y-31901340D01*
X138590208Y-31952486D01*
X138503401Y-32001643D01*
X138455601Y-32028313D01*
X138380587Y-32070634D01*
X138302270Y-32116086D01*
X138225062Y-32162021D01*
X138153374Y-32205788D01*
X138091618Y-32244738D01*
X138054020Y-32269502D01*
X137997446Y-32306553D01*
X137928712Y-32349582D01*
X137853417Y-32395202D01*
X137777161Y-32440025D01*
X137705546Y-32480663D01*
X137698199Y-32484729D01*
X137610052Y-32534622D01*
X137528585Y-32583686D01*
X137448318Y-32635448D01*
X137363778Y-32693438D01*
X137271519Y-32759701D01*
X137073263Y-32901597D01*
X136877387Y-33035685D01*
X136679061Y-33165082D01*
X136473452Y-33292904D01*
X136255732Y-33422269D01*
X136151530Y-33482383D01*
X136089546Y-33518454D01*
X136036042Y-33551279D01*
X135986826Y-33583815D01*
X135937706Y-33619021D01*
X135884488Y-33659857D01*
X135822981Y-33709280D01*
X135780068Y-33744523D01*
X135721066Y-33793164D01*
X135662214Y-33841546D01*
X135606860Y-33886927D01*
X135558355Y-33926562D01*
X135520046Y-33957709D01*
X135503981Y-33970674D01*
X135465543Y-34001876D01*
X135417481Y-34041381D01*
X135365473Y-34084496D01*
X135315201Y-34126528D01*
X135306940Y-34133477D01*
X135265501Y-34167700D01*
X135228815Y-34196739D01*
X135199870Y-34218326D01*
X135181651Y-34230192D01*
X135177508Y-34231771D01*
X135162432Y-34229093D01*
X135135033Y-34222201D01*
X135101213Y-34212810D01*
X135066871Y-34202635D01*
X135037911Y-34193392D01*
X135020231Y-34186794D01*
X135017690Y-34185329D01*
X135021755Y-34176563D01*
X135036674Y-34157725D01*
X135057848Y-34134364D01*
X135078726Y-34111194D01*
X135085645Y-34100348D01*
X135078214Y-34102451D01*
X135077301Y-34103004D01*
X135052895Y-34117041D01*
X135020840Y-34134309D01*
X135007666Y-34141121D01*
X134981914Y-34154822D01*
X134971914Y-34163224D01*
X134975376Y-34169840D01*
X134985170Y-34175604D01*
X134993384Y-34181007D01*
X134996199Y-34187831D01*
X134992001Y-34198657D01*
X134979177Y-34216065D01*
X134956111Y-34242635D01*
X134921192Y-34280950D01*
X134915271Y-34287391D01*
X134811673Y-34401022D01*
X134721322Y-34502253D01*
X134642970Y-34592579D01*
X134575370Y-34673496D01*
X134517275Y-34746500D01*
X134467437Y-34813087D01*
X134424609Y-34874751D01*
X134421577Y-34879321D01*
X134370970Y-34961052D01*
X134334945Y-35030989D01*
X134313626Y-35088784D01*
X134307137Y-35134090D01*
X134315601Y-35166559D01*
X134318296Y-35170467D01*
X134327683Y-35181184D01*
X134332267Y-35179189D01*
X134333836Y-35161573D01*
X134334057Y-35144824D01*
X134340695Y-35100065D01*
X134361938Y-35055657D01*
X134363182Y-35053679D01*
X134388027Y-35018515D01*
X134423953Y-34972972D01*
X134467724Y-34920749D01*
X134516107Y-34865548D01*
X134565865Y-34811067D01*
X134613764Y-34761009D01*
X134651646Y-34723708D01*
X134684668Y-34692729D01*
X134727004Y-34653486D01*
X134776385Y-34608037D01*
X134830541Y-34558444D01*
X134887203Y-34506765D01*
X134944101Y-34455062D01*
X134998966Y-34405394D01*
X135049528Y-34359821D01*
X135093518Y-34320403D01*
X135128666Y-34289200D01*
X135152702Y-34268272D01*
X135160970Y-34261407D01*
X135189101Y-34239279D01*
X135311403Y-34266433D01*
X135417631Y-34288739D01*
X135514850Y-34306083D01*
X135608735Y-34319121D01*
X135704962Y-34328510D01*
X135809207Y-34334907D01*
X135927146Y-34338967D01*
X135941675Y-34339309D01*
X136104888Y-34340568D01*
X136253876Y-34336193D01*
X136393830Y-34325664D01*
X136529942Y-34308461D01*
X136667404Y-34284064D01*
X136810041Y-34252284D01*
X137054762Y-34182789D01*
X137292227Y-34094933D01*
X137521470Y-33989423D01*
X137741526Y-33866968D01*
X137951433Y-33728273D01*
X138150224Y-33574045D01*
X138336935Y-33404992D01*
X138510601Y-33221821D01*
X138670259Y-33025239D01*
X138814943Y-32815953D01*
X138852801Y-32754905D01*
X138968464Y-32546556D01*
X139069640Y-32328609D01*
X139155073Y-32104404D01*
X139223505Y-31877279D01*
X139273676Y-31650575D01*
X139277905Y-31626514D01*
X139288648Y-31573739D01*
X139299727Y-31539687D01*
X139311210Y-31523262D01*
X139324197Y-31514155D01*
X139351248Y-31495393D01*
X139389878Y-31468693D01*
X139437602Y-31435771D01*
X139491934Y-31398344D01*
X139534850Y-31368813D01*
X139691266Y-31258638D01*
X139830379Y-31154994D01*
X139953447Y-31056751D01*
X140061726Y-30962779D01*
X140156474Y-30871947D01*
X140238947Y-30783125D01*
X140310404Y-30695182D01*
X140357730Y-30628812D01*
X140393445Y-30570318D01*
X140428842Y-30502978D01*
X140460965Y-30433181D01*
X140486856Y-30367315D01*
X140502591Y-30315843D01*
X140517208Y-30233512D01*
X140523709Y-30144421D01*
X140521792Y-30057323D01*
X140513657Y-29993152D01*
X140480910Y-29874179D01*
X140428740Y-29760155D01*
X140357223Y-29651234D01*
X140326949Y-29613530D01*
X140304286Y-29584427D01*
X140292522Y-29560738D01*
X140288231Y-29533805D01*
X140287815Y-29514662D01*
X140279929Y-29380121D01*
X140257158Y-29243604D01*
X140248346Y-29211137D01*
X140248346Y-29953084D01*
X140257064Y-29966983D01*
X140261139Y-29980032D01*
X140263330Y-29999074D01*
X140264403Y-30032010D01*
X140264200Y-30072677D01*
X140263867Y-30085447D01*
X140259639Y-30144011D01*
X140249911Y-30192335D01*
X140235401Y-30233819D01*
X140204416Y-30301682D01*
X140168932Y-30362414D01*
X140125231Y-30421431D01*
X140069593Y-30484146D01*
X140048172Y-30506380D01*
X140015486Y-30539191D01*
X139990051Y-30563578D01*
X139973852Y-30577736D01*
X139968874Y-30579856D01*
X139970173Y-30577384D01*
X140034621Y-30473616D01*
X140086015Y-30383955D01*
X140124793Y-30307637D01*
X140126489Y-30303984D01*
X140149581Y-30250107D01*
X140173180Y-30188402D01*
X140195408Y-30124451D01*
X140214389Y-30063835D01*
X140228245Y-30012136D01*
X140233782Y-29984927D01*
X140240379Y-29959102D01*
X140248346Y-29953084D01*
X140248346Y-29211137D01*
X140220825Y-29109737D01*
X140172258Y-28983144D01*
X140112782Y-28868453D01*
X140094001Y-28838563D01*
X140073886Y-28803991D01*
X140058252Y-28770010D01*
X140051995Y-28750190D01*
X140044229Y-28724049D01*
X140030201Y-28687308D01*
X140012733Y-28647274D01*
X140009989Y-28641435D01*
X139960914Y-28561123D01*
X139960792Y-28560993D01*
X139960792Y-29538669D01*
X139968751Y-29541999D01*
X139979513Y-29551384D01*
X139981871Y-29553598D01*
X139994256Y-29566158D01*
X140001914Y-29578640D01*
X140004960Y-29594927D01*
X140003512Y-29618900D01*
X139997688Y-29654443D01*
X139987604Y-29705438D01*
X139986603Y-29710370D01*
X139977455Y-29751396D01*
X139965687Y-29798398D01*
X139952374Y-29847741D01*
X139938590Y-29895793D01*
X139925410Y-29938919D01*
X139913909Y-29973485D01*
X139905161Y-29995859D01*
X139900241Y-30002406D01*
X139900234Y-30002398D01*
X139900192Y-29991540D01*
X139903240Y-29965731D01*
X139908770Y-29929757D01*
X139911392Y-29914435D01*
X139918056Y-29870636D01*
X139925162Y-29814173D01*
X139931848Y-29752417D01*
X139937133Y-29694253D01*
X139942179Y-29632417D01*
X139946329Y-29588267D01*
X139950320Y-29559477D01*
X139954895Y-29543719D01*
X139960792Y-29538669D01*
X139960792Y-28560993D01*
X139895567Y-28491487D01*
X139815088Y-28433197D01*
X139720614Y-28386928D01*
X139613284Y-28353349D01*
X139494236Y-28333134D01*
X139486307Y-28332317D01*
X139443136Y-28325253D01*
X139391945Y-28312847D01*
X139343170Y-28297660D01*
X139339079Y-28296179D01*
X139218128Y-28256882D01*
X139198526Y-28251826D01*
X139198526Y-28447464D01*
X139270336Y-28451844D01*
X139314065Y-28456281D01*
X139349917Y-28465317D01*
X139387429Y-28481842D01*
X139410889Y-28494426D01*
X139549070Y-28579855D01*
X139669106Y-28672609D01*
X139771786Y-28773325D01*
X139807741Y-28815447D01*
X139856540Y-28875684D01*
X139850318Y-28940941D01*
X139846561Y-28974933D01*
X139842824Y-29000013D01*
X139840065Y-29010381D01*
X139837362Y-29012532D01*
X139833798Y-29010616D01*
X139827137Y-29001476D01*
X139815146Y-28981958D01*
X139795588Y-28948903D01*
X139790897Y-28940941D01*
X139716962Y-28831216D01*
X139630508Y-28732691D01*
X139529746Y-28643763D01*
X139412886Y-28562828D01*
X139296142Y-28497366D01*
X139198526Y-28447464D01*
X139198526Y-28251826D01*
X139079671Y-28221168D01*
X138926038Y-28189519D01*
X138759562Y-28162418D01*
X138591135Y-28141271D01*
X138538569Y-28136658D01*
X138474612Y-28132788D01*
X138402310Y-28129681D01*
X138324708Y-28127360D01*
X138244852Y-28125845D01*
X138165788Y-28125158D01*
X138090562Y-28125320D01*
X138022219Y-28126352D01*
X137963806Y-28128276D01*
X137918367Y-28131113D01*
X137888949Y-28134885D01*
X137883348Y-28136314D01*
X137868161Y-28141848D01*
X137867391Y-28144923D01*
X137883069Y-28146402D01*
X137908447Y-28147013D01*
X137988211Y-28150272D01*
X138082932Y-28157297D01*
X138187968Y-28167494D01*
X138298675Y-28180270D01*
X138410411Y-28195030D01*
X138518534Y-28211181D01*
X138618399Y-28228129D01*
X138705365Y-28245281D01*
X138741886Y-28253585D01*
X138803030Y-28268925D01*
X138863333Y-28285183D01*
X138919813Y-28301431D01*
X138969483Y-28316742D01*
X139009360Y-28330185D01*
X139036459Y-28340833D01*
X139047795Y-28347756D01*
X139047829Y-28348778D01*
X139031577Y-28357999D01*
X138999652Y-28362609D01*
X138955920Y-28362614D01*
X138904250Y-28358021D01*
X138848507Y-28348838D01*
X138846326Y-28348392D01*
X138771500Y-28333849D01*
X138699880Y-28322032D01*
X138628058Y-28312660D01*
X138552627Y-28305455D01*
X138470177Y-28300137D01*
X138377301Y-28296426D01*
X138270588Y-28294042D01*
X138169475Y-28292875D01*
X137973956Y-28291310D01*
X137973956Y-28349100D01*
X138012967Y-28350065D01*
X138061540Y-28352056D01*
X138116191Y-28354900D01*
X138173434Y-28358423D01*
X138229784Y-28362448D01*
X138281755Y-28366802D01*
X138310028Y-28369567D01*
X138357152Y-28375144D01*
X138411187Y-28382554D01*
X138468193Y-28391138D01*
X138524228Y-28400237D01*
X138575349Y-28409191D01*
X138617616Y-28417341D01*
X138647086Y-28424029D01*
X138658820Y-28427894D01*
X138654742Y-28433315D01*
X138634633Y-28443257D01*
X138601660Y-28456364D01*
X138558990Y-28471276D01*
X138553405Y-28473110D01*
X138486050Y-28495697D01*
X138429489Y-28515895D01*
X138385646Y-28532941D01*
X138356443Y-28546070D01*
X138343805Y-28554519D01*
X138343786Y-28556386D01*
X138354656Y-28556048D01*
X138381247Y-28552049D01*
X138419672Y-28545051D01*
X138466042Y-28535717D01*
X138470514Y-28534777D01*
X138533810Y-28521958D01*
X138605433Y-28508305D01*
X138674785Y-28495804D01*
X138712791Y-28489372D01*
X138832591Y-28469827D01*
X138920183Y-28500335D01*
X138987352Y-28525863D01*
X139061006Y-28557430D01*
X139135616Y-28592376D01*
X139205649Y-28628045D01*
X139265572Y-28661777D01*
X139295304Y-28680609D01*
X139358710Y-28728483D01*
X139424028Y-28786581D01*
X139484937Y-28848813D01*
X139535117Y-28909094D01*
X139541224Y-28917446D01*
X139561204Y-28947831D01*
X139583218Y-28985249D01*
X139605237Y-29025690D01*
X139625235Y-29065144D01*
X139641183Y-29099603D01*
X139651054Y-29125055D01*
X139652821Y-29137493D01*
X139652626Y-29137737D01*
X139642188Y-29135889D01*
X139618359Y-29127208D01*
X139585890Y-29113460D01*
X139579103Y-29110405D01*
X139510892Y-29080765D01*
X139429243Y-29047422D01*
X139339917Y-29012559D01*
X139248672Y-28978359D01*
X139161268Y-28947006D01*
X139083465Y-28920680D01*
X139052953Y-28911005D01*
X138997029Y-28894274D01*
X138933822Y-28876222D01*
X138866489Y-28857662D01*
X138798185Y-28839406D01*
X138732066Y-28822266D01*
X138671286Y-28807055D01*
X138619002Y-28794585D01*
X138578370Y-28785669D01*
X138552544Y-28781118D01*
X138546821Y-28780705D01*
X138550668Y-28784366D01*
X138571189Y-28794576D01*
X138606399Y-28810474D01*
X138654311Y-28831196D01*
X138712941Y-28855879D01*
X138780301Y-28883659D01*
X138832083Y-28904688D01*
X138940436Y-28948776D01*
X139033463Y-28987540D01*
X139114671Y-29022616D01*
X139187567Y-29055643D01*
X139255659Y-29088257D01*
X139322454Y-29122096D01*
X139391459Y-29158797D01*
X139466181Y-29199999D01*
X139474140Y-29204450D01*
X139545135Y-29244493D01*
X139600301Y-29276433D01*
X139641534Y-29301597D01*
X139670731Y-29321313D01*
X139689788Y-29336908D01*
X139700604Y-29349710D01*
X139705074Y-29361047D01*
X139705522Y-29366397D01*
X139700174Y-29384593D01*
X139685741Y-29414575D01*
X139664636Y-29451669D01*
X139647063Y-29479551D01*
X139618906Y-29520474D01*
X139582100Y-29571156D01*
X139540858Y-29625935D01*
X139499393Y-29679148D01*
X139487516Y-29693989D01*
X139479633Y-29703612D01*
X139479633Y-30286238D01*
X139484653Y-30291257D01*
X139479633Y-30296277D01*
X139474613Y-30291257D01*
X139479633Y-30286238D01*
X139479633Y-29703612D01*
X139471145Y-29713974D01*
X139471145Y-30306317D01*
X139469243Y-30313991D01*
X139454534Y-30336931D01*
X139427106Y-30375011D01*
X139387046Y-30428107D01*
X139366337Y-30455033D01*
X139339481Y-30488843D01*
X139317167Y-30515148D01*
X139302107Y-30530858D01*
X139297163Y-30533794D01*
X139301416Y-30524951D01*
X139315606Y-30503924D01*
X139337082Y-30474177D01*
X139363196Y-30439171D01*
X139391300Y-30402370D01*
X139418746Y-30367236D01*
X139442885Y-30337232D01*
X139461068Y-30315822D01*
X139470647Y-30306467D01*
X139471145Y-30306317D01*
X139471145Y-29713974D01*
X139452119Y-29737201D01*
X139412302Y-29784645D01*
X139370099Y-29834022D01*
X139327547Y-29883033D01*
X139286681Y-29929379D01*
X139249537Y-29970763D01*
X139218151Y-30004884D01*
X139194558Y-30029444D01*
X139180794Y-30042145D01*
X139178191Y-30043293D01*
X139173791Y-30033251D01*
X139163955Y-30008082D01*
X139150119Y-29971530D01*
X139133716Y-29927337D01*
X139132885Y-29925079D01*
X139036659Y-29691246D01*
X138923228Y-29465522D01*
X138793596Y-29249262D01*
X138648764Y-29043822D01*
X138489735Y-28850558D01*
X138317509Y-28670825D01*
X138133090Y-28505979D01*
X138016372Y-28414310D01*
X137983100Y-28388959D01*
X137956929Y-28368050D01*
X137941361Y-28354436D01*
X137938566Y-28350952D01*
X137947994Y-28349338D01*
X137973956Y-28349100D01*
X137973956Y-28291310D01*
X137843190Y-28290263D01*
X137732755Y-28223137D01*
X137512020Y-28100614D01*
X137282400Y-27996006D01*
X137043785Y-27909274D01*
X136796064Y-27840383D01*
X136539124Y-27789295D01*
X136362360Y-27765074D01*
X136306450Y-27760394D01*
X136235085Y-27756923D01*
X136152853Y-27754662D01*
X136064343Y-27753611D01*
X135974142Y-27753770D01*
X135886838Y-27755139D01*
X135807019Y-27757718D01*
X135739274Y-27761507D01*
X135699751Y-27765074D01*
X135436095Y-27804469D01*
X135181193Y-27861930D01*
X134935003Y-27937476D01*
X134697476Y-28031126D01*
X134468568Y-28142897D01*
X134248234Y-28272810D01*
X134036427Y-28420882D01*
X133962913Y-28478111D01*
X133902023Y-28529221D01*
X133832573Y-28591479D01*
X133758922Y-28660662D01*
X133685432Y-28732548D01*
X133616463Y-28802915D01*
X133556376Y-28867540D01*
X133531556Y-28895763D01*
X133371277Y-29097679D01*
X133228032Y-29309979D01*
X133102151Y-29531903D01*
X132993966Y-29762689D01*
X132903810Y-30001575D01*
X132832014Y-30247800D01*
X132778910Y-30500602D01*
X132752835Y-30682799D01*
X132746075Y-30757512D01*
X132741082Y-30846570D01*
X132737896Y-30944761D01*
X132736557Y-31046874D01*
X132737107Y-31147697D01*
X132739584Y-31242019D01*
X132744030Y-31324628D01*
X132747564Y-31365487D01*
X132783969Y-31625481D01*
X132838731Y-31877394D01*
X132911937Y-32121439D01*
X133003676Y-32357830D01*
X133114037Y-32586782D01*
X133243107Y-32808508D01*
X133390976Y-33023222D01*
X133479589Y-33137463D01*
X133516702Y-33181285D01*
X133563734Y-33233555D01*
X133617680Y-33291226D01*
X133675536Y-33351251D01*
X133734294Y-33410584D01*
X133790951Y-33466179D01*
X133842500Y-33514989D01*
X133885936Y-33553968D01*
X133910431Y-33574182D01*
X133936891Y-33595422D01*
X133955627Y-33611755D01*
X133962399Y-33619360D01*
X133953841Y-33624913D01*
X133929423Y-33638348D01*
X133891244Y-33658570D01*
X133841406Y-33684484D01*
X133782006Y-33714997D01*
X133715147Y-33749011D01*
X133669146Y-33772248D01*
X133527593Y-33844294D01*
X133394358Y-33913583D01*
X133270480Y-33979514D01*
X133156997Y-34041487D01*
X133054948Y-34098901D01*
X132965372Y-34151157D01*
X132889308Y-34197654D01*
X132827795Y-34237791D01*
X132781872Y-34270969D01*
X132752578Y-34296586D01*
X132744296Y-34306668D01*
X132733953Y-34324102D01*
X132734025Y-34330354D01*
X132734025Y-34330354D01*
G37*
X132734025Y-34330354D02*
X132746126Y-34325097D01*
X132771867Y-34308000D01*
X132785756Y-34298190D01*
X132812842Y-34279840D01*
X132842573Y-34261861D01*
X132877325Y-34243125D01*
X132919477Y-34222503D01*
X132971406Y-34198868D01*
X133035489Y-34171091D01*
X133114105Y-34138043D01*
X133185244Y-34108622D01*
X133246670Y-34083600D01*
X133323444Y-34052740D01*
X133412161Y-34017379D01*
X133509415Y-33978855D01*
X133611801Y-33938506D01*
X133715915Y-33897670D01*
X133818352Y-33857686D01*
X133915706Y-33819891D01*
X134004572Y-33785623D01*
X134081545Y-33756220D01*
X134096988Y-33750369D01*
X134125648Y-33739532D01*
X134048539Y-33683220D01*
X134016301Y-33658322D01*
X133992500Y-33637298D01*
X133980255Y-33623057D01*
X133979721Y-33619006D01*
X133989970Y-33613388D01*
X134016788Y-33599808D01*
X134058649Y-33579013D01*
X134114028Y-33551749D01*
X134181401Y-33518761D01*
X134259243Y-33480796D01*
X134346029Y-33438599D01*
X134440233Y-33392917D01*
X134540332Y-33344495D01*
X134580344Y-33325172D01*
X134810675Y-33213921D01*
X135024119Y-33110687D01*
X135221925Y-33014860D01*
X135405337Y-32925831D01*
X135575603Y-32842990D01*
X135733968Y-32765727D01*
X135881678Y-32693434D01*
X136019980Y-32625500D01*
X136150120Y-32561316D01*
X136273344Y-32500273D01*
X136390899Y-32441761D01*
X136504030Y-32385170D01*
X136568170Y-32352958D01*
X136655492Y-32309299D01*
X136730559Y-32272018D01*
X136795093Y-32239790D01*
X136850820Y-32211287D01*
X136899462Y-32185185D01*
X136942744Y-32160158D01*
X136982388Y-32134879D01*
X137020118Y-32108022D01*
X137057659Y-32078263D01*
X137096733Y-32044274D01*
X137139065Y-32004730D01*
X137186378Y-31958305D01*
X137240396Y-31903674D01*
X137302842Y-31839510D01*
X137375440Y-31764487D01*
X137459913Y-31677280D01*
X137499491Y-31636554D01*
X137571369Y-31563095D01*
X137642443Y-31491228D01*
X137710806Y-31422826D01*
X137774553Y-31359766D01*
X137831777Y-31303923D01*
X137880572Y-31257171D01*
X137919031Y-31221386D01*
X137942693Y-31200557D01*
X138009302Y-31143906D01*
X138088063Y-31075212D01*
X138176789Y-30996482D01*
X138273292Y-30909725D01*
X138375383Y-30816952D01*
X138480873Y-30720170D01*
X138587576Y-30621390D01*
X138693303Y-30522620D01*
X138795865Y-30425869D01*
X138893074Y-30333146D01*
X138982743Y-30246461D01*
X138997276Y-30232277D01*
X139046495Y-30184303D01*
X139090708Y-30141468D01*
X139127984Y-30105624D01*
X139156390Y-30078621D01*
X139173992Y-30062311D01*
X139179010Y-30058216D01*
X139183406Y-30070556D01*
X139191450Y-30098514D01*
X139202143Y-30138177D01*
X139214487Y-30185627D01*
X139227484Y-30236951D01*
X139240137Y-30288232D01*
X139251446Y-30335556D01*
X139260415Y-30375007D01*
X139263646Y-30390248D01*
X139275804Y-30454725D01*
X139282207Y-30501584D01*
X139282973Y-30532406D01*
X139278219Y-30548773D01*
X139275583Y-30551197D01*
X139266119Y-30560789D01*
X139247312Y-30582492D01*
X139222264Y-30612665D01*
X139204490Y-30634616D01*
X139141677Y-30712917D01*
X139291133Y-30554457D01*
X139297227Y-30588509D01*
X139305957Y-30648866D01*
X139313029Y-30721208D01*
X139318462Y-30802794D01*
X139322277Y-30890882D01*
X139324494Y-30982733D01*
X139325133Y-31075604D01*
X139324214Y-31166756D01*
X139321757Y-31253446D01*
X139317782Y-31332934D01*
X139312310Y-31402479D01*
X139305359Y-31459339D01*
X139296951Y-31500774D01*
X139290418Y-31518727D01*
X139278573Y-31530207D01*
X139251044Y-31550525D01*
X139209607Y-31578600D01*
X139156034Y-31613347D01*
X139092098Y-31653685D01*
X139019575Y-31698531D01*
X138940236Y-31746802D01*
X138855857Y-31797416D01*
X138768210Y-31849290D01*
X138679069Y-31901340D01*
X138590208Y-31952486D01*
X138503401Y-32001643D01*
X138455601Y-32028313D01*
X138380587Y-32070634D01*
X138302270Y-32116086D01*
X138225062Y-32162021D01*
X138153374Y-32205788D01*
X138091618Y-32244738D01*
X138054020Y-32269502D01*
X137997446Y-32306553D01*
X137928712Y-32349582D01*
X137853417Y-32395202D01*
X137777161Y-32440025D01*
X137705546Y-32480663D01*
X137698199Y-32484729D01*
X137610052Y-32534622D01*
X137528585Y-32583686D01*
X137448318Y-32635448D01*
X137363778Y-32693438D01*
X137271519Y-32759701D01*
X137073263Y-32901597D01*
X136877387Y-33035685D01*
X136679061Y-33165082D01*
X136473452Y-33292904D01*
X136255732Y-33422269D01*
X136151530Y-33482383D01*
X136089546Y-33518454D01*
X136036042Y-33551279D01*
X135986826Y-33583815D01*
X135937706Y-33619021D01*
X135884488Y-33659857D01*
X135822981Y-33709280D01*
X135780068Y-33744523D01*
X135721066Y-33793164D01*
X135662214Y-33841546D01*
X135606860Y-33886927D01*
X135558355Y-33926562D01*
X135520046Y-33957709D01*
X135503981Y-33970674D01*
X135465543Y-34001876D01*
X135417481Y-34041381D01*
X135365473Y-34084496D01*
X135315201Y-34126528D01*
X135306940Y-34133477D01*
X135265501Y-34167700D01*
X135228815Y-34196739D01*
X135199870Y-34218326D01*
X135181651Y-34230192D01*
X135177508Y-34231771D01*
X135162432Y-34229093D01*
X135135033Y-34222201D01*
X135101213Y-34212810D01*
X135066871Y-34202635D01*
X135037911Y-34193392D01*
X135020231Y-34186794D01*
X135017690Y-34185329D01*
X135021755Y-34176563D01*
X135036674Y-34157725D01*
X135057848Y-34134364D01*
X135078726Y-34111194D01*
X135085645Y-34100348D01*
X135078214Y-34102451D01*
X135077301Y-34103004D01*
X135052895Y-34117041D01*
X135020840Y-34134309D01*
X135007666Y-34141121D01*
X134981914Y-34154822D01*
X134971914Y-34163224D01*
X134975376Y-34169840D01*
X134985170Y-34175604D01*
X134993384Y-34181007D01*
X134996199Y-34187831D01*
X134992001Y-34198657D01*
X134979177Y-34216065D01*
X134956111Y-34242635D01*
X134921192Y-34280950D01*
X134915271Y-34287391D01*
X134811673Y-34401022D01*
X134721322Y-34502253D01*
X134642970Y-34592579D01*
X134575370Y-34673496D01*
X134517275Y-34746500D01*
X134467437Y-34813087D01*
X134424609Y-34874751D01*
X134421577Y-34879321D01*
X134370970Y-34961052D01*
X134334945Y-35030989D01*
X134313626Y-35088784D01*
X134307137Y-35134090D01*
X134315601Y-35166559D01*
X134318296Y-35170467D01*
X134327683Y-35181184D01*
X134332267Y-35179189D01*
X134333836Y-35161573D01*
X134334057Y-35144824D01*
X134340695Y-35100065D01*
X134361938Y-35055657D01*
X134363182Y-35053679D01*
X134388027Y-35018515D01*
X134423953Y-34972972D01*
X134467724Y-34920749D01*
X134516107Y-34865548D01*
X134565865Y-34811067D01*
X134613764Y-34761009D01*
X134651646Y-34723708D01*
X134684668Y-34692729D01*
X134727004Y-34653486D01*
X134776385Y-34608037D01*
X134830541Y-34558444D01*
X134887203Y-34506765D01*
X134944101Y-34455062D01*
X134998966Y-34405394D01*
X135049528Y-34359821D01*
X135093518Y-34320403D01*
X135128666Y-34289200D01*
X135152702Y-34268272D01*
X135160970Y-34261407D01*
X135189101Y-34239279D01*
X135311403Y-34266433D01*
X135417631Y-34288739D01*
X135514850Y-34306083D01*
X135608735Y-34319121D01*
X135704962Y-34328510D01*
X135809207Y-34334907D01*
X135927146Y-34338967D01*
X135941675Y-34339309D01*
X136104888Y-34340568D01*
X136253876Y-34336193D01*
X136393830Y-34325664D01*
X136529942Y-34308461D01*
X136667404Y-34284064D01*
X136810041Y-34252284D01*
X137054762Y-34182789D01*
X137292227Y-34094933D01*
X137521470Y-33989423D01*
X137741526Y-33866968D01*
X137951433Y-33728273D01*
X138150224Y-33574045D01*
X138336935Y-33404992D01*
X138510601Y-33221821D01*
X138670259Y-33025239D01*
X138814943Y-32815953D01*
X138852801Y-32754905D01*
X138968464Y-32546556D01*
X139069640Y-32328609D01*
X139155073Y-32104404D01*
X139223505Y-31877279D01*
X139273676Y-31650575D01*
X139277905Y-31626514D01*
X139288648Y-31573739D01*
X139299727Y-31539687D01*
X139311210Y-31523262D01*
X139324197Y-31514155D01*
X139351248Y-31495393D01*
X139389878Y-31468693D01*
X139437602Y-31435771D01*
X139491934Y-31398344D01*
X139534850Y-31368813D01*
X139691266Y-31258638D01*
X139830379Y-31154994D01*
X139953447Y-31056751D01*
X140061726Y-30962779D01*
X140156474Y-30871947D01*
X140238947Y-30783125D01*
X140310404Y-30695182D01*
X140357730Y-30628812D01*
X140393445Y-30570318D01*
X140428842Y-30502978D01*
X140460965Y-30433181D01*
X140486856Y-30367315D01*
X140502591Y-30315843D01*
X140517208Y-30233512D01*
X140523709Y-30144421D01*
X140521792Y-30057323D01*
X140513657Y-29993152D01*
X140480910Y-29874179D01*
X140428740Y-29760155D01*
X140357223Y-29651234D01*
X140326949Y-29613530D01*
X140304286Y-29584427D01*
X140292522Y-29560738D01*
X140288231Y-29533805D01*
X140287815Y-29514662D01*
X140279929Y-29380121D01*
X140257158Y-29243604D01*
X140248346Y-29211137D01*
X140248346Y-29953084D01*
X140257064Y-29966983D01*
X140261139Y-29980032D01*
X140263330Y-29999074D01*
X140264403Y-30032010D01*
X140264200Y-30072677D01*
X140263867Y-30085447D01*
X140259639Y-30144011D01*
X140249911Y-30192335D01*
X140235401Y-30233819D01*
X140204416Y-30301682D01*
X140168932Y-30362414D01*
X140125231Y-30421431D01*
X140069593Y-30484146D01*
X140048172Y-30506380D01*
X140015486Y-30539191D01*
X139990051Y-30563578D01*
X139973852Y-30577736D01*
X139968874Y-30579856D01*
X139970173Y-30577384D01*
X140034621Y-30473616D01*
X140086015Y-30383955D01*
X140124793Y-30307637D01*
X140126489Y-30303984D01*
X140149581Y-30250107D01*
X140173180Y-30188402D01*
X140195408Y-30124451D01*
X140214389Y-30063835D01*
X140228245Y-30012136D01*
X140233782Y-29984927D01*
X140240379Y-29959102D01*
X140248346Y-29953084D01*
X140248346Y-29211137D01*
X140220825Y-29109737D01*
X140172258Y-28983144D01*
X140112782Y-28868453D01*
X140094001Y-28838563D01*
X140073886Y-28803991D01*
X140058252Y-28770010D01*
X140051995Y-28750190D01*
X140044229Y-28724049D01*
X140030201Y-28687308D01*
X140012733Y-28647274D01*
X140009989Y-28641435D01*
X139960914Y-28561123D01*
X139960792Y-28560993D01*
X139960792Y-29538669D01*
X139968751Y-29541999D01*
X139979513Y-29551384D01*
X139981871Y-29553598D01*
X139994256Y-29566158D01*
X140001914Y-29578640D01*
X140004960Y-29594927D01*
X140003512Y-29618900D01*
X139997688Y-29654443D01*
X139987604Y-29705438D01*
X139986603Y-29710370D01*
X139977455Y-29751396D01*
X139965687Y-29798398D01*
X139952374Y-29847741D01*
X139938590Y-29895793D01*
X139925410Y-29938919D01*
X139913909Y-29973485D01*
X139905161Y-29995859D01*
X139900241Y-30002406D01*
X139900234Y-30002398D01*
X139900192Y-29991540D01*
X139903240Y-29965731D01*
X139908770Y-29929757D01*
X139911392Y-29914435D01*
X139918056Y-29870636D01*
X139925162Y-29814173D01*
X139931848Y-29752417D01*
X139937133Y-29694253D01*
X139942179Y-29632417D01*
X139946329Y-29588267D01*
X139950320Y-29559477D01*
X139954895Y-29543719D01*
X139960792Y-29538669D01*
X139960792Y-28560993D01*
X139895567Y-28491487D01*
X139815088Y-28433197D01*
X139720614Y-28386928D01*
X139613284Y-28353349D01*
X139494236Y-28333134D01*
X139486307Y-28332317D01*
X139443136Y-28325253D01*
X139391945Y-28312847D01*
X139343170Y-28297660D01*
X139339079Y-28296179D01*
X139218128Y-28256882D01*
X139198526Y-28251826D01*
X139198526Y-28447464D01*
X139270336Y-28451844D01*
X139314065Y-28456281D01*
X139349917Y-28465317D01*
X139387429Y-28481842D01*
X139410889Y-28494426D01*
X139549070Y-28579855D01*
X139669106Y-28672609D01*
X139771786Y-28773325D01*
X139807741Y-28815447D01*
X139856540Y-28875684D01*
X139850318Y-28940941D01*
X139846561Y-28974933D01*
X139842824Y-29000013D01*
X139840065Y-29010381D01*
X139837362Y-29012532D01*
X139833798Y-29010616D01*
X139827137Y-29001476D01*
X139815146Y-28981958D01*
X139795588Y-28948903D01*
X139790897Y-28940941D01*
X139716962Y-28831216D01*
X139630508Y-28732691D01*
X139529746Y-28643763D01*
X139412886Y-28562828D01*
X139296142Y-28497366D01*
X139198526Y-28447464D01*
X139198526Y-28251826D01*
X139079671Y-28221168D01*
X138926038Y-28189519D01*
X138759562Y-28162418D01*
X138591135Y-28141271D01*
X138538569Y-28136658D01*
X138474612Y-28132788D01*
X138402310Y-28129681D01*
X138324708Y-28127360D01*
X138244852Y-28125845D01*
X138165788Y-28125158D01*
X138090562Y-28125320D01*
X138022219Y-28126352D01*
X137963806Y-28128276D01*
X137918367Y-28131113D01*
X137888949Y-28134885D01*
X137883348Y-28136314D01*
X137868161Y-28141848D01*
X137867391Y-28144923D01*
X137883069Y-28146402D01*
X137908447Y-28147013D01*
X137988211Y-28150272D01*
X138082932Y-28157297D01*
X138187968Y-28167494D01*
X138298675Y-28180270D01*
X138410411Y-28195030D01*
X138518534Y-28211181D01*
X138618399Y-28228129D01*
X138705365Y-28245281D01*
X138741886Y-28253585D01*
X138803030Y-28268925D01*
X138863333Y-28285183D01*
X138919813Y-28301431D01*
X138969483Y-28316742D01*
X139009360Y-28330185D01*
X139036459Y-28340833D01*
X139047795Y-28347756D01*
X139047829Y-28348778D01*
X139031577Y-28357999D01*
X138999652Y-28362609D01*
X138955920Y-28362614D01*
X138904250Y-28358021D01*
X138848507Y-28348838D01*
X138846326Y-28348392D01*
X138771500Y-28333849D01*
X138699880Y-28322032D01*
X138628058Y-28312660D01*
X138552627Y-28305455D01*
X138470177Y-28300137D01*
X138377301Y-28296426D01*
X138270588Y-28294042D01*
X138169475Y-28292875D01*
X137973956Y-28291310D01*
X137973956Y-28349100D01*
X138012967Y-28350065D01*
X138061540Y-28352056D01*
X138116191Y-28354900D01*
X138173434Y-28358423D01*
X138229784Y-28362448D01*
X138281755Y-28366802D01*
X138310028Y-28369567D01*
X138357152Y-28375144D01*
X138411187Y-28382554D01*
X138468193Y-28391138D01*
X138524228Y-28400237D01*
X138575349Y-28409191D01*
X138617616Y-28417341D01*
X138647086Y-28424029D01*
X138658820Y-28427894D01*
X138654742Y-28433315D01*
X138634633Y-28443257D01*
X138601660Y-28456364D01*
X138558990Y-28471276D01*
X138553405Y-28473110D01*
X138486050Y-28495697D01*
X138429489Y-28515895D01*
X138385646Y-28532941D01*
X138356443Y-28546070D01*
X138343805Y-28554519D01*
X138343786Y-28556386D01*
X138354656Y-28556048D01*
X138381247Y-28552049D01*
X138419672Y-28545051D01*
X138466042Y-28535717D01*
X138470514Y-28534777D01*
X138533810Y-28521958D01*
X138605433Y-28508305D01*
X138674785Y-28495804D01*
X138712791Y-28489372D01*
X138832591Y-28469827D01*
X138920183Y-28500335D01*
X138987352Y-28525863D01*
X139061006Y-28557430D01*
X139135616Y-28592376D01*
X139205649Y-28628045D01*
X139265572Y-28661777D01*
X139295304Y-28680609D01*
X139358710Y-28728483D01*
X139424028Y-28786581D01*
X139484937Y-28848813D01*
X139535117Y-28909094D01*
X139541224Y-28917446D01*
X139561204Y-28947831D01*
X139583218Y-28985249D01*
X139605237Y-29025690D01*
X139625235Y-29065144D01*
X139641183Y-29099603D01*
X139651054Y-29125055D01*
X139652821Y-29137493D01*
X139652626Y-29137737D01*
X139642188Y-29135889D01*
X139618359Y-29127208D01*
X139585890Y-29113460D01*
X139579103Y-29110405D01*
X139510892Y-29080765D01*
X139429243Y-29047422D01*
X139339917Y-29012559D01*
X139248672Y-28978359D01*
X139161268Y-28947006D01*
X139083465Y-28920680D01*
X139052953Y-28911005D01*
X138997029Y-28894274D01*
X138933822Y-28876222D01*
X138866489Y-28857662D01*
X138798185Y-28839406D01*
X138732066Y-28822266D01*
X138671286Y-28807055D01*
X138619002Y-28794585D01*
X138578370Y-28785669D01*
X138552544Y-28781118D01*
X138546821Y-28780705D01*
X138550668Y-28784366D01*
X138571189Y-28794576D01*
X138606399Y-28810474D01*
X138654311Y-28831196D01*
X138712941Y-28855879D01*
X138780301Y-28883659D01*
X138832083Y-28904688D01*
X138940436Y-28948776D01*
X139033463Y-28987540D01*
X139114671Y-29022616D01*
X139187567Y-29055643D01*
X139255659Y-29088257D01*
X139322454Y-29122096D01*
X139391459Y-29158797D01*
X139466181Y-29199999D01*
X139474140Y-29204450D01*
X139545135Y-29244493D01*
X139600301Y-29276433D01*
X139641534Y-29301597D01*
X139670731Y-29321313D01*
X139689788Y-29336908D01*
X139700604Y-29349710D01*
X139705074Y-29361047D01*
X139705522Y-29366397D01*
X139700174Y-29384593D01*
X139685741Y-29414575D01*
X139664636Y-29451669D01*
X139647063Y-29479551D01*
X139618906Y-29520474D01*
X139582100Y-29571156D01*
X139540858Y-29625935D01*
X139499393Y-29679148D01*
X139487516Y-29693989D01*
X139479633Y-29703612D01*
X139479633Y-30286238D01*
X139484653Y-30291257D01*
X139479633Y-30296277D01*
X139474613Y-30291257D01*
X139479633Y-30286238D01*
X139479633Y-29703612D01*
X139471145Y-29713974D01*
X139471145Y-30306317D01*
X139469243Y-30313991D01*
X139454534Y-30336931D01*
X139427106Y-30375011D01*
X139387046Y-30428107D01*
X139366337Y-30455033D01*
X139339481Y-30488843D01*
X139317167Y-30515148D01*
X139302107Y-30530858D01*
X139297163Y-30533794D01*
X139301416Y-30524951D01*
X139315606Y-30503924D01*
X139337082Y-30474177D01*
X139363196Y-30439171D01*
X139391300Y-30402370D01*
X139418746Y-30367236D01*
X139442885Y-30337232D01*
X139461068Y-30315822D01*
X139470647Y-30306467D01*
X139471145Y-30306317D01*
X139471145Y-29713974D01*
X139452119Y-29737201D01*
X139412302Y-29784645D01*
X139370099Y-29834022D01*
X139327547Y-29883033D01*
X139286681Y-29929379D01*
X139249537Y-29970763D01*
X139218151Y-30004884D01*
X139194558Y-30029444D01*
X139180794Y-30042145D01*
X139178191Y-30043293D01*
X139173791Y-30033251D01*
X139163955Y-30008082D01*
X139150119Y-29971530D01*
X139133716Y-29927337D01*
X139132885Y-29925079D01*
X139036659Y-29691246D01*
X138923228Y-29465522D01*
X138793596Y-29249262D01*
X138648764Y-29043822D01*
X138489735Y-28850558D01*
X138317509Y-28670825D01*
X138133090Y-28505979D01*
X138016372Y-28414310D01*
X137983100Y-28388959D01*
X137956929Y-28368050D01*
X137941361Y-28354436D01*
X137938566Y-28350952D01*
X137947994Y-28349338D01*
X137973956Y-28349100D01*
X137973956Y-28291310D01*
X137843190Y-28290263D01*
X137732755Y-28223137D01*
X137512020Y-28100614D01*
X137282400Y-27996006D01*
X137043785Y-27909274D01*
X136796064Y-27840383D01*
X136539124Y-27789295D01*
X136362360Y-27765074D01*
X136306450Y-27760394D01*
X136235085Y-27756923D01*
X136152853Y-27754662D01*
X136064343Y-27753611D01*
X135974142Y-27753770D01*
X135886838Y-27755139D01*
X135807019Y-27757718D01*
X135739274Y-27761507D01*
X135699751Y-27765074D01*
X135436095Y-27804469D01*
X135181193Y-27861930D01*
X134935003Y-27937476D01*
X134697476Y-28031126D01*
X134468568Y-28142897D01*
X134248234Y-28272810D01*
X134036427Y-28420882D01*
X133962913Y-28478111D01*
X133902023Y-28529221D01*
X133832573Y-28591479D01*
X133758922Y-28660662D01*
X133685432Y-28732548D01*
X133616463Y-28802915D01*
X133556376Y-28867540D01*
X133531556Y-28895763D01*
X133371277Y-29097679D01*
X133228032Y-29309979D01*
X133102151Y-29531903D01*
X132993966Y-29762689D01*
X132903810Y-30001575D01*
X132832014Y-30247800D01*
X132778910Y-30500602D01*
X132752835Y-30682799D01*
X132746075Y-30757512D01*
X132741082Y-30846570D01*
X132737896Y-30944761D01*
X132736557Y-31046874D01*
X132737107Y-31147697D01*
X132739584Y-31242019D01*
X132744030Y-31324628D01*
X132747564Y-31365487D01*
X132783969Y-31625481D01*
X132838731Y-31877394D01*
X132911937Y-32121439D01*
X133003676Y-32357830D01*
X133114037Y-32586782D01*
X133243107Y-32808508D01*
X133390976Y-33023222D01*
X133479589Y-33137463D01*
X133516702Y-33181285D01*
X133563734Y-33233555D01*
X133617680Y-33291226D01*
X133675536Y-33351251D01*
X133734294Y-33410584D01*
X133790951Y-33466179D01*
X133842500Y-33514989D01*
X133885936Y-33553968D01*
X133910431Y-33574182D01*
X133936891Y-33595422D01*
X133955627Y-33611755D01*
X133962399Y-33619360D01*
X133953841Y-33624913D01*
X133929423Y-33638348D01*
X133891244Y-33658570D01*
X133841406Y-33684484D01*
X133782006Y-33714997D01*
X133715147Y-33749011D01*
X133669146Y-33772248D01*
X133527593Y-33844294D01*
X133394358Y-33913583D01*
X133270480Y-33979514D01*
X133156997Y-34041487D01*
X133054948Y-34098901D01*
X132965372Y-34151157D01*
X132889308Y-34197654D01*
X132827795Y-34237791D01*
X132781872Y-34270969D01*
X132752578Y-34296586D01*
X132744296Y-34306668D01*
X132733953Y-34324102D01*
X132734025Y-34330354D01*
G36*
X135092360Y-33388451D02*
X135097380Y-33383431D01*
X135092360Y-33378411D01*
X135087340Y-33383431D01*
X135092360Y-33388451D01*
X135092360Y-33388451D01*
G37*
X135092360Y-33388451D02*
X135097380Y-33383431D01*
X135092360Y-33378411D01*
X135087340Y-33383431D01*
X135092360Y-33388451D01*
G36*
X130495769Y-37620611D02*
X130505247Y-37686325D01*
X130520802Y-37739830D01*
X130524335Y-37747991D01*
X130539513Y-37780743D01*
X130534418Y-37750625D01*
X130522662Y-37645801D01*
X130523445Y-37547617D01*
X130536718Y-37460532D01*
X130537611Y-37456937D01*
X130570983Y-37355457D01*
X130620990Y-37249707D01*
X130687926Y-37139329D01*
X130772084Y-37023959D01*
X130873758Y-36903239D01*
X130993241Y-36776807D01*
X131130827Y-36644302D01*
X131286810Y-36505364D01*
X131368484Y-36436131D01*
X131445949Y-36371990D01*
X131521490Y-36310712D01*
X131596494Y-36251339D01*
X131672349Y-36192908D01*
X131750443Y-36134460D01*
X131832164Y-36075035D01*
X131918901Y-36013672D01*
X132012042Y-35949412D01*
X132112974Y-35881293D01*
X132223086Y-35808356D01*
X132343766Y-35729640D01*
X132476402Y-35644185D01*
X132622382Y-35551032D01*
X132783094Y-35449218D01*
X132918803Y-35363657D01*
X133233436Y-35168545D01*
X133545350Y-34980882D01*
X133849508Y-34803685D01*
X133927775Y-34759089D01*
X133998489Y-34718787D01*
X134079819Y-34672095D01*
X134165107Y-34622858D01*
X134247695Y-34574919D01*
X134319674Y-34532857D01*
X134391491Y-34490962D01*
X134471024Y-34445005D01*
X134552086Y-34398534D01*
X134628487Y-34355095D01*
X134694041Y-34318235D01*
X134696156Y-34317056D01*
X134753093Y-34285267D01*
X134806926Y-34255110D01*
X134854088Y-34228591D01*
X134891012Y-34207717D01*
X134914129Y-34194493D01*
X134914844Y-34194077D01*
X134958198Y-34168822D01*
X134854607Y-34129847D01*
X134803375Y-34109404D01*
X134744534Y-34083989D01*
X134680588Y-34054877D01*
X134614037Y-34023341D01*
X134547382Y-33990658D01*
X134483126Y-33958103D01*
X134423768Y-33926949D01*
X134371811Y-33898473D01*
X134329756Y-33873950D01*
X134300104Y-33854654D01*
X134285357Y-33841860D01*
X134284178Y-33839081D01*
X134292572Y-33832335D01*
X134315847Y-33817854D01*
X134351146Y-33797309D01*
X134395609Y-33772370D01*
X134437281Y-33749609D01*
X134505074Y-33712856D01*
X134577307Y-33673446D01*
X134651820Y-33632579D01*
X134726458Y-33591455D01*
X134799062Y-33551274D01*
X134867475Y-33513236D01*
X134929539Y-33478542D01*
X134983098Y-33448392D01*
X135025993Y-33423986D01*
X135056067Y-33406524D01*
X135071163Y-33397207D01*
X135072281Y-33396350D01*
X135067874Y-33395653D01*
X135048080Y-33400990D01*
X135016314Y-33411345D01*
X134986945Y-33421701D01*
X134917839Y-33446852D01*
X134841605Y-33474809D01*
X134760372Y-33504773D01*
X134676267Y-33535946D01*
X134591420Y-33567528D01*
X134507958Y-33598720D01*
X134428010Y-33628723D01*
X134353705Y-33656739D01*
X134287170Y-33681966D01*
X134230535Y-33703608D01*
X134185927Y-33720864D01*
X134155475Y-33732936D01*
X134141307Y-33739024D01*
X134140613Y-33739455D01*
X134144539Y-33747923D01*
X134162113Y-33763805D01*
X134189842Y-33784061D01*
X134198340Y-33789705D01*
X134229290Y-33810646D01*
X134252329Y-33827714D01*
X134263390Y-33837855D01*
X134263812Y-33838899D01*
X134255266Y-33845255D01*
X134231483Y-33859546D01*
X134194993Y-33880341D01*
X134148322Y-33906212D01*
X134093996Y-33935730D01*
X134066148Y-33950664D01*
X134000663Y-33985835D01*
X133922853Y-34027945D01*
X133837931Y-34074151D01*
X133751110Y-34121615D01*
X133667602Y-34167494D01*
X133617166Y-34195343D01*
X133544007Y-34235768D01*
X133457862Y-34283255D01*
X133363376Y-34335250D01*
X133265191Y-34389202D01*
X133167949Y-34442558D01*
X133076295Y-34492766D01*
X133044297Y-34510269D01*
X132896700Y-34591620D01*
X132754022Y-34671524D01*
X132617716Y-34749118D01*
X132489233Y-34823536D01*
X132370026Y-34893911D01*
X132261547Y-34959379D01*
X132165248Y-35019074D01*
X132082581Y-35072131D01*
X132014998Y-35117683D01*
X131967561Y-35152089D01*
X131909448Y-35200284D01*
X131867666Y-35243268D01*
X131842611Y-35280327D01*
X131834683Y-35310750D01*
X131844278Y-35333825D01*
X131860105Y-35344547D01*
X131886923Y-35354486D01*
X131902690Y-35356196D01*
X131904795Y-35350540D01*
X131890630Y-35338379D01*
X131886557Y-35335813D01*
X131863026Y-35316440D01*
X131856450Y-35298440D01*
X131856492Y-35298202D01*
X131868535Y-35279334D01*
X131898608Y-35253203D01*
X131946147Y-35220126D01*
X132010588Y-35180420D01*
X132091369Y-35134404D01*
X132187925Y-35082393D01*
X132299694Y-35024707D01*
X132426113Y-34961662D01*
X132566616Y-34893576D01*
X132617617Y-34869278D01*
X132668608Y-34845348D01*
X132731769Y-34816141D01*
X132805448Y-34782391D01*
X132887993Y-34744833D01*
X132977752Y-34704202D01*
X133073073Y-34661233D01*
X133172302Y-34616660D01*
X133273789Y-34571220D01*
X133375880Y-34525646D01*
X133476923Y-34480674D01*
X133575266Y-34437038D01*
X133669257Y-34395474D01*
X133757244Y-34356715D01*
X133837573Y-34321499D01*
X133908594Y-34290558D01*
X133968653Y-34264628D01*
X134016099Y-34244444D01*
X134049279Y-34230741D01*
X134066541Y-34224254D01*
X134068666Y-34223874D01*
X134061482Y-34230020D01*
X134039835Y-34245760D01*
X134005958Y-34269536D01*
X133962087Y-34299791D01*
X133910456Y-34334968D01*
X133870006Y-34362285D01*
X133802757Y-34407822D01*
X133723848Y-34461733D01*
X133635245Y-34522643D01*
X133538915Y-34589175D01*
X133436824Y-34659953D01*
X133330937Y-34733602D01*
X133223222Y-34808745D01*
X133115642Y-34884006D01*
X133010166Y-34958009D01*
X132908758Y-35029378D01*
X132813385Y-35096736D01*
X132726013Y-35158709D01*
X132648608Y-35213919D01*
X132583135Y-35260991D01*
X132531562Y-35298548D01*
X132517222Y-35309143D01*
X132273530Y-35492410D01*
X132047455Y-35667183D01*
X131838603Y-35833843D01*
X131646578Y-35992766D01*
X131470985Y-36144334D01*
X131311429Y-36288924D01*
X131167515Y-36426915D01*
X131038847Y-36558686D01*
X130925031Y-36684617D01*
X130825671Y-36805087D01*
X130740373Y-36920473D01*
X130668741Y-37031156D01*
X130610379Y-37137514D01*
X130610032Y-37138214D01*
X130572195Y-37217495D01*
X130543791Y-37284971D01*
X130523175Y-37345587D01*
X130508703Y-37404283D01*
X130498731Y-37466003D01*
X130497429Y-37476606D01*
X130492964Y-37548700D01*
X130495769Y-37620611D01*
X130495769Y-37620611D01*
G37*
X130495769Y-37620611D02*
X130505247Y-37686325D01*
X130520802Y-37739830D01*
X130524335Y-37747991D01*
X130539513Y-37780743D01*
X130534418Y-37750625D01*
X130522662Y-37645801D01*
X130523445Y-37547617D01*
X130536718Y-37460532D01*
X130537611Y-37456937D01*
X130570983Y-37355457D01*
X130620990Y-37249707D01*
X130687926Y-37139329D01*
X130772084Y-37023959D01*
X130873758Y-36903239D01*
X130993241Y-36776807D01*
X131130827Y-36644302D01*
X131286810Y-36505364D01*
X131368484Y-36436131D01*
X131445949Y-36371990D01*
X131521490Y-36310712D01*
X131596494Y-36251339D01*
X131672349Y-36192908D01*
X131750443Y-36134460D01*
X131832164Y-36075035D01*
X131918901Y-36013672D01*
X132012042Y-35949412D01*
X132112974Y-35881293D01*
X132223086Y-35808356D01*
X132343766Y-35729640D01*
X132476402Y-35644185D01*
X132622382Y-35551032D01*
X132783094Y-35449218D01*
X132918803Y-35363657D01*
X133233436Y-35168545D01*
X133545350Y-34980882D01*
X133849508Y-34803685D01*
X133927775Y-34759089D01*
X133998489Y-34718787D01*
X134079819Y-34672095D01*
X134165107Y-34622858D01*
X134247695Y-34574919D01*
X134319674Y-34532857D01*
X134391491Y-34490962D01*
X134471024Y-34445005D01*
X134552086Y-34398534D01*
X134628487Y-34355095D01*
X134694041Y-34318235D01*
X134696156Y-34317056D01*
X134753093Y-34285267D01*
X134806926Y-34255110D01*
X134854088Y-34228591D01*
X134891012Y-34207717D01*
X134914129Y-34194493D01*
X134914844Y-34194077D01*
X134958198Y-34168822D01*
X134854607Y-34129847D01*
X134803375Y-34109404D01*
X134744534Y-34083989D01*
X134680588Y-34054877D01*
X134614037Y-34023341D01*
X134547382Y-33990658D01*
X134483126Y-33958103D01*
X134423768Y-33926949D01*
X134371811Y-33898473D01*
X134329756Y-33873950D01*
X134300104Y-33854654D01*
X134285357Y-33841860D01*
X134284178Y-33839081D01*
X134292572Y-33832335D01*
X134315847Y-33817854D01*
X134351146Y-33797309D01*
X134395609Y-33772370D01*
X134437281Y-33749609D01*
X134505074Y-33712856D01*
X134577307Y-33673446D01*
X134651820Y-33632579D01*
X134726458Y-33591455D01*
X134799062Y-33551274D01*
X134867475Y-33513236D01*
X134929539Y-33478542D01*
X134983098Y-33448392D01*
X135025993Y-33423986D01*
X135056067Y-33406524D01*
X135071163Y-33397207D01*
X135072281Y-33396350D01*
X135067874Y-33395653D01*
X135048080Y-33400990D01*
X135016314Y-33411345D01*
X134986945Y-33421701D01*
X134917839Y-33446852D01*
X134841605Y-33474809D01*
X134760372Y-33504773D01*
X134676267Y-33535946D01*
X134591420Y-33567528D01*
X134507958Y-33598720D01*
X134428010Y-33628723D01*
X134353705Y-33656739D01*
X134287170Y-33681966D01*
X134230535Y-33703608D01*
X134185927Y-33720864D01*
X134155475Y-33732936D01*
X134141307Y-33739024D01*
X134140613Y-33739455D01*
X134144539Y-33747923D01*
X134162113Y-33763805D01*
X134189842Y-33784061D01*
X134198340Y-33789705D01*
X134229290Y-33810646D01*
X134252329Y-33827714D01*
X134263390Y-33837855D01*
X134263812Y-33838899D01*
X134255266Y-33845255D01*
X134231483Y-33859546D01*
X134194993Y-33880341D01*
X134148322Y-33906212D01*
X134093996Y-33935730D01*
X134066148Y-33950664D01*
X134000663Y-33985835D01*
X133922853Y-34027945D01*
X133837931Y-34074151D01*
X133751110Y-34121615D01*
X133667602Y-34167494D01*
X133617166Y-34195343D01*
X133544007Y-34235768D01*
X133457862Y-34283255D01*
X133363376Y-34335250D01*
X133265191Y-34389202D01*
X133167949Y-34442558D01*
X133076295Y-34492766D01*
X133044297Y-34510269D01*
X132896700Y-34591620D01*
X132754022Y-34671524D01*
X132617716Y-34749118D01*
X132489233Y-34823536D01*
X132370026Y-34893911D01*
X132261547Y-34959379D01*
X132165248Y-35019074D01*
X132082581Y-35072131D01*
X132014998Y-35117683D01*
X131967561Y-35152089D01*
X131909448Y-35200284D01*
X131867666Y-35243268D01*
X131842611Y-35280327D01*
X131834683Y-35310750D01*
X131844278Y-35333825D01*
X131860105Y-35344547D01*
X131886923Y-35354486D01*
X131902690Y-35356196D01*
X131904795Y-35350540D01*
X131890630Y-35338379D01*
X131886557Y-35335813D01*
X131863026Y-35316440D01*
X131856450Y-35298440D01*
X131856492Y-35298202D01*
X131868535Y-35279334D01*
X131898608Y-35253203D01*
X131946147Y-35220126D01*
X132010588Y-35180420D01*
X132091369Y-35134404D01*
X132187925Y-35082393D01*
X132299694Y-35024707D01*
X132426113Y-34961662D01*
X132566616Y-34893576D01*
X132617617Y-34869278D01*
X132668608Y-34845348D01*
X132731769Y-34816141D01*
X132805448Y-34782391D01*
X132887993Y-34744833D01*
X132977752Y-34704202D01*
X133073073Y-34661233D01*
X133172302Y-34616660D01*
X133273789Y-34571220D01*
X133375880Y-34525646D01*
X133476923Y-34480674D01*
X133575266Y-34437038D01*
X133669257Y-34395474D01*
X133757244Y-34356715D01*
X133837573Y-34321499D01*
X133908594Y-34290558D01*
X133968653Y-34264628D01*
X134016099Y-34244444D01*
X134049279Y-34230741D01*
X134066541Y-34224254D01*
X134068666Y-34223874D01*
X134061482Y-34230020D01*
X134039835Y-34245760D01*
X134005958Y-34269536D01*
X133962087Y-34299791D01*
X133910456Y-34334968D01*
X133870006Y-34362285D01*
X133802757Y-34407822D01*
X133723848Y-34461733D01*
X133635245Y-34522643D01*
X133538915Y-34589175D01*
X133436824Y-34659953D01*
X133330937Y-34733602D01*
X133223222Y-34808745D01*
X133115642Y-34884006D01*
X133010166Y-34958009D01*
X132908758Y-35029378D01*
X132813385Y-35096736D01*
X132726013Y-35158709D01*
X132648608Y-35213919D01*
X132583135Y-35260991D01*
X132531562Y-35298548D01*
X132517222Y-35309143D01*
X132273530Y-35492410D01*
X132047455Y-35667183D01*
X131838603Y-35833843D01*
X131646578Y-35992766D01*
X131470985Y-36144334D01*
X131311429Y-36288924D01*
X131167515Y-36426915D01*
X131038847Y-36558686D01*
X130925031Y-36684617D01*
X130825671Y-36805087D01*
X130740373Y-36920473D01*
X130668741Y-37031156D01*
X130610379Y-37137514D01*
X130610032Y-37138214D01*
X130572195Y-37217495D01*
X130543791Y-37284971D01*
X130523175Y-37345587D01*
X130508703Y-37404283D01*
X130498731Y-37466003D01*
X130497429Y-37476606D01*
X130492964Y-37548700D01*
X130495769Y-37620611D01*
M02*
