G04 #@! TF.FileFunction,Copper,L1,Top,Signal*
%FSLAX46Y46*%
G04 Gerber Fmt 4.6, Leading zero omitted, Abs format (unit mm)*
G04 Created by KiCad (PCBNEW 4.0.7) date 03/27/18 18:56:06*
%MOMM*%
%LPD*%
G01*
G04 APERTURE LIST*
%ADD10C,0.100000*%
%ADD11C,2.844800*%
%ADD12R,2.032000X1.168400*%
%ADD13R,2.032000X1.524000*%
%ADD14C,3.450000*%
%ADD15C,1.524000*%
%ADD16C,0.406400*%
%ADD17C,0.254000*%
G04 APERTURE END LIST*
D10*
D11*
X136474200Y-25400000D03*
X123875800Y-25400000D03*
X139750800Y-66852800D03*
D12*
X125857000Y-35892740D03*
D13*
X125857000Y-38254940D03*
X125857000Y-40794940D03*
D12*
X125857000Y-43157140D03*
X134493000Y-43157140D03*
D13*
X134493000Y-40794940D03*
X134493000Y-38254940D03*
D12*
X134493000Y-35892740D03*
D14*
X133987000Y-55630000D03*
D15*
X132842000Y-46990000D03*
X130302000Y-46990000D03*
X127762000Y-46990000D03*
D14*
X126617000Y-55630000D03*
D11*
X120599200Y-66852800D03*
D16*
X123952000Y-46177200D02*
X123952000Y-37365940D01*
X123952000Y-37365940D02*
X125425200Y-35892740D01*
X125425200Y-35892740D02*
X125857000Y-35892740D01*
X126034800Y-48260000D02*
X123952000Y-46177200D01*
X130109630Y-48260000D02*
X126034800Y-48260000D01*
X130302000Y-46990000D02*
X130302000Y-48067630D01*
X130302000Y-48067630D02*
X130109630Y-48260000D01*
X127762000Y-46990000D02*
X126684370Y-46990000D01*
X126684370Y-46990000D02*
X125857000Y-46162630D01*
X125857000Y-46162630D02*
X125857000Y-44147740D01*
X125857000Y-44147740D02*
X125857000Y-43157140D01*
X125857000Y-43157140D02*
X134493000Y-43157140D01*
D17*
G36*
X141559979Y-23244478D02*
X141737145Y-23362856D01*
X141855521Y-23540019D01*
X141911000Y-23818931D01*
X141911000Y-66782873D01*
X141733713Y-67674151D01*
X141268457Y-68370457D01*
X140572151Y-68835713D01*
X139750798Y-68999090D01*
X138929449Y-68835713D01*
X138233143Y-68370457D01*
X137767887Y-67674151D01*
X137685557Y-67260247D01*
X137693044Y-67260247D01*
X138005604Y-68016701D01*
X138583855Y-68595962D01*
X139339762Y-68909842D01*
X140158247Y-68910556D01*
X140914701Y-68597996D01*
X141493962Y-68019745D01*
X141807842Y-67263838D01*
X141808556Y-66445353D01*
X141495996Y-65688899D01*
X140917745Y-65109638D01*
X140161838Y-64795758D01*
X139343353Y-64795044D01*
X138586899Y-65107604D01*
X138007638Y-65685855D01*
X137693758Y-66441762D01*
X137693044Y-67260247D01*
X137685557Y-67260247D01*
X137590600Y-66782869D01*
X137590600Y-60198000D01*
X137536554Y-59926295D01*
X137382646Y-59695954D01*
X137152305Y-59542046D01*
X136880600Y-59488000D01*
X123469400Y-59488000D01*
X123197695Y-59542046D01*
X122967354Y-59695954D01*
X122813446Y-59926295D01*
X122759400Y-60198000D01*
X122759400Y-66782873D01*
X122582113Y-67674151D01*
X122116857Y-68370457D01*
X121420551Y-68835713D01*
X120599198Y-68999090D01*
X119777849Y-68835713D01*
X119081543Y-68370457D01*
X118613569Y-67670083D01*
X118526379Y-67260247D01*
X118541444Y-67260247D01*
X118854004Y-68016701D01*
X119432255Y-68595962D01*
X120188162Y-68909842D01*
X121006647Y-68910556D01*
X121763101Y-68597996D01*
X122342362Y-68019745D01*
X122656242Y-67263838D01*
X122656956Y-66445353D01*
X122344396Y-65688899D01*
X121766145Y-65109638D01*
X121010238Y-64795758D01*
X120191753Y-64795044D01*
X119435299Y-65107604D01*
X118856038Y-65685855D01*
X118542158Y-66441762D01*
X118541444Y-67260247D01*
X118526379Y-67260247D01*
X118439000Y-66849532D01*
X118439000Y-56097373D01*
X124256591Y-56097373D01*
X124615123Y-56965086D01*
X125278422Y-57629544D01*
X126145508Y-57989589D01*
X127084373Y-57990409D01*
X127952086Y-57631877D01*
X128616544Y-56968578D01*
X128976589Y-56101492D01*
X128976592Y-56097373D01*
X131626591Y-56097373D01*
X131985123Y-56965086D01*
X132648422Y-57629544D01*
X133515508Y-57989589D01*
X134454373Y-57990409D01*
X135322086Y-57631877D01*
X135986544Y-56968578D01*
X136346589Y-56101492D01*
X136347409Y-55162627D01*
X135988877Y-54294914D01*
X135325578Y-53630456D01*
X134458492Y-53270411D01*
X133519627Y-53269591D01*
X132651914Y-53628123D01*
X131987456Y-54291422D01*
X131627411Y-55158508D01*
X131626591Y-56097373D01*
X128976592Y-56097373D01*
X128977409Y-55162627D01*
X128618877Y-54294914D01*
X127955578Y-53630456D01*
X127088492Y-53270411D01*
X126149627Y-53269591D01*
X125281914Y-53628123D01*
X124617456Y-54291422D01*
X124257411Y-55158508D01*
X124256591Y-56097373D01*
X118439000Y-56097373D01*
X118439000Y-37365940D01*
X123113800Y-37365940D01*
X123113800Y-46177200D01*
X123177604Y-46497966D01*
X123359303Y-46769897D01*
X125442103Y-48852697D01*
X125714034Y-49034396D01*
X126034800Y-49098200D01*
X130109630Y-49098200D01*
X130430396Y-49034396D01*
X130702327Y-48852697D01*
X130894697Y-48660327D01*
X131076396Y-48388396D01*
X131125416Y-48141955D01*
X131485629Y-47782370D01*
X131698757Y-47269100D01*
X131699242Y-46713339D01*
X131487010Y-46199697D01*
X131094370Y-45806371D01*
X130581100Y-45593243D01*
X130025339Y-45592758D01*
X129511697Y-45804990D01*
X129118371Y-46197630D01*
X129032051Y-46405512D01*
X128947010Y-46199697D01*
X128554370Y-45806371D01*
X128041100Y-45593243D01*
X127485339Y-45592758D01*
X126971697Y-45804990D01*
X126828100Y-45948336D01*
X126695200Y-45815436D01*
X126695200Y-44388780D01*
X126873000Y-44388780D01*
X127108317Y-44344502D01*
X127324441Y-44205430D01*
X127467989Y-43995340D01*
X132885860Y-43995340D01*
X133012910Y-44192781D01*
X133225110Y-44337771D01*
X133477000Y-44388780D01*
X135509000Y-44388780D01*
X135744317Y-44344502D01*
X135960441Y-44205430D01*
X136105431Y-43993230D01*
X136156440Y-43741340D01*
X136156440Y-42572940D01*
X136112162Y-42337623D01*
X135973090Y-42121499D01*
X135891230Y-42065566D01*
X135960441Y-42021030D01*
X136105431Y-41808830D01*
X136156440Y-41556940D01*
X136156440Y-40032940D01*
X136112162Y-39797623D01*
X135973090Y-39581499D01*
X135891230Y-39525566D01*
X135960441Y-39481030D01*
X136105431Y-39268830D01*
X136156440Y-39016940D01*
X136156440Y-37492940D01*
X136112162Y-37257623D01*
X135973090Y-37041499D01*
X135760890Y-36896509D01*
X135509000Y-36845500D01*
X133477000Y-36845500D01*
X133241683Y-36889778D01*
X133025559Y-37028850D01*
X132880569Y-37241050D01*
X132829560Y-37492940D01*
X132829560Y-39016940D01*
X132873838Y-39252257D01*
X133012910Y-39468381D01*
X133094770Y-39524314D01*
X133025559Y-39568850D01*
X132880569Y-39781050D01*
X132829560Y-40032940D01*
X132829560Y-41556940D01*
X132873838Y-41792257D01*
X133012910Y-42008381D01*
X133094770Y-42064314D01*
X133025559Y-42108850D01*
X132882011Y-42318940D01*
X127464140Y-42318940D01*
X127337090Y-42121499D01*
X127124890Y-41976509D01*
X126873000Y-41925500D01*
X124841000Y-41925500D01*
X124790200Y-41935059D01*
X124790200Y-39654093D01*
X124841000Y-39664380D01*
X126873000Y-39664380D01*
X127108317Y-39620102D01*
X127324441Y-39481030D01*
X127469431Y-39268830D01*
X127520440Y-39016940D01*
X127520440Y-37492940D01*
X127476162Y-37257623D01*
X127337090Y-37041499D01*
X127255230Y-36985566D01*
X127324441Y-36941030D01*
X127469431Y-36728830D01*
X127520440Y-36476940D01*
X127520440Y-35308540D01*
X127476162Y-35073223D01*
X127337090Y-34857099D01*
X127124890Y-34712109D01*
X126873000Y-34661100D01*
X124841000Y-34661100D01*
X124605683Y-34705378D01*
X124389559Y-34844450D01*
X124244569Y-35056650D01*
X124193560Y-35308540D01*
X124193560Y-35938986D01*
X123359303Y-36773243D01*
X123177604Y-37045174D01*
X123113800Y-37365940D01*
X118439000Y-37365940D01*
X118439000Y-25807447D01*
X121818044Y-25807447D01*
X122130604Y-26563901D01*
X122708855Y-27143162D01*
X123464762Y-27457042D01*
X124283247Y-27457756D01*
X125039701Y-27145196D01*
X125618962Y-26566945D01*
X125932842Y-25811038D01*
X125932845Y-25807447D01*
X134416444Y-25807447D01*
X134729004Y-26563901D01*
X135307255Y-27143162D01*
X136063162Y-27457042D01*
X136881647Y-27457756D01*
X137638101Y-27145196D01*
X138217362Y-26566945D01*
X138531242Y-25811038D01*
X138531956Y-24992553D01*
X138219396Y-24236099D01*
X137641145Y-23656838D01*
X136885238Y-23342958D01*
X136066753Y-23342244D01*
X135310299Y-23654804D01*
X134731038Y-24233055D01*
X134417158Y-24988962D01*
X134416444Y-25807447D01*
X125932845Y-25807447D01*
X125933556Y-24992553D01*
X125620996Y-24236099D01*
X125042745Y-23656838D01*
X124286838Y-23342958D01*
X123468353Y-23342244D01*
X122711899Y-23654804D01*
X122132638Y-24233055D01*
X121818758Y-24988962D01*
X121818044Y-25807447D01*
X118439000Y-25807447D01*
X118439000Y-23818930D01*
X118494478Y-23540021D01*
X118612856Y-23362855D01*
X118790019Y-23244479D01*
X119068931Y-23189000D01*
X141281070Y-23189000D01*
X141559979Y-23244478D01*
X141559979Y-23244478D01*
G37*
X141559979Y-23244478D02*
X141737145Y-23362856D01*
X141855521Y-23540019D01*
X141911000Y-23818931D01*
X141911000Y-66782873D01*
X141733713Y-67674151D01*
X141268457Y-68370457D01*
X140572151Y-68835713D01*
X139750798Y-68999090D01*
X138929449Y-68835713D01*
X138233143Y-68370457D01*
X137767887Y-67674151D01*
X137685557Y-67260247D01*
X137693044Y-67260247D01*
X138005604Y-68016701D01*
X138583855Y-68595962D01*
X139339762Y-68909842D01*
X140158247Y-68910556D01*
X140914701Y-68597996D01*
X141493962Y-68019745D01*
X141807842Y-67263838D01*
X141808556Y-66445353D01*
X141495996Y-65688899D01*
X140917745Y-65109638D01*
X140161838Y-64795758D01*
X139343353Y-64795044D01*
X138586899Y-65107604D01*
X138007638Y-65685855D01*
X137693758Y-66441762D01*
X137693044Y-67260247D01*
X137685557Y-67260247D01*
X137590600Y-66782869D01*
X137590600Y-60198000D01*
X137536554Y-59926295D01*
X137382646Y-59695954D01*
X137152305Y-59542046D01*
X136880600Y-59488000D01*
X123469400Y-59488000D01*
X123197695Y-59542046D01*
X122967354Y-59695954D01*
X122813446Y-59926295D01*
X122759400Y-60198000D01*
X122759400Y-66782873D01*
X122582113Y-67674151D01*
X122116857Y-68370457D01*
X121420551Y-68835713D01*
X120599198Y-68999090D01*
X119777849Y-68835713D01*
X119081543Y-68370457D01*
X118613569Y-67670083D01*
X118526379Y-67260247D01*
X118541444Y-67260247D01*
X118854004Y-68016701D01*
X119432255Y-68595962D01*
X120188162Y-68909842D01*
X121006647Y-68910556D01*
X121763101Y-68597996D01*
X122342362Y-68019745D01*
X122656242Y-67263838D01*
X122656956Y-66445353D01*
X122344396Y-65688899D01*
X121766145Y-65109638D01*
X121010238Y-64795758D01*
X120191753Y-64795044D01*
X119435299Y-65107604D01*
X118856038Y-65685855D01*
X118542158Y-66441762D01*
X118541444Y-67260247D01*
X118526379Y-67260247D01*
X118439000Y-66849532D01*
X118439000Y-56097373D01*
X124256591Y-56097373D01*
X124615123Y-56965086D01*
X125278422Y-57629544D01*
X126145508Y-57989589D01*
X127084373Y-57990409D01*
X127952086Y-57631877D01*
X128616544Y-56968578D01*
X128976589Y-56101492D01*
X128976592Y-56097373D01*
X131626591Y-56097373D01*
X131985123Y-56965086D01*
X132648422Y-57629544D01*
X133515508Y-57989589D01*
X134454373Y-57990409D01*
X135322086Y-57631877D01*
X135986544Y-56968578D01*
X136346589Y-56101492D01*
X136347409Y-55162627D01*
X135988877Y-54294914D01*
X135325578Y-53630456D01*
X134458492Y-53270411D01*
X133519627Y-53269591D01*
X132651914Y-53628123D01*
X131987456Y-54291422D01*
X131627411Y-55158508D01*
X131626591Y-56097373D01*
X128976592Y-56097373D01*
X128977409Y-55162627D01*
X128618877Y-54294914D01*
X127955578Y-53630456D01*
X127088492Y-53270411D01*
X126149627Y-53269591D01*
X125281914Y-53628123D01*
X124617456Y-54291422D01*
X124257411Y-55158508D01*
X124256591Y-56097373D01*
X118439000Y-56097373D01*
X118439000Y-37365940D01*
X123113800Y-37365940D01*
X123113800Y-46177200D01*
X123177604Y-46497966D01*
X123359303Y-46769897D01*
X125442103Y-48852697D01*
X125714034Y-49034396D01*
X126034800Y-49098200D01*
X130109630Y-49098200D01*
X130430396Y-49034396D01*
X130702327Y-48852697D01*
X130894697Y-48660327D01*
X131076396Y-48388396D01*
X131125416Y-48141955D01*
X131485629Y-47782370D01*
X131698757Y-47269100D01*
X131699242Y-46713339D01*
X131487010Y-46199697D01*
X131094370Y-45806371D01*
X130581100Y-45593243D01*
X130025339Y-45592758D01*
X129511697Y-45804990D01*
X129118371Y-46197630D01*
X129032051Y-46405512D01*
X128947010Y-46199697D01*
X128554370Y-45806371D01*
X128041100Y-45593243D01*
X127485339Y-45592758D01*
X126971697Y-45804990D01*
X126828100Y-45948336D01*
X126695200Y-45815436D01*
X126695200Y-44388780D01*
X126873000Y-44388780D01*
X127108317Y-44344502D01*
X127324441Y-44205430D01*
X127467989Y-43995340D01*
X132885860Y-43995340D01*
X133012910Y-44192781D01*
X133225110Y-44337771D01*
X133477000Y-44388780D01*
X135509000Y-44388780D01*
X135744317Y-44344502D01*
X135960441Y-44205430D01*
X136105431Y-43993230D01*
X136156440Y-43741340D01*
X136156440Y-42572940D01*
X136112162Y-42337623D01*
X135973090Y-42121499D01*
X135891230Y-42065566D01*
X135960441Y-42021030D01*
X136105431Y-41808830D01*
X136156440Y-41556940D01*
X136156440Y-40032940D01*
X136112162Y-39797623D01*
X135973090Y-39581499D01*
X135891230Y-39525566D01*
X135960441Y-39481030D01*
X136105431Y-39268830D01*
X136156440Y-39016940D01*
X136156440Y-37492940D01*
X136112162Y-37257623D01*
X135973090Y-37041499D01*
X135760890Y-36896509D01*
X135509000Y-36845500D01*
X133477000Y-36845500D01*
X133241683Y-36889778D01*
X133025559Y-37028850D01*
X132880569Y-37241050D01*
X132829560Y-37492940D01*
X132829560Y-39016940D01*
X132873838Y-39252257D01*
X133012910Y-39468381D01*
X133094770Y-39524314D01*
X133025559Y-39568850D01*
X132880569Y-39781050D01*
X132829560Y-40032940D01*
X132829560Y-41556940D01*
X132873838Y-41792257D01*
X133012910Y-42008381D01*
X133094770Y-42064314D01*
X133025559Y-42108850D01*
X132882011Y-42318940D01*
X127464140Y-42318940D01*
X127337090Y-42121499D01*
X127124890Y-41976509D01*
X126873000Y-41925500D01*
X124841000Y-41925500D01*
X124790200Y-41935059D01*
X124790200Y-39654093D01*
X124841000Y-39664380D01*
X126873000Y-39664380D01*
X127108317Y-39620102D01*
X127324441Y-39481030D01*
X127469431Y-39268830D01*
X127520440Y-39016940D01*
X127520440Y-37492940D01*
X127476162Y-37257623D01*
X127337090Y-37041499D01*
X127255230Y-36985566D01*
X127324441Y-36941030D01*
X127469431Y-36728830D01*
X127520440Y-36476940D01*
X127520440Y-35308540D01*
X127476162Y-35073223D01*
X127337090Y-34857099D01*
X127124890Y-34712109D01*
X126873000Y-34661100D01*
X124841000Y-34661100D01*
X124605683Y-34705378D01*
X124389559Y-34844450D01*
X124244569Y-35056650D01*
X124193560Y-35308540D01*
X124193560Y-35938986D01*
X123359303Y-36773243D01*
X123177604Y-37045174D01*
X123113800Y-37365940D01*
X118439000Y-37365940D01*
X118439000Y-25807447D01*
X121818044Y-25807447D01*
X122130604Y-26563901D01*
X122708855Y-27143162D01*
X123464762Y-27457042D01*
X124283247Y-27457756D01*
X125039701Y-27145196D01*
X125618962Y-26566945D01*
X125932842Y-25811038D01*
X125932845Y-25807447D01*
X134416444Y-25807447D01*
X134729004Y-26563901D01*
X135307255Y-27143162D01*
X136063162Y-27457042D01*
X136881647Y-27457756D01*
X137638101Y-27145196D01*
X138217362Y-26566945D01*
X138531242Y-25811038D01*
X138531956Y-24992553D01*
X138219396Y-24236099D01*
X137641145Y-23656838D01*
X136885238Y-23342958D01*
X136066753Y-23342244D01*
X135310299Y-23654804D01*
X134731038Y-24233055D01*
X134417158Y-24988962D01*
X134416444Y-25807447D01*
X125932845Y-25807447D01*
X125933556Y-24992553D01*
X125620996Y-24236099D01*
X125042745Y-23656838D01*
X124286838Y-23342958D01*
X123468353Y-23342244D01*
X122711899Y-23654804D01*
X122132638Y-24233055D01*
X121818758Y-24988962D01*
X121818044Y-25807447D01*
X118439000Y-25807447D01*
X118439000Y-23818930D01*
X118494478Y-23540021D01*
X118612856Y-23362855D01*
X118790019Y-23244479D01*
X119068931Y-23189000D01*
X141281070Y-23189000D01*
X141559979Y-23244478D01*
M02*
