G04 #@! TF.FileFunction,Soldermask,Top*
%FSLAX46Y46*%
G04 Gerber Fmt 4.6, Leading zero omitted, Abs format (unit mm)*
G04 Created by KiCad (PCBNEW 4.0.7) date 03/26/18 21:42:40*
%MOMM*%
%LPD*%
G01*
G04 APERTURE LIST*
%ADD10C,0.100000*%
%ADD11C,1.924000*%
%ADD12C,3.850000*%
%ADD13C,1.920000*%
%ADD14C,5.480000*%
%ADD15R,1.600000X1.150000*%
%ADD16R,1.150000X1.600000*%
%ADD17R,2.100000X2.400000*%
%ADD18R,1.300000X1.600000*%
%ADD19R,1.600000X1.300000*%
%ADD20R,1.050000X1.960000*%
%ADD21R,2.600000X1.200000*%
%ADD22R,6.800000X6.200000*%
%ADD23R,1.850000X0.850000*%
G04 APERTURE END LIST*
D10*
D11*
X167386000Y-84709000D03*
X169926000Y-84709000D03*
X172466000Y-84709000D03*
X175006000Y-84709000D03*
X177546000Y-84709000D03*
D12*
X166116000Y-76073000D03*
X178816000Y-76073000D03*
D13*
X182778400Y-126034800D03*
X205638400Y-80314800D03*
X203098400Y-80314800D03*
X195478400Y-80314800D03*
X192938400Y-123494800D03*
X198018400Y-80314800D03*
X200558400Y-80314800D03*
X198018400Y-126034800D03*
X203098400Y-123494800D03*
X192938400Y-80314800D03*
X190398400Y-80314800D03*
X203098400Y-126034800D03*
X198018400Y-123494800D03*
X195478400Y-123494800D03*
X182778400Y-123494800D03*
X185318400Y-123494800D03*
X187858400Y-123494800D03*
X190398400Y-123494800D03*
X200558400Y-123494800D03*
X205638400Y-123494800D03*
X185318400Y-126034800D03*
X187858400Y-126034800D03*
X190398400Y-126034800D03*
X192938400Y-126034800D03*
X195478400Y-126034800D03*
X200558400Y-126034800D03*
X205638400Y-126034800D03*
X182778400Y-82854800D03*
X185318400Y-82854800D03*
X187858400Y-82854800D03*
X190398400Y-82854800D03*
X192938400Y-82854800D03*
X195478400Y-82854800D03*
X198018400Y-82854800D03*
X200558400Y-82854800D03*
X203098400Y-82854800D03*
X205638400Y-82854800D03*
X182778400Y-80314800D03*
X185318400Y-80314800D03*
X187858400Y-80314800D03*
X119278400Y-123494800D03*
X121818400Y-123494800D03*
X124358400Y-123494800D03*
X126898400Y-123494800D03*
X129438400Y-123494800D03*
X131978400Y-123494800D03*
X134518400Y-123494800D03*
X137058400Y-123494800D03*
X139598400Y-123494800D03*
X142138400Y-123494800D03*
X119278400Y-126034800D03*
X121818400Y-126034800D03*
X124358400Y-126034800D03*
X126898400Y-126034800D03*
X129438400Y-126034800D03*
X131978400Y-126034800D03*
X134518400Y-126034800D03*
X137058400Y-126034800D03*
X139598400Y-126034800D03*
X142138400Y-126034800D03*
X119278400Y-82854800D03*
X121818400Y-82854800D03*
X124358400Y-82854800D03*
X126898400Y-82854800D03*
X129438400Y-82854800D03*
X131978400Y-82854800D03*
X134518400Y-82854800D03*
X137058400Y-82854800D03*
X139598400Y-82854800D03*
X142138400Y-82854800D03*
X119278400Y-80314800D03*
X121818400Y-80314800D03*
X124358400Y-80314800D03*
X126898400Y-80314800D03*
X129438400Y-80314800D03*
X131978400Y-80314800D03*
X134518400Y-80314800D03*
X137058400Y-80314800D03*
X139598400Y-80314800D03*
X142138400Y-80314800D03*
D14*
X214325200Y-107571000D03*
X214325200Y-115570000D03*
X214325200Y-123571000D03*
D15*
X191963000Y-104394000D03*
X193863000Y-104394000D03*
D11*
X131216400Y-114808000D03*
X131216400Y-112268000D03*
X131216400Y-109728000D03*
X131216400Y-107188000D03*
X131216400Y-104648000D03*
D12*
X122580400Y-116078000D03*
X122580400Y-90678000D03*
D11*
X131216400Y-102108000D03*
X131216400Y-99568000D03*
X131216400Y-97028000D03*
X131216400Y-94488000D03*
X131216400Y-91948000D03*
D15*
X188153000Y-104394000D03*
X190053000Y-104394000D03*
D16*
X161417000Y-98994000D03*
X161417000Y-97094000D03*
X151274308Y-98855966D03*
X151274308Y-96955966D03*
X162179000Y-93279000D03*
X162179000Y-91379000D03*
X152290308Y-93267966D03*
X152290308Y-91367966D03*
D15*
X156403000Y-88900000D03*
X158303000Y-88900000D03*
X146768308Y-89015966D03*
X148668308Y-89015966D03*
X198948000Y-104394000D03*
X200848000Y-104394000D03*
X202758000Y-104394000D03*
X204658000Y-104394000D03*
X238122500Y-93916500D03*
X236222500Y-93916500D03*
X238122500Y-92329000D03*
X236222500Y-92329000D03*
X202760500Y-102997000D03*
X204660500Y-102997000D03*
D17*
X183184800Y-118719600D03*
X183184800Y-114719600D03*
D18*
X183184800Y-111928000D03*
X183184800Y-109728000D03*
X156972000Y-91102000D03*
X156972000Y-93302000D03*
X146829308Y-91217966D03*
X146829308Y-93417966D03*
X159766000Y-96944000D03*
X159766000Y-99144000D03*
X149623308Y-96805966D03*
X149623308Y-99005966D03*
X163830000Y-91229000D03*
X163830000Y-93429000D03*
X153941308Y-91217966D03*
X153941308Y-93417966D03*
X158115000Y-96944000D03*
X158115000Y-99144000D03*
X147972308Y-96805966D03*
X147972308Y-99005966D03*
D19*
X238420000Y-95567500D03*
X236220000Y-95567500D03*
D18*
X234315000Y-90149500D03*
X234315000Y-92349500D03*
D19*
X238399500Y-90170000D03*
X236199500Y-90170000D03*
D12*
X156843000Y-76069000D03*
D11*
X157988000Y-84709000D03*
X160528000Y-84709000D03*
D12*
X161671000Y-76073000D03*
X147445000Y-75942000D03*
D11*
X148590000Y-84582000D03*
X151130000Y-84582000D03*
D12*
X152273000Y-75946000D03*
D11*
X188468000Y-106934000D03*
X191008000Y-106934000D03*
X193548000Y-106934000D03*
D20*
X158374000Y-93726000D03*
X159324000Y-93726000D03*
X160274000Y-93726000D03*
X160274000Y-91026000D03*
X158374000Y-91026000D03*
X148673308Y-93667966D03*
X149623308Y-93667966D03*
X150573308Y-93667966D03*
X150573308Y-90967966D03*
X148673308Y-90967966D03*
D11*
X199237600Y-106883200D03*
X201777600Y-106883200D03*
X204317600Y-106883200D03*
D21*
X231711500Y-95250000D03*
X231711500Y-94110000D03*
X231711500Y-92970000D03*
X231711500Y-91830000D03*
X231711500Y-90690000D03*
D22*
X225411500Y-92970000D03*
D12*
X213485000Y-75942000D03*
D11*
X214630000Y-84582000D03*
X217170000Y-84582000D03*
D12*
X218313000Y-75946000D03*
D23*
X210023500Y-93857000D03*
X210023500Y-93207000D03*
X210023500Y-92557000D03*
X210023500Y-91907000D03*
X210023500Y-91257000D03*
X210023500Y-90607000D03*
X210023500Y-89957000D03*
X210023500Y-89307000D03*
X210023500Y-88657000D03*
X210023500Y-88007000D03*
X204123500Y-88007000D03*
X204123500Y-88657000D03*
X204123500Y-89307000D03*
X204123500Y-89957000D03*
X204123500Y-90607000D03*
X204123500Y-91257000D03*
X204123500Y-91907000D03*
X204123500Y-92557000D03*
X204123500Y-93207000D03*
X204123500Y-93857000D03*
D12*
X230884000Y-75942000D03*
D11*
X232029000Y-84582000D03*
X234569000Y-84582000D03*
D12*
X235712000Y-75946000D03*
M02*
