M48
;DRILL file {KiCad 4.0.7} date 04/18/18 19:59:59
;FORMAT={-:-/ absolute / inch / decimal}
FMAT,2
INCH,TZ
T1C0.016
T2C0.030
T3C0.035
T4C0.039
T5C0.160
%
G90
G05
M72
T1
X5.11Y-3.54
X5.546Y-3.898
X5.6Y-3.87
X5.72Y-3.586
X5.8907Y-3.7446
X6.066Y-3.866
X6.124Y-3.586
X6.27Y-3.75
X6.356Y-3.988
X7.6475Y-4.8025
X8.555Y-4.74
X8.692Y-3.6
T2
X5.166Y-3.62
X5.166Y-3.72
X5.166Y-3.82
X5.166Y-3.92
X5.166Y-4.02
X5.166Y-4.12
X5.166Y-4.22
X5.166Y-4.32
X5.166Y-4.42
X5.166Y-4.52
X5.85Y-3.33
X5.95Y-3.33
X6.22Y-3.335
X6.32Y-3.335
X6.59Y-3.335
X6.69Y-3.335
X6.79Y-3.335
X6.89Y-3.335
X6.99Y-3.335
X8.45Y-3.33
X8.55Y-3.33
X9.135Y-3.33
X9.235Y-3.33
T3
X7.42Y-4.21
X7.52Y-4.21
X7.62Y-4.21
X7.844Y-4.208
X7.944Y-4.208
X8.044Y-4.208
T4
X4.696Y-3.162
X4.696Y-3.262
X4.696Y-4.862
X4.696Y-4.962
X4.796Y-3.162
X4.796Y-3.262
X4.796Y-4.862
X4.796Y-4.962
X4.896Y-3.162
X4.896Y-3.262
X4.896Y-4.862
X4.896Y-4.962
X4.996Y-3.162
X4.996Y-3.262
X4.996Y-4.862
X4.996Y-4.962
X5.096Y-3.162
X5.096Y-3.262
X5.096Y-4.862
X5.096Y-4.962
X5.196Y-3.162
X5.196Y-3.262
X5.196Y-4.862
X5.196Y-4.962
X5.296Y-3.162
X5.296Y-3.262
X5.296Y-4.862
X5.296Y-4.962
X5.396Y-3.162
X5.396Y-3.262
X5.396Y-4.862
X5.396Y-4.962
X5.496Y-3.162
X5.496Y-3.262
X5.496Y-4.862
X5.496Y-4.962
X5.596Y-3.162
X5.596Y-3.262
X5.596Y-4.862
X5.596Y-4.962
X7.196Y-3.162
X7.196Y-3.262
X7.196Y-4.862
X7.196Y-4.962
X7.296Y-3.162
X7.296Y-3.262
X7.296Y-4.862
X7.296Y-4.962
X7.396Y-3.162
X7.396Y-3.262
X7.396Y-4.862
X7.396Y-4.962
X7.496Y-3.162
X7.496Y-3.262
X7.496Y-4.862
X7.496Y-4.962
X7.596Y-3.162
X7.596Y-3.262
X7.596Y-4.862
X7.596Y-4.962
X7.696Y-3.162
X7.696Y-3.262
X7.696Y-4.862
X7.696Y-4.962
X7.796Y-3.162
X7.796Y-3.262
X7.796Y-4.862
X7.796Y-4.962
X7.896Y-3.162
X7.896Y-3.262
X7.896Y-4.862
X7.896Y-4.962
X7.996Y-3.162
X7.996Y-3.262
X7.996Y-4.862
X7.996Y-4.962
X8.096Y-3.162
X8.096Y-3.262
X8.096Y-4.862
X8.096Y-4.962
T5
X8.438Y-4.2351
X8.438Y-4.55
X8.438Y-4.865
T0
M30
