G04 #@! TF.FileFunction,Copper,L2,Bot,Signal*
%FSLAX46Y46*%
G04 Gerber Fmt 4.6, Leading zero omitted, Abs format (unit mm)*
G04 Created by KiCad (PCBNEW 4.0.7) date 04/18/18 19:59:56*
%MOMM*%
%LPD*%
G01*
G04 APERTURE LIST*
%ADD10C,0.100000*%
%ADD11C,1.520000*%
%ADD12C,1.524000*%
%ADD13C,5.080000*%
%ADD14C,0.600000*%
%ADD15C,0.406400*%
%ADD16C,0.254000*%
G04 APERTURE END LIST*
D10*
D11*
X182778400Y-126034800D03*
X205638400Y-80314800D03*
X203098400Y-80314800D03*
X195478400Y-80314800D03*
X192938400Y-123494800D03*
X198018400Y-80314800D03*
X200558400Y-80314800D03*
X198018400Y-126034800D03*
X203098400Y-123494800D03*
X192938400Y-80314800D03*
X190398400Y-80314800D03*
X203098400Y-126034800D03*
X198018400Y-123494800D03*
X195478400Y-123494800D03*
X182778400Y-123494800D03*
X185318400Y-123494800D03*
X187858400Y-123494800D03*
X190398400Y-123494800D03*
X200558400Y-123494800D03*
X205638400Y-123494800D03*
X185318400Y-126034800D03*
X187858400Y-126034800D03*
X190398400Y-126034800D03*
X192938400Y-126034800D03*
X195478400Y-126034800D03*
X200558400Y-126034800D03*
X205638400Y-126034800D03*
X182778400Y-82854800D03*
X185318400Y-82854800D03*
X187858400Y-82854800D03*
X190398400Y-82854800D03*
X192938400Y-82854800D03*
X195478400Y-82854800D03*
X198018400Y-82854800D03*
X200558400Y-82854800D03*
X203098400Y-82854800D03*
X205638400Y-82854800D03*
X182778400Y-80314800D03*
X185318400Y-80314800D03*
X187858400Y-80314800D03*
X119278400Y-123494800D03*
X121818400Y-123494800D03*
X124358400Y-123494800D03*
X126898400Y-123494800D03*
X129438400Y-123494800D03*
X131978400Y-123494800D03*
X134518400Y-123494800D03*
X137058400Y-123494800D03*
X139598400Y-123494800D03*
X142138400Y-123494800D03*
X119278400Y-126034800D03*
X121818400Y-126034800D03*
X124358400Y-126034800D03*
X126898400Y-126034800D03*
X129438400Y-126034800D03*
X131978400Y-126034800D03*
X134518400Y-126034800D03*
X137058400Y-126034800D03*
X139598400Y-126034800D03*
X142138400Y-126034800D03*
X119278400Y-82854800D03*
X121818400Y-82854800D03*
X124358400Y-82854800D03*
X126898400Y-82854800D03*
X129438400Y-82854800D03*
X131978400Y-82854800D03*
X134518400Y-82854800D03*
X137058400Y-82854800D03*
X139598400Y-82854800D03*
X142138400Y-82854800D03*
X119278400Y-80314800D03*
X121818400Y-80314800D03*
X124358400Y-80314800D03*
X126898400Y-80314800D03*
X129438400Y-80314800D03*
X131978400Y-80314800D03*
X134518400Y-80314800D03*
X137058400Y-80314800D03*
X139598400Y-80314800D03*
X142138400Y-80314800D03*
D12*
X167386000Y-84709000D03*
X169926000Y-84709000D03*
X172466000Y-84709000D03*
X175006000Y-84709000D03*
X177546000Y-84709000D03*
D13*
X214325200Y-107571000D03*
X214325200Y-115570000D03*
X214325200Y-123571000D03*
D12*
X131216400Y-114808000D03*
X131216400Y-112268000D03*
X131216400Y-109728000D03*
X131216400Y-107188000D03*
X131216400Y-104648000D03*
X131216400Y-102108000D03*
X131216400Y-99568000D03*
X131216400Y-97028000D03*
X131216400Y-94488000D03*
X131216400Y-91948000D03*
X157988000Y-84709000D03*
X160528000Y-84709000D03*
X148590000Y-84582000D03*
X151130000Y-84582000D03*
X188468000Y-106934000D03*
X191008000Y-106934000D03*
X193548000Y-106934000D03*
X199237600Y-106883200D03*
X201777600Y-106883200D03*
X204317600Y-106883200D03*
X214630000Y-84582000D03*
X217170000Y-84582000D03*
X232029000Y-84582000D03*
X234569000Y-84582000D03*
D14*
X142240000Y-98298000D03*
X161442400Y-101295200D03*
X154076400Y-98196400D03*
X220776800Y-91440000D03*
X149623308Y-95111966D03*
X159258000Y-95250000D03*
X145288000Y-91084400D03*
X155549600Y-91084400D03*
X129794000Y-89916000D03*
X217297000Y-120396000D03*
X194246500Y-121983500D03*
X140868400Y-99009200D03*
D15*
X142240000Y-98298000D02*
X142240000Y-82956400D01*
X142240000Y-82956400D02*
X142138400Y-82854800D01*
X188468000Y-106934000D02*
X188468000Y-108011630D01*
X188468000Y-108011630D02*
X196026370Y-115570000D01*
X196026370Y-115570000D02*
X210733098Y-115570000D01*
X210733098Y-115570000D02*
X214325200Y-115570000D01*
X120586500Y-124777500D02*
X181495700Y-124777500D01*
X181495700Y-124777500D02*
X182778400Y-123494800D01*
X120063799Y-124254799D02*
X120586500Y-124777500D01*
X120038399Y-124254799D02*
X120063799Y-124254799D01*
X182778400Y-123494800D02*
X182018401Y-124254799D01*
X182018401Y-124254799D02*
X182005701Y-124254799D01*
X155549600Y-91084400D02*
X145288000Y-91084400D01*
X129794000Y-89916000D02*
X129494001Y-90215999D01*
X129494001Y-90215999D02*
X129494001Y-110545601D01*
X129494001Y-110545601D02*
X130454401Y-111506001D01*
X130454401Y-111506001D02*
X131216400Y-112268000D01*
X200369770Y-109093000D02*
X209042000Y-109093000D01*
X209042000Y-109093000D02*
X209211098Y-109093000D01*
X213231000Y-107571000D02*
X211709000Y-109093000D01*
X211709000Y-109093000D02*
X209042000Y-109093000D01*
X214325200Y-107571000D02*
X213231000Y-107571000D01*
X199237600Y-106883200D02*
X199237600Y-107960830D01*
X199237600Y-107960830D02*
X200369770Y-109093000D01*
X194246500Y-121983500D02*
X195770500Y-120459500D01*
X195770500Y-120459500D02*
X217233500Y-120459500D01*
X217233500Y-120459500D02*
X217297000Y-120396000D01*
X169926000Y-84709000D02*
X169926000Y-85786630D01*
X169926000Y-85786630D02*
X171007370Y-86868000D01*
X171007370Y-86868000D02*
X188595000Y-86868000D01*
X188595000Y-86868000D02*
X190398400Y-85064600D01*
X190398400Y-85064600D02*
X190398400Y-82854800D01*
X140868400Y-96113600D02*
X140868400Y-99009200D01*
X140868400Y-95453200D02*
X140868400Y-96113600D01*
X140868400Y-83769200D02*
X140868400Y-95453200D01*
X140868400Y-81991200D02*
X140868400Y-83769200D01*
X140817600Y-81940400D02*
X140868400Y-81991200D01*
X140462000Y-81584800D02*
X140817600Y-81940400D01*
X134518400Y-80314800D02*
X135788400Y-81584800D01*
X135788400Y-81584800D02*
X140462000Y-81584800D01*
X182126002Y-127762000D02*
X121005600Y-127762000D01*
X121005600Y-127762000D02*
X119278400Y-126034800D01*
X182778400Y-126034800D02*
X182778400Y-127109602D01*
X182778400Y-127109602D02*
X182126002Y-127762000D01*
D16*
G36*
X240592029Y-72290819D02*
X241197691Y-72695509D01*
X241602381Y-73301171D01*
X241758400Y-74085526D01*
X241758400Y-104324074D01*
X241602381Y-105108429D01*
X241197691Y-105714091D01*
X240592029Y-106118781D01*
X239807669Y-106274800D01*
X224688400Y-106274800D01*
X224416695Y-106328846D01*
X224186354Y-106482754D01*
X224032446Y-106713095D01*
X223978400Y-106984800D01*
X223978400Y-127812800D01*
X224032446Y-128084505D01*
X224186354Y-128314846D01*
X224416695Y-128468754D01*
X224688400Y-128522800D01*
X239807669Y-128522800D01*
X240592029Y-128678819D01*
X241197691Y-129083509D01*
X241602381Y-129689171D01*
X241758400Y-130473526D01*
X241758400Y-137390118D01*
X241552273Y-137431119D01*
X241424302Y-137484127D01*
X241296332Y-137537133D01*
X240637104Y-137977616D01*
X240441216Y-138173504D01*
X240000734Y-138832732D01*
X240000734Y-138832733D01*
X239894719Y-139088673D01*
X239740042Y-139866286D01*
X239740043Y-140004800D01*
X239740042Y-140143314D01*
X239894719Y-140920927D01*
X239947018Y-141047186D01*
X240000734Y-141176868D01*
X240441216Y-141836096D01*
X240637104Y-142031984D01*
X241296332Y-142472467D01*
X241424302Y-142525473D01*
X241552273Y-142578481D01*
X241758400Y-142619482D01*
X241758400Y-150044074D01*
X241602381Y-150828429D01*
X241197691Y-151434091D01*
X240592029Y-151838781D01*
X239807669Y-151994800D01*
X120669126Y-151994800D01*
X119884771Y-151838781D01*
X119279109Y-151434091D01*
X118874419Y-150828429D01*
X118718400Y-150044069D01*
X118718400Y-142619482D01*
X118924527Y-142578481D01*
X119105504Y-142503517D01*
X119180468Y-142472466D01*
X119839696Y-142031984D01*
X120035584Y-141836096D01*
X120476067Y-141176868D01*
X120529782Y-141047186D01*
X120582081Y-140920927D01*
X120736757Y-140143315D01*
X120736757Y-139866285D01*
X120582081Y-139088673D01*
X120529074Y-138960703D01*
X120476067Y-138832732D01*
X120035584Y-138173504D01*
X119839696Y-137977616D01*
X119180468Y-137537134D01*
X119105504Y-137506083D01*
X118924527Y-137431119D01*
X118718400Y-137390118D01*
X118718400Y-127312752D01*
X118999700Y-127429558D01*
X119488190Y-127429984D01*
X120412903Y-128354697D01*
X120684835Y-128536396D01*
X121005600Y-128600200D01*
X182126002Y-128600200D01*
X182446768Y-128536396D01*
X182718699Y-128354697D01*
X183371097Y-127702299D01*
X183552796Y-127430368D01*
X183601815Y-127183929D01*
X183960334Y-126826036D01*
X184048354Y-126614062D01*
X184135087Y-126823972D01*
X184527164Y-127216734D01*
X185039700Y-127429558D01*
X185594665Y-127430042D01*
X186107572Y-127218113D01*
X186500334Y-126826036D01*
X186588354Y-126614062D01*
X186675087Y-126823972D01*
X187067164Y-127216734D01*
X187579700Y-127429558D01*
X188134665Y-127430042D01*
X188647572Y-127218113D01*
X189040334Y-126826036D01*
X189128354Y-126614062D01*
X189215087Y-126823972D01*
X189607164Y-127216734D01*
X190119700Y-127429558D01*
X190674665Y-127430042D01*
X191187572Y-127218113D01*
X191580334Y-126826036D01*
X191668354Y-126614062D01*
X191755087Y-126823972D01*
X192147164Y-127216734D01*
X192659700Y-127429558D01*
X193214665Y-127430042D01*
X193727572Y-127218113D01*
X194120334Y-126826036D01*
X194208354Y-126614062D01*
X194295087Y-126823972D01*
X194687164Y-127216734D01*
X195199700Y-127429558D01*
X195754665Y-127430042D01*
X196267572Y-127218113D01*
X196660334Y-126826036D01*
X196748354Y-126614062D01*
X196835087Y-126823972D01*
X197227164Y-127216734D01*
X197739700Y-127429558D01*
X198294665Y-127430042D01*
X198807572Y-127218113D01*
X199200334Y-126826036D01*
X199288354Y-126614062D01*
X199375087Y-126823972D01*
X199767164Y-127216734D01*
X200279700Y-127429558D01*
X200834665Y-127430042D01*
X201347572Y-127218113D01*
X201740334Y-126826036D01*
X201828354Y-126614062D01*
X201915087Y-126823972D01*
X202307164Y-127216734D01*
X202819700Y-127429558D01*
X203374665Y-127430042D01*
X203887572Y-127218113D01*
X204280334Y-126826036D01*
X204368354Y-126614062D01*
X204455087Y-126823972D01*
X204847164Y-127216734D01*
X205359700Y-127429558D01*
X205914665Y-127430042D01*
X206427572Y-127218113D01*
X206820334Y-126826036D01*
X207033158Y-126313500D01*
X207033642Y-125758535D01*
X206821713Y-125245628D01*
X206429636Y-124852866D01*
X206217662Y-124764846D01*
X206427572Y-124678113D01*
X206820334Y-124286036D01*
X207033158Y-123773500D01*
X207033642Y-123218535D01*
X206821713Y-122705628D01*
X206429636Y-122312866D01*
X205917100Y-122100042D01*
X205362135Y-122099558D01*
X204849228Y-122311487D01*
X204456466Y-122703564D01*
X204368446Y-122915538D01*
X204281713Y-122705628D01*
X203889636Y-122312866D01*
X203377100Y-122100042D01*
X202822135Y-122099558D01*
X202309228Y-122311487D01*
X201916466Y-122703564D01*
X201828446Y-122915538D01*
X201741713Y-122705628D01*
X201349636Y-122312866D01*
X200837100Y-122100042D01*
X200282135Y-122099558D01*
X199769228Y-122311487D01*
X199376466Y-122703564D01*
X199288446Y-122915538D01*
X199201713Y-122705628D01*
X198809636Y-122312866D01*
X198297100Y-122100042D01*
X197742135Y-122099558D01*
X197229228Y-122311487D01*
X196836466Y-122703564D01*
X196748446Y-122915538D01*
X196661713Y-122705628D01*
X196269636Y-122312866D01*
X195757100Y-122100042D01*
X195315737Y-122099657D01*
X196117694Y-121297700D01*
X217030396Y-121297700D01*
X217110201Y-121330838D01*
X217482167Y-121331162D01*
X217825943Y-121189117D01*
X218089192Y-120926327D01*
X218231838Y-120582799D01*
X218232162Y-120210833D01*
X218090117Y-119867057D01*
X217827327Y-119603808D01*
X217483799Y-119461162D01*
X217111833Y-119460838D01*
X216768057Y-119602883D01*
X216749608Y-119621300D01*
X195770500Y-119621300D01*
X195449735Y-119685104D01*
X195449733Y-119685105D01*
X195449734Y-119685105D01*
X195177803Y-119866803D01*
X193950454Y-121094152D01*
X193717557Y-121190383D01*
X193454308Y-121453173D01*
X193311662Y-121796701D01*
X193311364Y-122139184D01*
X193217100Y-122100042D01*
X192662135Y-122099558D01*
X192149228Y-122311487D01*
X191756466Y-122703564D01*
X191668446Y-122915538D01*
X191581713Y-122705628D01*
X191189636Y-122312866D01*
X190677100Y-122100042D01*
X190122135Y-122099558D01*
X189609228Y-122311487D01*
X189216466Y-122703564D01*
X189128446Y-122915538D01*
X189041713Y-122705628D01*
X188649636Y-122312866D01*
X188137100Y-122100042D01*
X187582135Y-122099558D01*
X187069228Y-122311487D01*
X186676466Y-122703564D01*
X186463642Y-123216100D01*
X186463158Y-123771065D01*
X186675087Y-124283972D01*
X187067164Y-124676734D01*
X187279138Y-124764754D01*
X187069228Y-124851487D01*
X186676466Y-125243564D01*
X186588446Y-125455538D01*
X186501713Y-125245628D01*
X186109636Y-124852866D01*
X185597100Y-124640042D01*
X185042135Y-124639558D01*
X184529228Y-124851487D01*
X184136466Y-125243564D01*
X184048446Y-125455538D01*
X183961713Y-125245628D01*
X183569636Y-124852866D01*
X183357662Y-124764846D01*
X183567572Y-124678113D01*
X183960334Y-124286036D01*
X184173158Y-123773500D01*
X184173642Y-123218535D01*
X183961713Y-122705628D01*
X183569636Y-122312866D01*
X183057100Y-122100042D01*
X182502135Y-122099558D01*
X181989228Y-122311487D01*
X181596466Y-122703564D01*
X181383642Y-123216100D01*
X181383216Y-123704590D01*
X181148506Y-123939300D01*
X143464312Y-123939300D01*
X143533158Y-123773500D01*
X143533642Y-123218535D01*
X143321713Y-122705628D01*
X142929636Y-122312866D01*
X142417100Y-122100042D01*
X141862135Y-122099558D01*
X141349228Y-122311487D01*
X140956466Y-122703564D01*
X140868446Y-122915538D01*
X140781713Y-122705628D01*
X140389636Y-122312866D01*
X139877100Y-122100042D01*
X139322135Y-122099558D01*
X138809228Y-122311487D01*
X138416466Y-122703564D01*
X138328446Y-122915538D01*
X138241713Y-122705628D01*
X137849636Y-122312866D01*
X137337100Y-122100042D01*
X136782135Y-122099558D01*
X136269228Y-122311487D01*
X135876466Y-122703564D01*
X135788446Y-122915538D01*
X135701713Y-122705628D01*
X135309636Y-122312866D01*
X134797100Y-122100042D01*
X134242135Y-122099558D01*
X133729228Y-122311487D01*
X133336466Y-122703564D01*
X133248446Y-122915538D01*
X133161713Y-122705628D01*
X132769636Y-122312866D01*
X132257100Y-122100042D01*
X131702135Y-122099558D01*
X131189228Y-122311487D01*
X130796466Y-122703564D01*
X130708446Y-122915538D01*
X130621713Y-122705628D01*
X130229636Y-122312866D01*
X129717100Y-122100042D01*
X129162135Y-122099558D01*
X128649228Y-122311487D01*
X128256466Y-122703564D01*
X128168446Y-122915538D01*
X128081713Y-122705628D01*
X127689636Y-122312866D01*
X127177100Y-122100042D01*
X126622135Y-122099558D01*
X126109228Y-122311487D01*
X125716466Y-122703564D01*
X125628446Y-122915538D01*
X125541713Y-122705628D01*
X125149636Y-122312866D01*
X124637100Y-122100042D01*
X124082135Y-122099558D01*
X123569228Y-122311487D01*
X123176466Y-122703564D01*
X122963642Y-123216100D01*
X122963158Y-123771065D01*
X123032671Y-123939300D01*
X120933694Y-123939300D01*
X120673241Y-123678847D01*
X120673642Y-123218535D01*
X120461713Y-122705628D01*
X120069636Y-122312866D01*
X119557100Y-122100042D01*
X119002135Y-122099558D01*
X118718400Y-122216795D01*
X118718400Y-116545373D01*
X120219991Y-116545373D01*
X120578523Y-117413086D01*
X121241822Y-118077544D01*
X122108908Y-118437589D01*
X123047773Y-118438409D01*
X123915486Y-118079877D01*
X124579944Y-117416578D01*
X124939989Y-116549492D01*
X124940809Y-115610627D01*
X124582277Y-114742914D01*
X123918978Y-114078456D01*
X123051892Y-113718411D01*
X122113027Y-113717591D01*
X121245314Y-114076123D01*
X120580856Y-114739422D01*
X120220811Y-115606508D01*
X120219991Y-116545373D01*
X118718400Y-116545373D01*
X118718400Y-91145373D01*
X120219991Y-91145373D01*
X120578523Y-92013086D01*
X121241822Y-92677544D01*
X122108908Y-93037589D01*
X123047773Y-93038409D01*
X123915486Y-92679877D01*
X124579944Y-92016578D01*
X124939989Y-91149492D01*
X124940804Y-90215999D01*
X128655801Y-90215999D01*
X128655801Y-110545601D01*
X128719605Y-110866367D01*
X128901304Y-111138298D01*
X129819584Y-112056578D01*
X129819158Y-112544661D01*
X130031390Y-113058303D01*
X130424030Y-113451629D01*
X130631912Y-113537949D01*
X130426097Y-113622990D01*
X130032771Y-114015630D01*
X129819643Y-114528900D01*
X129819158Y-115084661D01*
X130031390Y-115598303D01*
X130424030Y-115991629D01*
X130937300Y-116204757D01*
X131493061Y-116205242D01*
X132006703Y-115993010D01*
X132400029Y-115600370D01*
X132613157Y-115087100D01*
X132613642Y-114531339D01*
X132401410Y-114017697D01*
X132008770Y-113624371D01*
X131800888Y-113538051D01*
X132006703Y-113453010D01*
X132400029Y-113060370D01*
X132613157Y-112547100D01*
X132613642Y-111991339D01*
X132401410Y-111477697D01*
X132008770Y-111084371D01*
X131495500Y-110871243D01*
X131004609Y-110870815D01*
X130332201Y-110198407D01*
X130332201Y-108279640D01*
X130424030Y-108371629D01*
X130937300Y-108584757D01*
X131493061Y-108585242D01*
X132006703Y-108373010D01*
X132400029Y-107980370D01*
X132613157Y-107467100D01*
X132613380Y-107210661D01*
X187070758Y-107210661D01*
X187282990Y-107724303D01*
X187644727Y-108086672D01*
X187693604Y-108332396D01*
X187875303Y-108604327D01*
X195433673Y-116162697D01*
X195705604Y-116344396D01*
X196026370Y-116408200D01*
X211236182Y-116408200D01*
X211631996Y-117366143D01*
X212524359Y-118260065D01*
X213690883Y-118744448D01*
X214953976Y-118745550D01*
X216121343Y-118263204D01*
X217015265Y-117370841D01*
X217499648Y-116204317D01*
X217500750Y-114941224D01*
X217018404Y-113773857D01*
X216126041Y-112879935D01*
X214959517Y-112395552D01*
X213696424Y-112394450D01*
X212529057Y-112876796D01*
X211635135Y-113769159D01*
X211235412Y-114731800D01*
X196373564Y-114731800D01*
X189509758Y-107867994D01*
X189651629Y-107726370D01*
X189864757Y-107213100D01*
X189864759Y-107210661D01*
X192150758Y-107210661D01*
X192362990Y-107724303D01*
X192755630Y-108117629D01*
X193268900Y-108330757D01*
X193824661Y-108331242D01*
X194338303Y-108119010D01*
X194731629Y-107726370D01*
X194944757Y-107213100D01*
X194944803Y-107159861D01*
X197840358Y-107159861D01*
X198052590Y-107673503D01*
X198414327Y-108035872D01*
X198463204Y-108281596D01*
X198644903Y-108553527D01*
X199777073Y-109685697D01*
X200049004Y-109867396D01*
X200369770Y-109931200D01*
X211709000Y-109931200D01*
X212029766Y-109867396D01*
X212090720Y-109826668D01*
X212524359Y-110261065D01*
X213690883Y-110745448D01*
X214953976Y-110746550D01*
X216121343Y-110264204D01*
X217015265Y-109371841D01*
X217499648Y-108205317D01*
X217500750Y-106942224D01*
X217018404Y-105774857D01*
X216126041Y-104880935D01*
X214959517Y-104396552D01*
X213696424Y-104395450D01*
X212529057Y-104877796D01*
X211635135Y-105770159D01*
X211150752Y-106936683D01*
X211149650Y-108199776D01*
X211172385Y-108254800D01*
X204656320Y-108254800D01*
X205107903Y-108068210D01*
X205501229Y-107675570D01*
X205714357Y-107162300D01*
X205714842Y-106606539D01*
X205502610Y-106092897D01*
X205109970Y-105699571D01*
X204596700Y-105486443D01*
X204040939Y-105485958D01*
X203527297Y-105698190D01*
X203133971Y-106090830D01*
X202920843Y-106604100D01*
X202920358Y-107159861D01*
X203132590Y-107673503D01*
X203525230Y-108066829D01*
X203977915Y-108254800D01*
X200716964Y-108254800D01*
X200279358Y-107817194D01*
X200421229Y-107675570D01*
X200634357Y-107162300D01*
X200634842Y-106606539D01*
X200422610Y-106092897D01*
X200029970Y-105699571D01*
X199516700Y-105486443D01*
X198960939Y-105485958D01*
X198447297Y-105698190D01*
X198053971Y-106090830D01*
X197840843Y-106604100D01*
X197840358Y-107159861D01*
X194944803Y-107159861D01*
X194945242Y-106657339D01*
X194733010Y-106143697D01*
X194340370Y-105750371D01*
X193827100Y-105537243D01*
X193271339Y-105536758D01*
X192757697Y-105748990D01*
X192364371Y-106141630D01*
X192151243Y-106654900D01*
X192150758Y-107210661D01*
X189864759Y-107210661D01*
X189865242Y-106657339D01*
X189653010Y-106143697D01*
X189260370Y-105750371D01*
X188747100Y-105537243D01*
X188191339Y-105536758D01*
X187677697Y-105748990D01*
X187284371Y-106141630D01*
X187071243Y-106654900D01*
X187070758Y-107210661D01*
X132613380Y-107210661D01*
X132613642Y-106911339D01*
X132401410Y-106397697D01*
X132008770Y-106004371D01*
X131800888Y-105918051D01*
X132006703Y-105833010D01*
X132400029Y-105440370D01*
X132613157Y-104927100D01*
X132613642Y-104371339D01*
X132401410Y-103857697D01*
X132008770Y-103464371D01*
X131800888Y-103378051D01*
X132006703Y-103293010D01*
X132400029Y-102900370D01*
X132613157Y-102387100D01*
X132613642Y-101831339D01*
X132401410Y-101317697D01*
X132008770Y-100924371D01*
X131800888Y-100838051D01*
X132006703Y-100753010D01*
X132400029Y-100360370D01*
X132613157Y-99847100D01*
X132613642Y-99291339D01*
X132401410Y-98777697D01*
X132008770Y-98384371D01*
X131800888Y-98298051D01*
X132006703Y-98213010D01*
X132400029Y-97820370D01*
X132613157Y-97307100D01*
X132613642Y-96751339D01*
X132401410Y-96237697D01*
X132008770Y-95844371D01*
X131800888Y-95758051D01*
X132006703Y-95673010D01*
X132400029Y-95280370D01*
X132613157Y-94767100D01*
X132613642Y-94211339D01*
X132401410Y-93697697D01*
X132008770Y-93304371D01*
X131800888Y-93218051D01*
X132006703Y-93133010D01*
X132400029Y-92740370D01*
X132613157Y-92227100D01*
X132613642Y-91671339D01*
X132401410Y-91157697D01*
X132008770Y-90764371D01*
X131495500Y-90551243D01*
X130939739Y-90550758D01*
X130426097Y-90762990D01*
X130332201Y-90856722D01*
X130332201Y-90699875D01*
X130586192Y-90446327D01*
X130728838Y-90102799D01*
X130729162Y-89730833D01*
X130587117Y-89387057D01*
X130324327Y-89123808D01*
X129980799Y-88981162D01*
X129608833Y-88980838D01*
X129265057Y-89122883D01*
X129001808Y-89385673D01*
X128904436Y-89620170D01*
X128901304Y-89623302D01*
X128719605Y-89895233D01*
X128719605Y-89895234D01*
X128655801Y-90215999D01*
X124940804Y-90215999D01*
X124940809Y-90210627D01*
X124582277Y-89342914D01*
X123918978Y-88678456D01*
X123051892Y-88318411D01*
X122113027Y-88317591D01*
X121245314Y-88676123D01*
X120580856Y-89339422D01*
X120220811Y-90206508D01*
X120219991Y-91145373D01*
X118718400Y-91145373D01*
X118718400Y-84132752D01*
X118999700Y-84249558D01*
X119554665Y-84250042D01*
X120067572Y-84038113D01*
X120460334Y-83646036D01*
X120548354Y-83434062D01*
X120635087Y-83643972D01*
X121027164Y-84036734D01*
X121539700Y-84249558D01*
X122094665Y-84250042D01*
X122607572Y-84038113D01*
X123000334Y-83646036D01*
X123088354Y-83434062D01*
X123175087Y-83643972D01*
X123567164Y-84036734D01*
X124079700Y-84249558D01*
X124634665Y-84250042D01*
X125147572Y-84038113D01*
X125540334Y-83646036D01*
X125628354Y-83434062D01*
X125715087Y-83643972D01*
X126107164Y-84036734D01*
X126619700Y-84249558D01*
X127174665Y-84250042D01*
X127687572Y-84038113D01*
X128080334Y-83646036D01*
X128168354Y-83434062D01*
X128255087Y-83643972D01*
X128647164Y-84036734D01*
X129159700Y-84249558D01*
X129714665Y-84250042D01*
X130227572Y-84038113D01*
X130620334Y-83646036D01*
X130708354Y-83434062D01*
X130795087Y-83643972D01*
X131187164Y-84036734D01*
X131699700Y-84249558D01*
X132254665Y-84250042D01*
X132767572Y-84038113D01*
X133160334Y-83646036D01*
X133248354Y-83434062D01*
X133335087Y-83643972D01*
X133727164Y-84036734D01*
X134239700Y-84249558D01*
X134794665Y-84250042D01*
X135307572Y-84038113D01*
X135700334Y-83646036D01*
X135788354Y-83434062D01*
X135875087Y-83643972D01*
X136267164Y-84036734D01*
X136779700Y-84249558D01*
X137334665Y-84250042D01*
X137847572Y-84038113D01*
X138240334Y-83646036D01*
X138328354Y-83434062D01*
X138415087Y-83643972D01*
X138807164Y-84036734D01*
X139319700Y-84249558D01*
X139874665Y-84250042D01*
X140030200Y-84185776D01*
X140030200Y-98589672D01*
X139933562Y-98822401D01*
X139933238Y-99194367D01*
X140075283Y-99538143D01*
X140338073Y-99801392D01*
X140681601Y-99944038D01*
X141053567Y-99944362D01*
X141397343Y-99802317D01*
X141660592Y-99539527D01*
X141803238Y-99195999D01*
X141803296Y-99129068D01*
X142053201Y-99232838D01*
X142425167Y-99233162D01*
X142768943Y-99091117D01*
X143032192Y-98828327D01*
X143174838Y-98484799D01*
X143175162Y-98112833D01*
X143078200Y-97878166D01*
X143078200Y-91269567D01*
X144352838Y-91269567D01*
X144494883Y-91613343D01*
X144757673Y-91876592D01*
X145101201Y-92019238D01*
X145473167Y-92019562D01*
X145707834Y-91922600D01*
X155130072Y-91922600D01*
X155362801Y-92019238D01*
X155734767Y-92019562D01*
X156078543Y-91877517D01*
X156341792Y-91614727D01*
X156484438Y-91271199D01*
X156484762Y-90899233D01*
X156342717Y-90555457D01*
X156079927Y-90292208D01*
X155736399Y-90149562D01*
X155364433Y-90149238D01*
X155129766Y-90246200D01*
X145707528Y-90246200D01*
X145474799Y-90149562D01*
X145102833Y-90149238D01*
X144759057Y-90291283D01*
X144495808Y-90554073D01*
X144353162Y-90897601D01*
X144352838Y-91269567D01*
X143078200Y-91269567D01*
X143078200Y-84858661D01*
X149732758Y-84858661D01*
X149944990Y-85372303D01*
X150337630Y-85765629D01*
X150850900Y-85978757D01*
X151406661Y-85979242D01*
X151920303Y-85767010D01*
X152313629Y-85374370D01*
X152475034Y-84985661D01*
X159130758Y-84985661D01*
X159342990Y-85499303D01*
X159735630Y-85892629D01*
X160248900Y-86105757D01*
X160804661Y-86106242D01*
X161318303Y-85894010D01*
X161711629Y-85501370D01*
X161924757Y-84988100D01*
X161924759Y-84985661D01*
X165988758Y-84985661D01*
X166200990Y-85499303D01*
X166593630Y-85892629D01*
X167106900Y-86105757D01*
X167662661Y-86106242D01*
X168176303Y-85894010D01*
X168569629Y-85501370D01*
X168655949Y-85293488D01*
X168740990Y-85499303D01*
X169102727Y-85861672D01*
X169151604Y-86107396D01*
X169333303Y-86379327D01*
X170414673Y-87460697D01*
X170686604Y-87642396D01*
X171007370Y-87706200D01*
X188595000Y-87706200D01*
X188915766Y-87642396D01*
X189187697Y-87460697D01*
X190991097Y-85657297D01*
X191172796Y-85385365D01*
X191236600Y-85064600D01*
X191236600Y-84858661D01*
X213232758Y-84858661D01*
X213444990Y-85372303D01*
X213837630Y-85765629D01*
X214350900Y-85978757D01*
X214906661Y-85979242D01*
X215420303Y-85767010D01*
X215813629Y-85374370D01*
X215899949Y-85166488D01*
X215984990Y-85372303D01*
X216377630Y-85765629D01*
X216890900Y-85978757D01*
X217446661Y-85979242D01*
X217960303Y-85767010D01*
X218353629Y-85374370D01*
X218566757Y-84861100D01*
X218566759Y-84858661D01*
X230631758Y-84858661D01*
X230843990Y-85372303D01*
X231236630Y-85765629D01*
X231749900Y-85978757D01*
X232305661Y-85979242D01*
X232819303Y-85767010D01*
X233212629Y-85374370D01*
X233425757Y-84861100D01*
X233426242Y-84305339D01*
X233214010Y-83791697D01*
X232821370Y-83398371D01*
X232308100Y-83185243D01*
X231752339Y-83184758D01*
X231238697Y-83396990D01*
X230845371Y-83789630D01*
X230632243Y-84302900D01*
X230631758Y-84858661D01*
X218566759Y-84858661D01*
X218567242Y-84305339D01*
X218355010Y-83791697D01*
X217962370Y-83398371D01*
X217449100Y-83185243D01*
X216893339Y-83184758D01*
X216379697Y-83396990D01*
X215986371Y-83789630D01*
X215900051Y-83997512D01*
X215815010Y-83791697D01*
X215422370Y-83398371D01*
X214909100Y-83185243D01*
X214353339Y-83184758D01*
X213839697Y-83396990D01*
X213446371Y-83789630D01*
X213233243Y-84302900D01*
X213232758Y-84858661D01*
X191236600Y-84858661D01*
X191236600Y-83989171D01*
X191580334Y-83646036D01*
X191668354Y-83434062D01*
X191755087Y-83643972D01*
X192147164Y-84036734D01*
X192659700Y-84249558D01*
X193214665Y-84250042D01*
X193727572Y-84038113D01*
X194120334Y-83646036D01*
X194208354Y-83434062D01*
X194295087Y-83643972D01*
X194687164Y-84036734D01*
X195199700Y-84249558D01*
X195754665Y-84250042D01*
X196267572Y-84038113D01*
X196660334Y-83646036D01*
X196748354Y-83434062D01*
X196835087Y-83643972D01*
X197227164Y-84036734D01*
X197739700Y-84249558D01*
X198294665Y-84250042D01*
X198807572Y-84038113D01*
X199200334Y-83646036D01*
X199288354Y-83434062D01*
X199375087Y-83643972D01*
X199767164Y-84036734D01*
X200279700Y-84249558D01*
X200834665Y-84250042D01*
X201347572Y-84038113D01*
X201740334Y-83646036D01*
X201828354Y-83434062D01*
X201915087Y-83643972D01*
X202307164Y-84036734D01*
X202819700Y-84249558D01*
X203374665Y-84250042D01*
X203887572Y-84038113D01*
X204280334Y-83646036D01*
X204368354Y-83434062D01*
X204455087Y-83643972D01*
X204847164Y-84036734D01*
X205359700Y-84249558D01*
X205914665Y-84250042D01*
X206427572Y-84038113D01*
X206820334Y-83646036D01*
X207033158Y-83133500D01*
X207033642Y-82578535D01*
X206821713Y-82065628D01*
X206429636Y-81672866D01*
X206217662Y-81584846D01*
X206427572Y-81498113D01*
X206820334Y-81106036D01*
X207033158Y-80593500D01*
X207033642Y-80038535D01*
X206821713Y-79525628D01*
X206429636Y-79132866D01*
X205917100Y-78920042D01*
X205362135Y-78919558D01*
X204849228Y-79131487D01*
X204456466Y-79523564D01*
X204368446Y-79735538D01*
X204281713Y-79525628D01*
X203889636Y-79132866D01*
X203377100Y-78920042D01*
X202822135Y-78919558D01*
X202309228Y-79131487D01*
X201916466Y-79523564D01*
X201828446Y-79735538D01*
X201741713Y-79525628D01*
X201349636Y-79132866D01*
X200837100Y-78920042D01*
X200282135Y-78919558D01*
X199769228Y-79131487D01*
X199376466Y-79523564D01*
X199288446Y-79735538D01*
X199201713Y-79525628D01*
X198809636Y-79132866D01*
X198297100Y-78920042D01*
X197742135Y-78919558D01*
X197229228Y-79131487D01*
X196836466Y-79523564D01*
X196748446Y-79735538D01*
X196661713Y-79525628D01*
X196269636Y-79132866D01*
X195757100Y-78920042D01*
X195202135Y-78919558D01*
X194689228Y-79131487D01*
X194296466Y-79523564D01*
X194208446Y-79735538D01*
X194121713Y-79525628D01*
X193729636Y-79132866D01*
X193217100Y-78920042D01*
X192662135Y-78919558D01*
X192149228Y-79131487D01*
X191756466Y-79523564D01*
X191668446Y-79735538D01*
X191581713Y-79525628D01*
X191189636Y-79132866D01*
X190677100Y-78920042D01*
X190122135Y-78919558D01*
X189609228Y-79131487D01*
X189216466Y-79523564D01*
X189128446Y-79735538D01*
X189041713Y-79525628D01*
X188649636Y-79132866D01*
X188137100Y-78920042D01*
X187582135Y-78919558D01*
X187069228Y-79131487D01*
X186676466Y-79523564D01*
X186588446Y-79735538D01*
X186501713Y-79525628D01*
X186109636Y-79132866D01*
X185597100Y-78920042D01*
X185042135Y-78919558D01*
X184529228Y-79131487D01*
X184136466Y-79523564D01*
X183923642Y-80036100D01*
X183923158Y-80591065D01*
X184135087Y-81103972D01*
X184527164Y-81496734D01*
X184739138Y-81584754D01*
X184529228Y-81671487D01*
X184136466Y-82063564D01*
X184048446Y-82275538D01*
X183961713Y-82065628D01*
X183569636Y-81672866D01*
X183057100Y-81460042D01*
X182502135Y-81459558D01*
X181989228Y-81671487D01*
X181596466Y-82063564D01*
X181383642Y-82576100D01*
X181383158Y-83131065D01*
X181595087Y-83643972D01*
X181987164Y-84036734D01*
X182499700Y-84249558D01*
X183054665Y-84250042D01*
X183567572Y-84038113D01*
X183960334Y-83646036D01*
X184048354Y-83434062D01*
X184135087Y-83643972D01*
X184527164Y-84036734D01*
X185039700Y-84249558D01*
X185594665Y-84250042D01*
X186107572Y-84038113D01*
X186500334Y-83646036D01*
X186588354Y-83434062D01*
X186675087Y-83643972D01*
X187067164Y-84036734D01*
X187579700Y-84249558D01*
X188134665Y-84250042D01*
X188647572Y-84038113D01*
X189040334Y-83646036D01*
X189128354Y-83434062D01*
X189215087Y-83643972D01*
X189560200Y-83989688D01*
X189560200Y-84717406D01*
X188247806Y-86029800D01*
X175467665Y-86029800D01*
X175796303Y-85894010D01*
X176189629Y-85501370D01*
X176402757Y-84988100D01*
X176403242Y-84432339D01*
X176191010Y-83918697D01*
X175798370Y-83525371D01*
X175285100Y-83312243D01*
X174729339Y-83311758D01*
X174215697Y-83523990D01*
X173822371Y-83916630D01*
X173736051Y-84124512D01*
X173651010Y-83918697D01*
X173258370Y-83525371D01*
X172745100Y-83312243D01*
X172189339Y-83311758D01*
X171675697Y-83523990D01*
X171282371Y-83916630D01*
X171196051Y-84124512D01*
X171111010Y-83918697D01*
X170718370Y-83525371D01*
X170205100Y-83312243D01*
X169649339Y-83311758D01*
X169135697Y-83523990D01*
X168742371Y-83916630D01*
X168656051Y-84124512D01*
X168571010Y-83918697D01*
X168178370Y-83525371D01*
X167665100Y-83312243D01*
X167109339Y-83311758D01*
X166595697Y-83523990D01*
X166202371Y-83916630D01*
X165989243Y-84429900D01*
X165988758Y-84985661D01*
X161924759Y-84985661D01*
X161925242Y-84432339D01*
X161713010Y-83918697D01*
X161320370Y-83525371D01*
X160807100Y-83312243D01*
X160251339Y-83311758D01*
X159737697Y-83523990D01*
X159344371Y-83916630D01*
X159131243Y-84429900D01*
X159130758Y-84985661D01*
X152475034Y-84985661D01*
X152526757Y-84861100D01*
X152527242Y-84305339D01*
X152315010Y-83791697D01*
X151922370Y-83398371D01*
X151409100Y-83185243D01*
X150853339Y-83184758D01*
X150339697Y-83396990D01*
X149946371Y-83789630D01*
X149733243Y-84302900D01*
X149732758Y-84858661D01*
X143078200Y-84858661D01*
X143078200Y-83887748D01*
X143320334Y-83646036D01*
X143533158Y-83133500D01*
X143533642Y-82578535D01*
X143321713Y-82065628D01*
X142929636Y-81672866D01*
X142717662Y-81584846D01*
X142927572Y-81498113D01*
X143320334Y-81106036D01*
X143533158Y-80593500D01*
X143533642Y-80038535D01*
X143321713Y-79525628D01*
X142929636Y-79132866D01*
X142417100Y-78920042D01*
X141862135Y-78919558D01*
X141349228Y-79131487D01*
X140956466Y-79523564D01*
X140868446Y-79735538D01*
X140781713Y-79525628D01*
X140389636Y-79132866D01*
X139877100Y-78920042D01*
X139322135Y-78919558D01*
X138809228Y-79131487D01*
X138416466Y-79523564D01*
X138328446Y-79735538D01*
X138241713Y-79525628D01*
X137849636Y-79132866D01*
X137337100Y-78920042D01*
X136782135Y-78919558D01*
X136269228Y-79131487D01*
X135876466Y-79523564D01*
X135788446Y-79735538D01*
X135701713Y-79525628D01*
X135309636Y-79132866D01*
X134797100Y-78920042D01*
X134242135Y-78919558D01*
X133729228Y-79131487D01*
X133336466Y-79523564D01*
X133248446Y-79735538D01*
X133161713Y-79525628D01*
X132769636Y-79132866D01*
X132257100Y-78920042D01*
X131702135Y-78919558D01*
X131189228Y-79131487D01*
X130796466Y-79523564D01*
X130708446Y-79735538D01*
X130621713Y-79525628D01*
X130229636Y-79132866D01*
X129717100Y-78920042D01*
X129162135Y-78919558D01*
X128649228Y-79131487D01*
X128256466Y-79523564D01*
X128168446Y-79735538D01*
X128081713Y-79525628D01*
X127689636Y-79132866D01*
X127177100Y-78920042D01*
X126622135Y-78919558D01*
X126109228Y-79131487D01*
X125716466Y-79523564D01*
X125628446Y-79735538D01*
X125541713Y-79525628D01*
X125149636Y-79132866D01*
X124637100Y-78920042D01*
X124082135Y-78919558D01*
X123569228Y-79131487D01*
X123176466Y-79523564D01*
X123088446Y-79735538D01*
X123001713Y-79525628D01*
X122609636Y-79132866D01*
X122097100Y-78920042D01*
X121542135Y-78919558D01*
X121029228Y-79131487D01*
X120636466Y-79523564D01*
X120423642Y-80036100D01*
X120423158Y-80591065D01*
X120635087Y-81103972D01*
X121027164Y-81496734D01*
X121239138Y-81584754D01*
X121029228Y-81671487D01*
X120636466Y-82063564D01*
X120548446Y-82275538D01*
X120461713Y-82065628D01*
X120069636Y-81672866D01*
X119557100Y-81460042D01*
X119002135Y-81459558D01*
X118718400Y-81576795D01*
X118718400Y-76409373D01*
X145084591Y-76409373D01*
X145443123Y-77277086D01*
X146106422Y-77941544D01*
X146973508Y-78301589D01*
X147912373Y-78302409D01*
X148780086Y-77943877D01*
X149444544Y-77280578D01*
X149804589Y-76413492D01*
X149804589Y-76413373D01*
X149912591Y-76413373D01*
X150271123Y-77281086D01*
X150934422Y-77945544D01*
X151801508Y-78305589D01*
X152740373Y-78306409D01*
X153608086Y-77947877D01*
X154272544Y-77284578D01*
X154532784Y-76657849D01*
X154841123Y-77404086D01*
X155504422Y-78068544D01*
X156371508Y-78428589D01*
X157310373Y-78429409D01*
X158178086Y-78070877D01*
X158842544Y-77407578D01*
X159202589Y-76540492D01*
X159202589Y-76540373D01*
X159310591Y-76540373D01*
X159669123Y-77408086D01*
X160332422Y-78072544D01*
X161199508Y-78432589D01*
X162138373Y-78433409D01*
X163006086Y-78074877D01*
X163670544Y-77411578D01*
X163893604Y-76874389D01*
X164114123Y-77408086D01*
X164777422Y-78072544D01*
X165644508Y-78432589D01*
X166583373Y-78433409D01*
X167451086Y-78074877D01*
X168115544Y-77411578D01*
X168475589Y-76544492D01*
X168475592Y-76540373D01*
X176455591Y-76540373D01*
X176814123Y-77408086D01*
X177477422Y-78072544D01*
X178344508Y-78432589D01*
X179283373Y-78433409D01*
X180151086Y-78074877D01*
X180815544Y-77411578D01*
X181175589Y-76544492D01*
X181175707Y-76409373D01*
X211124591Y-76409373D01*
X211483123Y-77277086D01*
X212146422Y-77941544D01*
X213013508Y-78301589D01*
X213952373Y-78302409D01*
X214820086Y-77943877D01*
X215484544Y-77280578D01*
X215844589Y-76413492D01*
X215844589Y-76413373D01*
X215952591Y-76413373D01*
X216311123Y-77281086D01*
X216974422Y-77945544D01*
X217841508Y-78305589D01*
X218780373Y-78306409D01*
X219648086Y-77947877D01*
X220312544Y-77284578D01*
X220672589Y-76417492D01*
X220672596Y-76409373D01*
X228523591Y-76409373D01*
X228882123Y-77277086D01*
X229545422Y-77941544D01*
X230412508Y-78301589D01*
X231351373Y-78302409D01*
X232219086Y-77943877D01*
X232883544Y-77280578D01*
X233243589Y-76413492D01*
X233243589Y-76413373D01*
X233351591Y-76413373D01*
X233710123Y-77281086D01*
X234373422Y-77945544D01*
X235240508Y-78305589D01*
X236179373Y-78306409D01*
X237047086Y-77947877D01*
X237711544Y-77284578D01*
X238071589Y-76417492D01*
X238072409Y-75478627D01*
X237713877Y-74610914D01*
X237050578Y-73946456D01*
X236183492Y-73586411D01*
X235244627Y-73585591D01*
X234376914Y-73944123D01*
X233712456Y-74607422D01*
X233352411Y-75474508D01*
X233351591Y-76413373D01*
X233243589Y-76413373D01*
X233244409Y-75474627D01*
X232885877Y-74606914D01*
X232222578Y-73942456D01*
X231355492Y-73582411D01*
X230416627Y-73581591D01*
X229548914Y-73940123D01*
X228884456Y-74603422D01*
X228524411Y-75470508D01*
X228523591Y-76409373D01*
X220672596Y-76409373D01*
X220673409Y-75478627D01*
X220314877Y-74610914D01*
X219651578Y-73946456D01*
X218784492Y-73586411D01*
X217845627Y-73585591D01*
X216977914Y-73944123D01*
X216313456Y-74607422D01*
X215953411Y-75474508D01*
X215952591Y-76413373D01*
X215844589Y-76413373D01*
X215845409Y-75474627D01*
X215486877Y-74606914D01*
X214823578Y-73942456D01*
X213956492Y-73582411D01*
X213017627Y-73581591D01*
X212149914Y-73940123D01*
X211485456Y-74603422D01*
X211125411Y-75470508D01*
X211124591Y-76409373D01*
X181175707Y-76409373D01*
X181176409Y-75605627D01*
X180817877Y-74737914D01*
X180154578Y-74073456D01*
X179287492Y-73713411D01*
X178348627Y-73712591D01*
X177480914Y-74071123D01*
X176816456Y-74734422D01*
X176456411Y-75601508D01*
X176455591Y-76540373D01*
X168475592Y-76540373D01*
X168476409Y-75605627D01*
X168117877Y-74737914D01*
X167454578Y-74073456D01*
X166587492Y-73713411D01*
X165648627Y-73712591D01*
X164780914Y-74071123D01*
X164116456Y-74734422D01*
X163893396Y-75271611D01*
X163672877Y-74737914D01*
X163009578Y-74073456D01*
X162142492Y-73713411D01*
X161203627Y-73712591D01*
X160335914Y-74071123D01*
X159671456Y-74734422D01*
X159311411Y-75601508D01*
X159310591Y-76540373D01*
X159202589Y-76540373D01*
X159203409Y-75601627D01*
X158844877Y-74733914D01*
X158181578Y-74069456D01*
X157314492Y-73709411D01*
X156375627Y-73708591D01*
X155507914Y-74067123D01*
X154843456Y-74730422D01*
X154583216Y-75357151D01*
X154274877Y-74610914D01*
X153611578Y-73946456D01*
X152744492Y-73586411D01*
X151805627Y-73585591D01*
X150937914Y-73944123D01*
X150273456Y-74607422D01*
X149913411Y-75474508D01*
X149912591Y-76413373D01*
X149804589Y-76413373D01*
X149805409Y-75474627D01*
X149446877Y-74606914D01*
X148783578Y-73942456D01*
X147916492Y-73582411D01*
X146977627Y-73581591D01*
X146109914Y-73940123D01*
X145445456Y-74603422D01*
X145085411Y-75470508D01*
X145084591Y-76409373D01*
X118718400Y-76409373D01*
X118718400Y-74085531D01*
X118874419Y-73301171D01*
X119279109Y-72695509D01*
X119884771Y-72290819D01*
X120669126Y-72134800D01*
X239807669Y-72134800D01*
X240592029Y-72290819D01*
X240592029Y-72290819D01*
G37*
X240592029Y-72290819D02*
X241197691Y-72695509D01*
X241602381Y-73301171D01*
X241758400Y-74085526D01*
X241758400Y-104324074D01*
X241602381Y-105108429D01*
X241197691Y-105714091D01*
X240592029Y-106118781D01*
X239807669Y-106274800D01*
X224688400Y-106274800D01*
X224416695Y-106328846D01*
X224186354Y-106482754D01*
X224032446Y-106713095D01*
X223978400Y-106984800D01*
X223978400Y-127812800D01*
X224032446Y-128084505D01*
X224186354Y-128314846D01*
X224416695Y-128468754D01*
X224688400Y-128522800D01*
X239807669Y-128522800D01*
X240592029Y-128678819D01*
X241197691Y-129083509D01*
X241602381Y-129689171D01*
X241758400Y-130473526D01*
X241758400Y-137390118D01*
X241552273Y-137431119D01*
X241424302Y-137484127D01*
X241296332Y-137537133D01*
X240637104Y-137977616D01*
X240441216Y-138173504D01*
X240000734Y-138832732D01*
X240000734Y-138832733D01*
X239894719Y-139088673D01*
X239740042Y-139866286D01*
X239740043Y-140004800D01*
X239740042Y-140143314D01*
X239894719Y-140920927D01*
X239947018Y-141047186D01*
X240000734Y-141176868D01*
X240441216Y-141836096D01*
X240637104Y-142031984D01*
X241296332Y-142472467D01*
X241424302Y-142525473D01*
X241552273Y-142578481D01*
X241758400Y-142619482D01*
X241758400Y-150044074D01*
X241602381Y-150828429D01*
X241197691Y-151434091D01*
X240592029Y-151838781D01*
X239807669Y-151994800D01*
X120669126Y-151994800D01*
X119884771Y-151838781D01*
X119279109Y-151434091D01*
X118874419Y-150828429D01*
X118718400Y-150044069D01*
X118718400Y-142619482D01*
X118924527Y-142578481D01*
X119105504Y-142503517D01*
X119180468Y-142472466D01*
X119839696Y-142031984D01*
X120035584Y-141836096D01*
X120476067Y-141176868D01*
X120529782Y-141047186D01*
X120582081Y-140920927D01*
X120736757Y-140143315D01*
X120736757Y-139866285D01*
X120582081Y-139088673D01*
X120529074Y-138960703D01*
X120476067Y-138832732D01*
X120035584Y-138173504D01*
X119839696Y-137977616D01*
X119180468Y-137537134D01*
X119105504Y-137506083D01*
X118924527Y-137431119D01*
X118718400Y-137390118D01*
X118718400Y-127312752D01*
X118999700Y-127429558D01*
X119488190Y-127429984D01*
X120412903Y-128354697D01*
X120684835Y-128536396D01*
X121005600Y-128600200D01*
X182126002Y-128600200D01*
X182446768Y-128536396D01*
X182718699Y-128354697D01*
X183371097Y-127702299D01*
X183552796Y-127430368D01*
X183601815Y-127183929D01*
X183960334Y-126826036D01*
X184048354Y-126614062D01*
X184135087Y-126823972D01*
X184527164Y-127216734D01*
X185039700Y-127429558D01*
X185594665Y-127430042D01*
X186107572Y-127218113D01*
X186500334Y-126826036D01*
X186588354Y-126614062D01*
X186675087Y-126823972D01*
X187067164Y-127216734D01*
X187579700Y-127429558D01*
X188134665Y-127430042D01*
X188647572Y-127218113D01*
X189040334Y-126826036D01*
X189128354Y-126614062D01*
X189215087Y-126823972D01*
X189607164Y-127216734D01*
X190119700Y-127429558D01*
X190674665Y-127430042D01*
X191187572Y-127218113D01*
X191580334Y-126826036D01*
X191668354Y-126614062D01*
X191755087Y-126823972D01*
X192147164Y-127216734D01*
X192659700Y-127429558D01*
X193214665Y-127430042D01*
X193727572Y-127218113D01*
X194120334Y-126826036D01*
X194208354Y-126614062D01*
X194295087Y-126823972D01*
X194687164Y-127216734D01*
X195199700Y-127429558D01*
X195754665Y-127430042D01*
X196267572Y-127218113D01*
X196660334Y-126826036D01*
X196748354Y-126614062D01*
X196835087Y-126823972D01*
X197227164Y-127216734D01*
X197739700Y-127429558D01*
X198294665Y-127430042D01*
X198807572Y-127218113D01*
X199200334Y-126826036D01*
X199288354Y-126614062D01*
X199375087Y-126823972D01*
X199767164Y-127216734D01*
X200279700Y-127429558D01*
X200834665Y-127430042D01*
X201347572Y-127218113D01*
X201740334Y-126826036D01*
X201828354Y-126614062D01*
X201915087Y-126823972D01*
X202307164Y-127216734D01*
X202819700Y-127429558D01*
X203374665Y-127430042D01*
X203887572Y-127218113D01*
X204280334Y-126826036D01*
X204368354Y-126614062D01*
X204455087Y-126823972D01*
X204847164Y-127216734D01*
X205359700Y-127429558D01*
X205914665Y-127430042D01*
X206427572Y-127218113D01*
X206820334Y-126826036D01*
X207033158Y-126313500D01*
X207033642Y-125758535D01*
X206821713Y-125245628D01*
X206429636Y-124852866D01*
X206217662Y-124764846D01*
X206427572Y-124678113D01*
X206820334Y-124286036D01*
X207033158Y-123773500D01*
X207033642Y-123218535D01*
X206821713Y-122705628D01*
X206429636Y-122312866D01*
X205917100Y-122100042D01*
X205362135Y-122099558D01*
X204849228Y-122311487D01*
X204456466Y-122703564D01*
X204368446Y-122915538D01*
X204281713Y-122705628D01*
X203889636Y-122312866D01*
X203377100Y-122100042D01*
X202822135Y-122099558D01*
X202309228Y-122311487D01*
X201916466Y-122703564D01*
X201828446Y-122915538D01*
X201741713Y-122705628D01*
X201349636Y-122312866D01*
X200837100Y-122100042D01*
X200282135Y-122099558D01*
X199769228Y-122311487D01*
X199376466Y-122703564D01*
X199288446Y-122915538D01*
X199201713Y-122705628D01*
X198809636Y-122312866D01*
X198297100Y-122100042D01*
X197742135Y-122099558D01*
X197229228Y-122311487D01*
X196836466Y-122703564D01*
X196748446Y-122915538D01*
X196661713Y-122705628D01*
X196269636Y-122312866D01*
X195757100Y-122100042D01*
X195315737Y-122099657D01*
X196117694Y-121297700D01*
X217030396Y-121297700D01*
X217110201Y-121330838D01*
X217482167Y-121331162D01*
X217825943Y-121189117D01*
X218089192Y-120926327D01*
X218231838Y-120582799D01*
X218232162Y-120210833D01*
X218090117Y-119867057D01*
X217827327Y-119603808D01*
X217483799Y-119461162D01*
X217111833Y-119460838D01*
X216768057Y-119602883D01*
X216749608Y-119621300D01*
X195770500Y-119621300D01*
X195449735Y-119685104D01*
X195449733Y-119685105D01*
X195449734Y-119685105D01*
X195177803Y-119866803D01*
X193950454Y-121094152D01*
X193717557Y-121190383D01*
X193454308Y-121453173D01*
X193311662Y-121796701D01*
X193311364Y-122139184D01*
X193217100Y-122100042D01*
X192662135Y-122099558D01*
X192149228Y-122311487D01*
X191756466Y-122703564D01*
X191668446Y-122915538D01*
X191581713Y-122705628D01*
X191189636Y-122312866D01*
X190677100Y-122100042D01*
X190122135Y-122099558D01*
X189609228Y-122311487D01*
X189216466Y-122703564D01*
X189128446Y-122915538D01*
X189041713Y-122705628D01*
X188649636Y-122312866D01*
X188137100Y-122100042D01*
X187582135Y-122099558D01*
X187069228Y-122311487D01*
X186676466Y-122703564D01*
X186463642Y-123216100D01*
X186463158Y-123771065D01*
X186675087Y-124283972D01*
X187067164Y-124676734D01*
X187279138Y-124764754D01*
X187069228Y-124851487D01*
X186676466Y-125243564D01*
X186588446Y-125455538D01*
X186501713Y-125245628D01*
X186109636Y-124852866D01*
X185597100Y-124640042D01*
X185042135Y-124639558D01*
X184529228Y-124851487D01*
X184136466Y-125243564D01*
X184048446Y-125455538D01*
X183961713Y-125245628D01*
X183569636Y-124852866D01*
X183357662Y-124764846D01*
X183567572Y-124678113D01*
X183960334Y-124286036D01*
X184173158Y-123773500D01*
X184173642Y-123218535D01*
X183961713Y-122705628D01*
X183569636Y-122312866D01*
X183057100Y-122100042D01*
X182502135Y-122099558D01*
X181989228Y-122311487D01*
X181596466Y-122703564D01*
X181383642Y-123216100D01*
X181383216Y-123704590D01*
X181148506Y-123939300D01*
X143464312Y-123939300D01*
X143533158Y-123773500D01*
X143533642Y-123218535D01*
X143321713Y-122705628D01*
X142929636Y-122312866D01*
X142417100Y-122100042D01*
X141862135Y-122099558D01*
X141349228Y-122311487D01*
X140956466Y-122703564D01*
X140868446Y-122915538D01*
X140781713Y-122705628D01*
X140389636Y-122312866D01*
X139877100Y-122100042D01*
X139322135Y-122099558D01*
X138809228Y-122311487D01*
X138416466Y-122703564D01*
X138328446Y-122915538D01*
X138241713Y-122705628D01*
X137849636Y-122312866D01*
X137337100Y-122100042D01*
X136782135Y-122099558D01*
X136269228Y-122311487D01*
X135876466Y-122703564D01*
X135788446Y-122915538D01*
X135701713Y-122705628D01*
X135309636Y-122312866D01*
X134797100Y-122100042D01*
X134242135Y-122099558D01*
X133729228Y-122311487D01*
X133336466Y-122703564D01*
X133248446Y-122915538D01*
X133161713Y-122705628D01*
X132769636Y-122312866D01*
X132257100Y-122100042D01*
X131702135Y-122099558D01*
X131189228Y-122311487D01*
X130796466Y-122703564D01*
X130708446Y-122915538D01*
X130621713Y-122705628D01*
X130229636Y-122312866D01*
X129717100Y-122100042D01*
X129162135Y-122099558D01*
X128649228Y-122311487D01*
X128256466Y-122703564D01*
X128168446Y-122915538D01*
X128081713Y-122705628D01*
X127689636Y-122312866D01*
X127177100Y-122100042D01*
X126622135Y-122099558D01*
X126109228Y-122311487D01*
X125716466Y-122703564D01*
X125628446Y-122915538D01*
X125541713Y-122705628D01*
X125149636Y-122312866D01*
X124637100Y-122100042D01*
X124082135Y-122099558D01*
X123569228Y-122311487D01*
X123176466Y-122703564D01*
X122963642Y-123216100D01*
X122963158Y-123771065D01*
X123032671Y-123939300D01*
X120933694Y-123939300D01*
X120673241Y-123678847D01*
X120673642Y-123218535D01*
X120461713Y-122705628D01*
X120069636Y-122312866D01*
X119557100Y-122100042D01*
X119002135Y-122099558D01*
X118718400Y-122216795D01*
X118718400Y-116545373D01*
X120219991Y-116545373D01*
X120578523Y-117413086D01*
X121241822Y-118077544D01*
X122108908Y-118437589D01*
X123047773Y-118438409D01*
X123915486Y-118079877D01*
X124579944Y-117416578D01*
X124939989Y-116549492D01*
X124940809Y-115610627D01*
X124582277Y-114742914D01*
X123918978Y-114078456D01*
X123051892Y-113718411D01*
X122113027Y-113717591D01*
X121245314Y-114076123D01*
X120580856Y-114739422D01*
X120220811Y-115606508D01*
X120219991Y-116545373D01*
X118718400Y-116545373D01*
X118718400Y-91145373D01*
X120219991Y-91145373D01*
X120578523Y-92013086D01*
X121241822Y-92677544D01*
X122108908Y-93037589D01*
X123047773Y-93038409D01*
X123915486Y-92679877D01*
X124579944Y-92016578D01*
X124939989Y-91149492D01*
X124940804Y-90215999D01*
X128655801Y-90215999D01*
X128655801Y-110545601D01*
X128719605Y-110866367D01*
X128901304Y-111138298D01*
X129819584Y-112056578D01*
X129819158Y-112544661D01*
X130031390Y-113058303D01*
X130424030Y-113451629D01*
X130631912Y-113537949D01*
X130426097Y-113622990D01*
X130032771Y-114015630D01*
X129819643Y-114528900D01*
X129819158Y-115084661D01*
X130031390Y-115598303D01*
X130424030Y-115991629D01*
X130937300Y-116204757D01*
X131493061Y-116205242D01*
X132006703Y-115993010D01*
X132400029Y-115600370D01*
X132613157Y-115087100D01*
X132613642Y-114531339D01*
X132401410Y-114017697D01*
X132008770Y-113624371D01*
X131800888Y-113538051D01*
X132006703Y-113453010D01*
X132400029Y-113060370D01*
X132613157Y-112547100D01*
X132613642Y-111991339D01*
X132401410Y-111477697D01*
X132008770Y-111084371D01*
X131495500Y-110871243D01*
X131004609Y-110870815D01*
X130332201Y-110198407D01*
X130332201Y-108279640D01*
X130424030Y-108371629D01*
X130937300Y-108584757D01*
X131493061Y-108585242D01*
X132006703Y-108373010D01*
X132400029Y-107980370D01*
X132613157Y-107467100D01*
X132613380Y-107210661D01*
X187070758Y-107210661D01*
X187282990Y-107724303D01*
X187644727Y-108086672D01*
X187693604Y-108332396D01*
X187875303Y-108604327D01*
X195433673Y-116162697D01*
X195705604Y-116344396D01*
X196026370Y-116408200D01*
X211236182Y-116408200D01*
X211631996Y-117366143D01*
X212524359Y-118260065D01*
X213690883Y-118744448D01*
X214953976Y-118745550D01*
X216121343Y-118263204D01*
X217015265Y-117370841D01*
X217499648Y-116204317D01*
X217500750Y-114941224D01*
X217018404Y-113773857D01*
X216126041Y-112879935D01*
X214959517Y-112395552D01*
X213696424Y-112394450D01*
X212529057Y-112876796D01*
X211635135Y-113769159D01*
X211235412Y-114731800D01*
X196373564Y-114731800D01*
X189509758Y-107867994D01*
X189651629Y-107726370D01*
X189864757Y-107213100D01*
X189864759Y-107210661D01*
X192150758Y-107210661D01*
X192362990Y-107724303D01*
X192755630Y-108117629D01*
X193268900Y-108330757D01*
X193824661Y-108331242D01*
X194338303Y-108119010D01*
X194731629Y-107726370D01*
X194944757Y-107213100D01*
X194944803Y-107159861D01*
X197840358Y-107159861D01*
X198052590Y-107673503D01*
X198414327Y-108035872D01*
X198463204Y-108281596D01*
X198644903Y-108553527D01*
X199777073Y-109685697D01*
X200049004Y-109867396D01*
X200369770Y-109931200D01*
X211709000Y-109931200D01*
X212029766Y-109867396D01*
X212090720Y-109826668D01*
X212524359Y-110261065D01*
X213690883Y-110745448D01*
X214953976Y-110746550D01*
X216121343Y-110264204D01*
X217015265Y-109371841D01*
X217499648Y-108205317D01*
X217500750Y-106942224D01*
X217018404Y-105774857D01*
X216126041Y-104880935D01*
X214959517Y-104396552D01*
X213696424Y-104395450D01*
X212529057Y-104877796D01*
X211635135Y-105770159D01*
X211150752Y-106936683D01*
X211149650Y-108199776D01*
X211172385Y-108254800D01*
X204656320Y-108254800D01*
X205107903Y-108068210D01*
X205501229Y-107675570D01*
X205714357Y-107162300D01*
X205714842Y-106606539D01*
X205502610Y-106092897D01*
X205109970Y-105699571D01*
X204596700Y-105486443D01*
X204040939Y-105485958D01*
X203527297Y-105698190D01*
X203133971Y-106090830D01*
X202920843Y-106604100D01*
X202920358Y-107159861D01*
X203132590Y-107673503D01*
X203525230Y-108066829D01*
X203977915Y-108254800D01*
X200716964Y-108254800D01*
X200279358Y-107817194D01*
X200421229Y-107675570D01*
X200634357Y-107162300D01*
X200634842Y-106606539D01*
X200422610Y-106092897D01*
X200029970Y-105699571D01*
X199516700Y-105486443D01*
X198960939Y-105485958D01*
X198447297Y-105698190D01*
X198053971Y-106090830D01*
X197840843Y-106604100D01*
X197840358Y-107159861D01*
X194944803Y-107159861D01*
X194945242Y-106657339D01*
X194733010Y-106143697D01*
X194340370Y-105750371D01*
X193827100Y-105537243D01*
X193271339Y-105536758D01*
X192757697Y-105748990D01*
X192364371Y-106141630D01*
X192151243Y-106654900D01*
X192150758Y-107210661D01*
X189864759Y-107210661D01*
X189865242Y-106657339D01*
X189653010Y-106143697D01*
X189260370Y-105750371D01*
X188747100Y-105537243D01*
X188191339Y-105536758D01*
X187677697Y-105748990D01*
X187284371Y-106141630D01*
X187071243Y-106654900D01*
X187070758Y-107210661D01*
X132613380Y-107210661D01*
X132613642Y-106911339D01*
X132401410Y-106397697D01*
X132008770Y-106004371D01*
X131800888Y-105918051D01*
X132006703Y-105833010D01*
X132400029Y-105440370D01*
X132613157Y-104927100D01*
X132613642Y-104371339D01*
X132401410Y-103857697D01*
X132008770Y-103464371D01*
X131800888Y-103378051D01*
X132006703Y-103293010D01*
X132400029Y-102900370D01*
X132613157Y-102387100D01*
X132613642Y-101831339D01*
X132401410Y-101317697D01*
X132008770Y-100924371D01*
X131800888Y-100838051D01*
X132006703Y-100753010D01*
X132400029Y-100360370D01*
X132613157Y-99847100D01*
X132613642Y-99291339D01*
X132401410Y-98777697D01*
X132008770Y-98384371D01*
X131800888Y-98298051D01*
X132006703Y-98213010D01*
X132400029Y-97820370D01*
X132613157Y-97307100D01*
X132613642Y-96751339D01*
X132401410Y-96237697D01*
X132008770Y-95844371D01*
X131800888Y-95758051D01*
X132006703Y-95673010D01*
X132400029Y-95280370D01*
X132613157Y-94767100D01*
X132613642Y-94211339D01*
X132401410Y-93697697D01*
X132008770Y-93304371D01*
X131800888Y-93218051D01*
X132006703Y-93133010D01*
X132400029Y-92740370D01*
X132613157Y-92227100D01*
X132613642Y-91671339D01*
X132401410Y-91157697D01*
X132008770Y-90764371D01*
X131495500Y-90551243D01*
X130939739Y-90550758D01*
X130426097Y-90762990D01*
X130332201Y-90856722D01*
X130332201Y-90699875D01*
X130586192Y-90446327D01*
X130728838Y-90102799D01*
X130729162Y-89730833D01*
X130587117Y-89387057D01*
X130324327Y-89123808D01*
X129980799Y-88981162D01*
X129608833Y-88980838D01*
X129265057Y-89122883D01*
X129001808Y-89385673D01*
X128904436Y-89620170D01*
X128901304Y-89623302D01*
X128719605Y-89895233D01*
X128719605Y-89895234D01*
X128655801Y-90215999D01*
X124940804Y-90215999D01*
X124940809Y-90210627D01*
X124582277Y-89342914D01*
X123918978Y-88678456D01*
X123051892Y-88318411D01*
X122113027Y-88317591D01*
X121245314Y-88676123D01*
X120580856Y-89339422D01*
X120220811Y-90206508D01*
X120219991Y-91145373D01*
X118718400Y-91145373D01*
X118718400Y-84132752D01*
X118999700Y-84249558D01*
X119554665Y-84250042D01*
X120067572Y-84038113D01*
X120460334Y-83646036D01*
X120548354Y-83434062D01*
X120635087Y-83643972D01*
X121027164Y-84036734D01*
X121539700Y-84249558D01*
X122094665Y-84250042D01*
X122607572Y-84038113D01*
X123000334Y-83646036D01*
X123088354Y-83434062D01*
X123175087Y-83643972D01*
X123567164Y-84036734D01*
X124079700Y-84249558D01*
X124634665Y-84250042D01*
X125147572Y-84038113D01*
X125540334Y-83646036D01*
X125628354Y-83434062D01*
X125715087Y-83643972D01*
X126107164Y-84036734D01*
X126619700Y-84249558D01*
X127174665Y-84250042D01*
X127687572Y-84038113D01*
X128080334Y-83646036D01*
X128168354Y-83434062D01*
X128255087Y-83643972D01*
X128647164Y-84036734D01*
X129159700Y-84249558D01*
X129714665Y-84250042D01*
X130227572Y-84038113D01*
X130620334Y-83646036D01*
X130708354Y-83434062D01*
X130795087Y-83643972D01*
X131187164Y-84036734D01*
X131699700Y-84249558D01*
X132254665Y-84250042D01*
X132767572Y-84038113D01*
X133160334Y-83646036D01*
X133248354Y-83434062D01*
X133335087Y-83643972D01*
X133727164Y-84036734D01*
X134239700Y-84249558D01*
X134794665Y-84250042D01*
X135307572Y-84038113D01*
X135700334Y-83646036D01*
X135788354Y-83434062D01*
X135875087Y-83643972D01*
X136267164Y-84036734D01*
X136779700Y-84249558D01*
X137334665Y-84250042D01*
X137847572Y-84038113D01*
X138240334Y-83646036D01*
X138328354Y-83434062D01*
X138415087Y-83643972D01*
X138807164Y-84036734D01*
X139319700Y-84249558D01*
X139874665Y-84250042D01*
X140030200Y-84185776D01*
X140030200Y-98589672D01*
X139933562Y-98822401D01*
X139933238Y-99194367D01*
X140075283Y-99538143D01*
X140338073Y-99801392D01*
X140681601Y-99944038D01*
X141053567Y-99944362D01*
X141397343Y-99802317D01*
X141660592Y-99539527D01*
X141803238Y-99195999D01*
X141803296Y-99129068D01*
X142053201Y-99232838D01*
X142425167Y-99233162D01*
X142768943Y-99091117D01*
X143032192Y-98828327D01*
X143174838Y-98484799D01*
X143175162Y-98112833D01*
X143078200Y-97878166D01*
X143078200Y-91269567D01*
X144352838Y-91269567D01*
X144494883Y-91613343D01*
X144757673Y-91876592D01*
X145101201Y-92019238D01*
X145473167Y-92019562D01*
X145707834Y-91922600D01*
X155130072Y-91922600D01*
X155362801Y-92019238D01*
X155734767Y-92019562D01*
X156078543Y-91877517D01*
X156341792Y-91614727D01*
X156484438Y-91271199D01*
X156484762Y-90899233D01*
X156342717Y-90555457D01*
X156079927Y-90292208D01*
X155736399Y-90149562D01*
X155364433Y-90149238D01*
X155129766Y-90246200D01*
X145707528Y-90246200D01*
X145474799Y-90149562D01*
X145102833Y-90149238D01*
X144759057Y-90291283D01*
X144495808Y-90554073D01*
X144353162Y-90897601D01*
X144352838Y-91269567D01*
X143078200Y-91269567D01*
X143078200Y-84858661D01*
X149732758Y-84858661D01*
X149944990Y-85372303D01*
X150337630Y-85765629D01*
X150850900Y-85978757D01*
X151406661Y-85979242D01*
X151920303Y-85767010D01*
X152313629Y-85374370D01*
X152475034Y-84985661D01*
X159130758Y-84985661D01*
X159342990Y-85499303D01*
X159735630Y-85892629D01*
X160248900Y-86105757D01*
X160804661Y-86106242D01*
X161318303Y-85894010D01*
X161711629Y-85501370D01*
X161924757Y-84988100D01*
X161924759Y-84985661D01*
X165988758Y-84985661D01*
X166200990Y-85499303D01*
X166593630Y-85892629D01*
X167106900Y-86105757D01*
X167662661Y-86106242D01*
X168176303Y-85894010D01*
X168569629Y-85501370D01*
X168655949Y-85293488D01*
X168740990Y-85499303D01*
X169102727Y-85861672D01*
X169151604Y-86107396D01*
X169333303Y-86379327D01*
X170414673Y-87460697D01*
X170686604Y-87642396D01*
X171007370Y-87706200D01*
X188595000Y-87706200D01*
X188915766Y-87642396D01*
X189187697Y-87460697D01*
X190991097Y-85657297D01*
X191172796Y-85385365D01*
X191236600Y-85064600D01*
X191236600Y-84858661D01*
X213232758Y-84858661D01*
X213444990Y-85372303D01*
X213837630Y-85765629D01*
X214350900Y-85978757D01*
X214906661Y-85979242D01*
X215420303Y-85767010D01*
X215813629Y-85374370D01*
X215899949Y-85166488D01*
X215984990Y-85372303D01*
X216377630Y-85765629D01*
X216890900Y-85978757D01*
X217446661Y-85979242D01*
X217960303Y-85767010D01*
X218353629Y-85374370D01*
X218566757Y-84861100D01*
X218566759Y-84858661D01*
X230631758Y-84858661D01*
X230843990Y-85372303D01*
X231236630Y-85765629D01*
X231749900Y-85978757D01*
X232305661Y-85979242D01*
X232819303Y-85767010D01*
X233212629Y-85374370D01*
X233425757Y-84861100D01*
X233426242Y-84305339D01*
X233214010Y-83791697D01*
X232821370Y-83398371D01*
X232308100Y-83185243D01*
X231752339Y-83184758D01*
X231238697Y-83396990D01*
X230845371Y-83789630D01*
X230632243Y-84302900D01*
X230631758Y-84858661D01*
X218566759Y-84858661D01*
X218567242Y-84305339D01*
X218355010Y-83791697D01*
X217962370Y-83398371D01*
X217449100Y-83185243D01*
X216893339Y-83184758D01*
X216379697Y-83396990D01*
X215986371Y-83789630D01*
X215900051Y-83997512D01*
X215815010Y-83791697D01*
X215422370Y-83398371D01*
X214909100Y-83185243D01*
X214353339Y-83184758D01*
X213839697Y-83396990D01*
X213446371Y-83789630D01*
X213233243Y-84302900D01*
X213232758Y-84858661D01*
X191236600Y-84858661D01*
X191236600Y-83989171D01*
X191580334Y-83646036D01*
X191668354Y-83434062D01*
X191755087Y-83643972D01*
X192147164Y-84036734D01*
X192659700Y-84249558D01*
X193214665Y-84250042D01*
X193727572Y-84038113D01*
X194120334Y-83646036D01*
X194208354Y-83434062D01*
X194295087Y-83643972D01*
X194687164Y-84036734D01*
X195199700Y-84249558D01*
X195754665Y-84250042D01*
X196267572Y-84038113D01*
X196660334Y-83646036D01*
X196748354Y-83434062D01*
X196835087Y-83643972D01*
X197227164Y-84036734D01*
X197739700Y-84249558D01*
X198294665Y-84250042D01*
X198807572Y-84038113D01*
X199200334Y-83646036D01*
X199288354Y-83434062D01*
X199375087Y-83643972D01*
X199767164Y-84036734D01*
X200279700Y-84249558D01*
X200834665Y-84250042D01*
X201347572Y-84038113D01*
X201740334Y-83646036D01*
X201828354Y-83434062D01*
X201915087Y-83643972D01*
X202307164Y-84036734D01*
X202819700Y-84249558D01*
X203374665Y-84250042D01*
X203887572Y-84038113D01*
X204280334Y-83646036D01*
X204368354Y-83434062D01*
X204455087Y-83643972D01*
X204847164Y-84036734D01*
X205359700Y-84249558D01*
X205914665Y-84250042D01*
X206427572Y-84038113D01*
X206820334Y-83646036D01*
X207033158Y-83133500D01*
X207033642Y-82578535D01*
X206821713Y-82065628D01*
X206429636Y-81672866D01*
X206217662Y-81584846D01*
X206427572Y-81498113D01*
X206820334Y-81106036D01*
X207033158Y-80593500D01*
X207033642Y-80038535D01*
X206821713Y-79525628D01*
X206429636Y-79132866D01*
X205917100Y-78920042D01*
X205362135Y-78919558D01*
X204849228Y-79131487D01*
X204456466Y-79523564D01*
X204368446Y-79735538D01*
X204281713Y-79525628D01*
X203889636Y-79132866D01*
X203377100Y-78920042D01*
X202822135Y-78919558D01*
X202309228Y-79131487D01*
X201916466Y-79523564D01*
X201828446Y-79735538D01*
X201741713Y-79525628D01*
X201349636Y-79132866D01*
X200837100Y-78920042D01*
X200282135Y-78919558D01*
X199769228Y-79131487D01*
X199376466Y-79523564D01*
X199288446Y-79735538D01*
X199201713Y-79525628D01*
X198809636Y-79132866D01*
X198297100Y-78920042D01*
X197742135Y-78919558D01*
X197229228Y-79131487D01*
X196836466Y-79523564D01*
X196748446Y-79735538D01*
X196661713Y-79525628D01*
X196269636Y-79132866D01*
X195757100Y-78920042D01*
X195202135Y-78919558D01*
X194689228Y-79131487D01*
X194296466Y-79523564D01*
X194208446Y-79735538D01*
X194121713Y-79525628D01*
X193729636Y-79132866D01*
X193217100Y-78920042D01*
X192662135Y-78919558D01*
X192149228Y-79131487D01*
X191756466Y-79523564D01*
X191668446Y-79735538D01*
X191581713Y-79525628D01*
X191189636Y-79132866D01*
X190677100Y-78920042D01*
X190122135Y-78919558D01*
X189609228Y-79131487D01*
X189216466Y-79523564D01*
X189128446Y-79735538D01*
X189041713Y-79525628D01*
X188649636Y-79132866D01*
X188137100Y-78920042D01*
X187582135Y-78919558D01*
X187069228Y-79131487D01*
X186676466Y-79523564D01*
X186588446Y-79735538D01*
X186501713Y-79525628D01*
X186109636Y-79132866D01*
X185597100Y-78920042D01*
X185042135Y-78919558D01*
X184529228Y-79131487D01*
X184136466Y-79523564D01*
X183923642Y-80036100D01*
X183923158Y-80591065D01*
X184135087Y-81103972D01*
X184527164Y-81496734D01*
X184739138Y-81584754D01*
X184529228Y-81671487D01*
X184136466Y-82063564D01*
X184048446Y-82275538D01*
X183961713Y-82065628D01*
X183569636Y-81672866D01*
X183057100Y-81460042D01*
X182502135Y-81459558D01*
X181989228Y-81671487D01*
X181596466Y-82063564D01*
X181383642Y-82576100D01*
X181383158Y-83131065D01*
X181595087Y-83643972D01*
X181987164Y-84036734D01*
X182499700Y-84249558D01*
X183054665Y-84250042D01*
X183567572Y-84038113D01*
X183960334Y-83646036D01*
X184048354Y-83434062D01*
X184135087Y-83643972D01*
X184527164Y-84036734D01*
X185039700Y-84249558D01*
X185594665Y-84250042D01*
X186107572Y-84038113D01*
X186500334Y-83646036D01*
X186588354Y-83434062D01*
X186675087Y-83643972D01*
X187067164Y-84036734D01*
X187579700Y-84249558D01*
X188134665Y-84250042D01*
X188647572Y-84038113D01*
X189040334Y-83646036D01*
X189128354Y-83434062D01*
X189215087Y-83643972D01*
X189560200Y-83989688D01*
X189560200Y-84717406D01*
X188247806Y-86029800D01*
X175467665Y-86029800D01*
X175796303Y-85894010D01*
X176189629Y-85501370D01*
X176402757Y-84988100D01*
X176403242Y-84432339D01*
X176191010Y-83918697D01*
X175798370Y-83525371D01*
X175285100Y-83312243D01*
X174729339Y-83311758D01*
X174215697Y-83523990D01*
X173822371Y-83916630D01*
X173736051Y-84124512D01*
X173651010Y-83918697D01*
X173258370Y-83525371D01*
X172745100Y-83312243D01*
X172189339Y-83311758D01*
X171675697Y-83523990D01*
X171282371Y-83916630D01*
X171196051Y-84124512D01*
X171111010Y-83918697D01*
X170718370Y-83525371D01*
X170205100Y-83312243D01*
X169649339Y-83311758D01*
X169135697Y-83523990D01*
X168742371Y-83916630D01*
X168656051Y-84124512D01*
X168571010Y-83918697D01*
X168178370Y-83525371D01*
X167665100Y-83312243D01*
X167109339Y-83311758D01*
X166595697Y-83523990D01*
X166202371Y-83916630D01*
X165989243Y-84429900D01*
X165988758Y-84985661D01*
X161924759Y-84985661D01*
X161925242Y-84432339D01*
X161713010Y-83918697D01*
X161320370Y-83525371D01*
X160807100Y-83312243D01*
X160251339Y-83311758D01*
X159737697Y-83523990D01*
X159344371Y-83916630D01*
X159131243Y-84429900D01*
X159130758Y-84985661D01*
X152475034Y-84985661D01*
X152526757Y-84861100D01*
X152527242Y-84305339D01*
X152315010Y-83791697D01*
X151922370Y-83398371D01*
X151409100Y-83185243D01*
X150853339Y-83184758D01*
X150339697Y-83396990D01*
X149946371Y-83789630D01*
X149733243Y-84302900D01*
X149732758Y-84858661D01*
X143078200Y-84858661D01*
X143078200Y-83887748D01*
X143320334Y-83646036D01*
X143533158Y-83133500D01*
X143533642Y-82578535D01*
X143321713Y-82065628D01*
X142929636Y-81672866D01*
X142717662Y-81584846D01*
X142927572Y-81498113D01*
X143320334Y-81106036D01*
X143533158Y-80593500D01*
X143533642Y-80038535D01*
X143321713Y-79525628D01*
X142929636Y-79132866D01*
X142417100Y-78920042D01*
X141862135Y-78919558D01*
X141349228Y-79131487D01*
X140956466Y-79523564D01*
X140868446Y-79735538D01*
X140781713Y-79525628D01*
X140389636Y-79132866D01*
X139877100Y-78920042D01*
X139322135Y-78919558D01*
X138809228Y-79131487D01*
X138416466Y-79523564D01*
X138328446Y-79735538D01*
X138241713Y-79525628D01*
X137849636Y-79132866D01*
X137337100Y-78920042D01*
X136782135Y-78919558D01*
X136269228Y-79131487D01*
X135876466Y-79523564D01*
X135788446Y-79735538D01*
X135701713Y-79525628D01*
X135309636Y-79132866D01*
X134797100Y-78920042D01*
X134242135Y-78919558D01*
X133729228Y-79131487D01*
X133336466Y-79523564D01*
X133248446Y-79735538D01*
X133161713Y-79525628D01*
X132769636Y-79132866D01*
X132257100Y-78920042D01*
X131702135Y-78919558D01*
X131189228Y-79131487D01*
X130796466Y-79523564D01*
X130708446Y-79735538D01*
X130621713Y-79525628D01*
X130229636Y-79132866D01*
X129717100Y-78920042D01*
X129162135Y-78919558D01*
X128649228Y-79131487D01*
X128256466Y-79523564D01*
X128168446Y-79735538D01*
X128081713Y-79525628D01*
X127689636Y-79132866D01*
X127177100Y-78920042D01*
X126622135Y-78919558D01*
X126109228Y-79131487D01*
X125716466Y-79523564D01*
X125628446Y-79735538D01*
X125541713Y-79525628D01*
X125149636Y-79132866D01*
X124637100Y-78920042D01*
X124082135Y-78919558D01*
X123569228Y-79131487D01*
X123176466Y-79523564D01*
X123088446Y-79735538D01*
X123001713Y-79525628D01*
X122609636Y-79132866D01*
X122097100Y-78920042D01*
X121542135Y-78919558D01*
X121029228Y-79131487D01*
X120636466Y-79523564D01*
X120423642Y-80036100D01*
X120423158Y-80591065D01*
X120635087Y-81103972D01*
X121027164Y-81496734D01*
X121239138Y-81584754D01*
X121029228Y-81671487D01*
X120636466Y-82063564D01*
X120548446Y-82275538D01*
X120461713Y-82065628D01*
X120069636Y-81672866D01*
X119557100Y-81460042D01*
X119002135Y-81459558D01*
X118718400Y-81576795D01*
X118718400Y-76409373D01*
X145084591Y-76409373D01*
X145443123Y-77277086D01*
X146106422Y-77941544D01*
X146973508Y-78301589D01*
X147912373Y-78302409D01*
X148780086Y-77943877D01*
X149444544Y-77280578D01*
X149804589Y-76413492D01*
X149804589Y-76413373D01*
X149912591Y-76413373D01*
X150271123Y-77281086D01*
X150934422Y-77945544D01*
X151801508Y-78305589D01*
X152740373Y-78306409D01*
X153608086Y-77947877D01*
X154272544Y-77284578D01*
X154532784Y-76657849D01*
X154841123Y-77404086D01*
X155504422Y-78068544D01*
X156371508Y-78428589D01*
X157310373Y-78429409D01*
X158178086Y-78070877D01*
X158842544Y-77407578D01*
X159202589Y-76540492D01*
X159202589Y-76540373D01*
X159310591Y-76540373D01*
X159669123Y-77408086D01*
X160332422Y-78072544D01*
X161199508Y-78432589D01*
X162138373Y-78433409D01*
X163006086Y-78074877D01*
X163670544Y-77411578D01*
X163893604Y-76874389D01*
X164114123Y-77408086D01*
X164777422Y-78072544D01*
X165644508Y-78432589D01*
X166583373Y-78433409D01*
X167451086Y-78074877D01*
X168115544Y-77411578D01*
X168475589Y-76544492D01*
X168475592Y-76540373D01*
X176455591Y-76540373D01*
X176814123Y-77408086D01*
X177477422Y-78072544D01*
X178344508Y-78432589D01*
X179283373Y-78433409D01*
X180151086Y-78074877D01*
X180815544Y-77411578D01*
X181175589Y-76544492D01*
X181175707Y-76409373D01*
X211124591Y-76409373D01*
X211483123Y-77277086D01*
X212146422Y-77941544D01*
X213013508Y-78301589D01*
X213952373Y-78302409D01*
X214820086Y-77943877D01*
X215484544Y-77280578D01*
X215844589Y-76413492D01*
X215844589Y-76413373D01*
X215952591Y-76413373D01*
X216311123Y-77281086D01*
X216974422Y-77945544D01*
X217841508Y-78305589D01*
X218780373Y-78306409D01*
X219648086Y-77947877D01*
X220312544Y-77284578D01*
X220672589Y-76417492D01*
X220672596Y-76409373D01*
X228523591Y-76409373D01*
X228882123Y-77277086D01*
X229545422Y-77941544D01*
X230412508Y-78301589D01*
X231351373Y-78302409D01*
X232219086Y-77943877D01*
X232883544Y-77280578D01*
X233243589Y-76413492D01*
X233243589Y-76413373D01*
X233351591Y-76413373D01*
X233710123Y-77281086D01*
X234373422Y-77945544D01*
X235240508Y-78305589D01*
X236179373Y-78306409D01*
X237047086Y-77947877D01*
X237711544Y-77284578D01*
X238071589Y-76417492D01*
X238072409Y-75478627D01*
X237713877Y-74610914D01*
X237050578Y-73946456D01*
X236183492Y-73586411D01*
X235244627Y-73585591D01*
X234376914Y-73944123D01*
X233712456Y-74607422D01*
X233352411Y-75474508D01*
X233351591Y-76413373D01*
X233243589Y-76413373D01*
X233244409Y-75474627D01*
X232885877Y-74606914D01*
X232222578Y-73942456D01*
X231355492Y-73582411D01*
X230416627Y-73581591D01*
X229548914Y-73940123D01*
X228884456Y-74603422D01*
X228524411Y-75470508D01*
X228523591Y-76409373D01*
X220672596Y-76409373D01*
X220673409Y-75478627D01*
X220314877Y-74610914D01*
X219651578Y-73946456D01*
X218784492Y-73586411D01*
X217845627Y-73585591D01*
X216977914Y-73944123D01*
X216313456Y-74607422D01*
X215953411Y-75474508D01*
X215952591Y-76413373D01*
X215844589Y-76413373D01*
X215845409Y-75474627D01*
X215486877Y-74606914D01*
X214823578Y-73942456D01*
X213956492Y-73582411D01*
X213017627Y-73581591D01*
X212149914Y-73940123D01*
X211485456Y-74603422D01*
X211125411Y-75470508D01*
X211124591Y-76409373D01*
X181175707Y-76409373D01*
X181176409Y-75605627D01*
X180817877Y-74737914D01*
X180154578Y-74073456D01*
X179287492Y-73713411D01*
X178348627Y-73712591D01*
X177480914Y-74071123D01*
X176816456Y-74734422D01*
X176456411Y-75601508D01*
X176455591Y-76540373D01*
X168475592Y-76540373D01*
X168476409Y-75605627D01*
X168117877Y-74737914D01*
X167454578Y-74073456D01*
X166587492Y-73713411D01*
X165648627Y-73712591D01*
X164780914Y-74071123D01*
X164116456Y-74734422D01*
X163893396Y-75271611D01*
X163672877Y-74737914D01*
X163009578Y-74073456D01*
X162142492Y-73713411D01*
X161203627Y-73712591D01*
X160335914Y-74071123D01*
X159671456Y-74734422D01*
X159311411Y-75601508D01*
X159310591Y-76540373D01*
X159202589Y-76540373D01*
X159203409Y-75601627D01*
X158844877Y-74733914D01*
X158181578Y-74069456D01*
X157314492Y-73709411D01*
X156375627Y-73708591D01*
X155507914Y-74067123D01*
X154843456Y-74730422D01*
X154583216Y-75357151D01*
X154274877Y-74610914D01*
X153611578Y-73946456D01*
X152744492Y-73586411D01*
X151805627Y-73585591D01*
X150937914Y-73944123D01*
X150273456Y-74607422D01*
X149913411Y-75474508D01*
X149912591Y-76413373D01*
X149804589Y-76413373D01*
X149805409Y-75474627D01*
X149446877Y-74606914D01*
X148783578Y-73942456D01*
X147916492Y-73582411D01*
X146977627Y-73581591D01*
X146109914Y-73940123D01*
X145445456Y-74603422D01*
X145085411Y-75470508D01*
X145084591Y-76409373D01*
X118718400Y-76409373D01*
X118718400Y-74085531D01*
X118874419Y-73301171D01*
X119279109Y-72695509D01*
X119884771Y-72290819D01*
X120669126Y-72134800D01*
X239807669Y-72134800D01*
X240592029Y-72290819D01*
M02*
